<?xml version="1.0" encoding="UTF-8" standalone="no"?>
<!-- Created with Inkscape (http://www.inkscape.org/) -->

<svg
   width="1920mm"
   height="420mm"
   viewBox="0 0 1920 420"
   version="1.1"
   id="svg1"
   xml:space="preserve"
   inkscape:version="1.4 (86a8ad7, 2024-10-11)"
   sodipodi:docname="banner-categorias-lista.svg"
   xmlns:inkscape="http://www.inkscape.org/namespaces/inkscape"
   xmlns:sodipodi="http://sodipodi.sourceforge.net/DTD/sodipodi-0.dtd"
   xmlns="http://www.w3.org/2000/svg"
   xmlns:svg="http://www.w3.org/2000/svg"><sodipodi:namedview
     id="namedview1"
     pagecolor="#ffffff"
     bordercolor="#000000"
     borderopacity="0.25"
     inkscape:showpageshadow="2"
     inkscape:pageopacity="0.0"
     inkscape:pagecheckerboard="0"
     inkscape:deskcolor="#d1d1d1"
     inkscape:document-units="mm"
     showgrid="false"
     inkscape:zoom="0.12173362"
     inkscape:cx="2484.9339"
     inkscape:cy="1663.4682"
     inkscape:window-width="1920"
     inkscape:window-height="991"
     inkscape:window-x="-9"
     inkscape:window-y="-9"
     inkscape:window-maximized="1"
     inkscape:current-layer="layer1"><inkscape:grid
       id="grid1"
       units="mm"
       originx="0"
       originy="0"
       spacingx="1"
       spacingy="0.99999998"
       empcolor="#0099e5"
       empopacity="0.30196078"
       color="#0099e5"
       opacity="0.14901961"
       empspacing="5"
       enabled="true"
       visible="false" /></sodipodi:namedview><defs
     id="defs1"><clipPath
       id="clip0_4027_7226"><rect
         width="1920"
         height="420"
         fill="white"
         transform="translate(-258)"
         id="rect42" /></clipPath><inkscape:path-effect
       effect="fillet_chamfer"
       id="path-effect12"
       is_visible="true"
       lpeversion="1"
       nodesatellites_param="F,0,0,1,0,3.5587947,0,1 @ F,0,0,1,0,0.73937001,0,1 @ F,0,0,1,0,0,0,1 @ F,0,0,1,0,3.8088835,0,1 @ F,0,1,1,0,0,0,1 @ F,0,0,1,0,0.2925386,0,1"
       radius="0"
       unit="px"
       method="auto"
       mode="F"
       chamfer_steps="1"
       flexible="false"
       use_knot_distance="true"
       apply_no_radius="true"
       apply_with_radius="true"
       only_selected="false"
       hide_knots="false" /><inkscape:path-effect
       effect="fillet_chamfer"
       id="path-effect7"
       is_visible="true"
       lpeversion="1"
       nodesatellites_param="F,0,0,1,0,0,0,1 @ F,0,0,1,0,0,0,1 @ F,0,0,1,0,1.0877082,0,1 @ F,0,0,1,0,0.98880604,0,1 @ F,0,0,1,0,1.011754,0,1"
       radius="0"
       unit="px"
       method="auto"
       mode="F"
       chamfer_steps="1"
       flexible="false"
       use_knot_distance="true"
       apply_no_radius="true"
       apply_with_radius="true"
       only_selected="false"
       hide_knots="false" /><inkscape:path-effect
       effect="fillet_chamfer"
       id="path-effect6"
       is_visible="true"
       lpeversion="1"
       nodesatellites_param="F,0,0,1,0,0,0,1 @ F,0,0,1,0,0,0,1 @ F,0,0,1,0,0.9004366,0,1 @ F,0,0,1,0,1.1898507,0,1 @ F,0,0,1,0,1.4203409,0,1"
       radius="0"
       unit="px"
       method="auto"
       mode="F"
       chamfer_steps="1"
       flexible="false"
       use_knot_distance="true"
       apply_no_radius="true"
       apply_with_radius="true"
       only_selected="false"
       hide_knots="false" /><inkscape:path-effect
       effect="fillet_chamfer"
       id="path-effect4"
       is_visible="true"
       lpeversion="1"
       nodesatellites_param="F,0,0,1,0,1.0758579,0,1 @ F,0,0,1,0,0,0,1 @ F,0,0,1,0,0.88880327,0,1 @ F,0,0,1,0,0,0,1 @ F,0,0,1,0,1.0758579,0,1 @ F,0,0,1,0,2.2214472,0,1"
       radius="0"
       unit="px"
       method="auto"
       mode="F"
       chamfer_steps="1"
       flexible="false"
       use_knot_distance="true"
       apply_no_radius="true"
       apply_with_radius="true"
       only_selected="false"
       hide_knots="false" /><inkscape:path-effect
       effect="fillet_chamfer"
       id="path-effect3"
       is_visible="true"
       lpeversion="1"
       nodesatellites_param="F,0,0,1,0,0,0,1 @ F,0,0,1,0,0,0,1 @ F,0,0,1,0,0,0,1 @ F,0,0,1,0,0,0,1 @ F,0,0,1,0,0,0,1 @ F,0,0,1,0,0,0,1 @ F,0,0,1,0,0,0,1 @ F,0,0,1,0,0,0,1"
       radius="0"
       unit="px"
       method="auto"
       mode="F"
       chamfer_steps="1"
       flexible="false"
       use_knot_distance="true"
       apply_no_radius="true"
       apply_with_radius="true"
       only_selected="false"
       hide_knots="false" /><inkscape:path-effect
       effect="fillet_chamfer"
       id="path-effect2"
       is_visible="true"
       lpeversion="1"
       nodesatellites_param="F,0,0,1,0,0,0,1 @ F,0,0,1,0,0,0,1 @ F,0,0,1,0,0,0,1 @ F,0,0,1,0,0,0,1 @ F,0,0,1,0,0,0,1 @ F,0,0,1,0,0,0,1 @ F,0,0,1,0,0,0,1 @ F,0,0,1,0,0,0,1"
       radius="0"
       unit="px"
       method="auto"
       mode="F"
       chamfer_steps="1"
       flexible="false"
       use_knot_distance="true"
       apply_no_radius="true"
       apply_with_radius="true"
       only_selected="false"
       hide_knots="false" /><radialGradient
       id="SVGID_1_"
       cx="69.549599"
       cy="86639.391"
       r="23.4655"
       gradientTransform="matrix(0.26458333,0,0,0.03103562,-170.36387,-2682.7199)"
       gradientUnits="userSpaceOnUse">
		<stop
   offset="0"
   style="stop-color:#FFC042"
   id="stop1" />
		<stop
   offset="0.0162"
   style="stop-color:#FFC247"
   id="stop2" />
		<stop
   offset="0.2071"
   style="stop-color:#FFD47E"
   id="stop3" />
		<stop
   offset="0.3929"
   style="stop-color:#FFE4AD"
   id="stop4" />
		<stop
   offset="0.5692"
   style="stop-color:#FFEFD0"
   id="stop5" />
		<stop
   offset="0.7338"
   style="stop-color:#FFF8EA"
   id="stop6" />
		<stop
   offset="0.8821"
   style="stop-color:#FFFDFA"
   id="stop7" />
		<stop
   offset="1"
   style="stop-color:#FFFFFF"
   id="stop8" />
	</radialGradient><radialGradient
       id="SVGID_00000017491165226217518050000003680051304414230446_"
       cx="162.7363"
       cy="86639.391"
       r="23.465799"
       gradientTransform="matrix(0.26458333,0,0,0.03103562,-170.36387,-2682.7199)"
       gradientUnits="userSpaceOnUse">
		<stop
   offset="0"
   style="stop-color:#FFC042"
   id="stop9" />
		<stop
   offset="0.0162"
   style="stop-color:#FFC247"
   id="stop10" />
		<stop
   offset="0.2071"
   style="stop-color:#FFD47E"
   id="stop11" />
		<stop
   offset="0.3929"
   style="stop-color:#FFE4AD"
   id="stop12" />
		<stop
   offset="0.5692"
   style="stop-color:#FFEFD0"
   id="stop13" />
		<stop
   offset="0.7338"
   style="stop-color:#FFF8EA"
   id="stop14" />
		<stop
   offset="0.8821"
   style="stop-color:#FFFDFA"
   id="stop15" />
		<stop
   offset="1"
   style="stop-color:#FFFFFF"
   id="stop16" />
	</radialGradient><radialGradient
       id="SVGID_00000057144911357649507230000012081353341769846711_"
       cx="261.92151"
       cy="86640.633"
       r="23.465099"
       gradientTransform="matrix(0.37062833,-0.00423333,3.4395833e-4,0.03103562,-228.77527,-2681.4435)"
       gradientUnits="userSpaceOnUse">
		<stop
   offset="0"
   style="stop-color:#FFC042"
   id="stop17" />
		<stop
   offset="0.0162"
   style="stop-color:#FFC247"
   id="stop18" />
		<stop
   offset="0.2071"
   style="stop-color:#FFD47E"
   id="stop19" />
		<stop
   offset="0.3929"
   style="stop-color:#FFE4AD"
   id="stop20" />
		<stop
   offset="0.5692"
   style="stop-color:#FFEFD0"
   id="stop21" />
		<stop
   offset="0.7338"
   style="stop-color:#FFF8EA"
   id="stop22" />
		<stop
   offset="0.8821"
   style="stop-color:#FFFDFA"
   id="stop23" />
		<stop
   offset="1"
   style="stop-color:#FFFFFF"
   id="stop24" />
	</radialGradient><radialGradient
       id="SVGID_00000062181308213166424650000009945774080076653202_"
       cx="69.549599"
       cy="87884.766"
       r="23.4634"
       gradientTransform="matrix(0.26458333,0,0,0.03667125,-170.36387,-3188.9308)"
       gradientUnits="userSpaceOnUse">
		<stop
   offset="0"
   style="stop-color:#FFC042"
   id="stop25" />
		<stop
   offset="0.0162"
   style="stop-color:#FFC247"
   id="stop26" />
		<stop
   offset="0.2071"
   style="stop-color:#FFD47E"
   id="stop27" />
		<stop
   offset="0.3929"
   style="stop-color:#FFE4AD"
   id="stop28" />
		<stop
   offset="0.5692"
   style="stop-color:#FFEFD0"
   id="stop29" />
		<stop
   offset="0.7338"
   style="stop-color:#FFF8EA"
   id="stop30" />
		<stop
   offset="0.8821"
   style="stop-color:#FFFDFA"
   id="stop31" />
		<stop
   offset="1"
   style="stop-color:#FFFFFF"
   id="stop32" />
	</radialGradient><radialGradient
       id="SVGID_00000129186816541277285560000008403992092527079813_"
       cx="171.6723"
       cy="87884.766"
       r="23.463301"
       gradientTransform="matrix(0.26458333,0,0,0.03667125,-170.36387,-3188.9308)"
       gradientUnits="userSpaceOnUse">
		<stop
   offset="0"
   style="stop-color:#FFC042"
   id="stop33" />
		<stop
   offset="0.0162"
   style="stop-color:#FFC247"
   id="stop34" />
		<stop
   offset="0.2071"
   style="stop-color:#FFD47E"
   id="stop35" />
		<stop
   offset="0.3929"
   style="stop-color:#FFE4AD"
   id="stop36" />
		<stop
   offset="0.5692"
   style="stop-color:#FFEFD0"
   id="stop37" />
		<stop
   offset="0.7338"
   style="stop-color:#FFF8EA"
   id="stop38" />
		<stop
   offset="0.8821"
   style="stop-color:#FFFDFA"
   id="stop39" />
		<stop
   offset="1"
   style="stop-color:#FFFFFF"
   id="stop40" />
	</radialGradient><radialGradient
       id="SVGID_00000049909335490991227300000005275649504862633638_"
       cx="265.9736"
       cy="87884.766"
       r="23.463301"
       gradientTransform="matrix(0.26458333,0,0,0.03667125,-170.36387,-3188.9308)"
       gradientUnits="userSpaceOnUse">
		<stop
   offset="0"
   style="stop-color:#FFC042"
   id="stop41" />
		<stop
   offset="0.0162"
   style="stop-color:#FFC247"
   id="stop42" />
		<stop
   offset="0.2071"
   style="stop-color:#FFD47E"
   id="stop43" />
		<stop
   offset="0.3929"
   style="stop-color:#FFE4AD"
   id="stop44" />
		<stop
   offset="0.5692"
   style="stop-color:#FFEFD0"
   id="stop45" />
		<stop
   offset="0.7338"
   style="stop-color:#FFF8EA"
   id="stop46" />
		<stop
   offset="0.8821"
   style="stop-color:#FFFDFA"
   id="stop47" />
		<stop
   offset="1"
   style="stop-color:#FFFFFF"
   id="stop48" />
	</radialGradient><radialGradient
       id="SVGID_00000070800293789113609130000015712227114847150499_"
       cx="367.45749"
       cy="87884.766"
       r="23.4639"
       gradientTransform="matrix(0.26458333,0,0,0.03667125,-170.36387,-3188.9308)"
       gradientUnits="userSpaceOnUse">
		<stop
   offset="0"
   style="stop-color:#FFC042"
   id="stop49" />
		<stop
   offset="0.0162"
   style="stop-color:#FFC247"
   id="stop50" />
		<stop
   offset="0.2071"
   style="stop-color:#FFD47E"
   id="stop51" />
		<stop
   offset="0.3929"
   style="stop-color:#FFE4AD"
   id="stop52" />
		<stop
   offset="0.5692"
   style="stop-color:#FFEFD0"
   id="stop53" />
		<stop
   offset="0.7338"
   style="stop-color:#FFF8EA"
   id="stop54" />
		<stop
   offset="0.8821"
   style="stop-color:#FFFDFA"
   id="stop55" />
		<stop
   offset="1"
   style="stop-color:#FFFFFF"
   id="stop56" />
	</radialGradient><radialGradient
       id="SVGID_00000091704996109097532360000015950613859946710942_"
       cx="73.379204"
       cy="89113.688"
       r="23.4657"
       gradientTransform="matrix(0.26458333,0,0,0.03950229,-170.36387,-3457.4485)"
       gradientUnits="userSpaceOnUse">
		<stop
   offset="0"
   style="stop-color:#FFC042"
   id="stop57" />
		<stop
   offset="0.0162"
   style="stop-color:#FFC247"
   id="stop58" />
		<stop
   offset="0.2071"
   style="stop-color:#FFD47E"
   id="stop59" />
		<stop
   offset="0.3929"
   style="stop-color:#FFE4AD"
   id="stop60" />
		<stop
   offset="0.5692"
   style="stop-color:#FFEFD0"
   id="stop61" />
		<stop
   offset="0.7338"
   style="stop-color:#FFF8EA"
   id="stop62" />
		<stop
   offset="0.8821"
   style="stop-color:#FFFDFA"
   id="stop63" />
		<stop
   offset="1"
   style="stop-color:#FFFFFF"
   id="stop64" />
	</radialGradient><radialGradient
       id="SVGID_00000145759391242409786700000001593391930056410047_"
       cx="169.2793"
       cy="89113.688"
       r="23.465799"
       gradientTransform="matrix(0.26458333,0,0,0.03950229,-170.36387,-3457.4485)"
       gradientUnits="userSpaceOnUse">
		<stop
   offset="0"
   style="stop-color:#FFC042"
   id="stop65" />
		<stop
   offset="0.0162"
   style="stop-color:#FFC247"
   id="stop66" />
		<stop
   offset="0.2071"
   style="stop-color:#FFD47E"
   id="stop67" />
		<stop
   offset="0.3929"
   style="stop-color:#FFE4AD"
   id="stop68" />
		<stop
   offset="0.5692"
   style="stop-color:#FFEFD0"
   id="stop69" />
		<stop
   offset="0.7338"
   style="stop-color:#FFF8EA"
   id="stop70" />
		<stop
   offset="0.8821"
   style="stop-color:#FFFDFA"
   id="stop71" />
		<stop
   offset="1"
   style="stop-color:#FFFFFF"
   id="stop72" />
	</radialGradient><radialGradient
       id="SVGID_00000051343970944853086230000012789295974477938322_"
       cx="269.8042"
       cy="89113.688"
       r="23.465599"
       gradientTransform="matrix(0.26458333,0,0,0.03950229,-170.36387,-3457.4485)"
       gradientUnits="userSpaceOnUse">
		<stop
   offset="0"
   style="stop-color:#FFC042"
   id="stop73" />
		<stop
   offset="0.0162"
   style="stop-color:#FFC247"
   id="stop74" />
		<stop
   offset="0.2071"
   style="stop-color:#FFD47E"
   id="stop75" />
		<stop
   offset="0.3929"
   style="stop-color:#FFE4AD"
   id="stop76" />
		<stop
   offset="0.5692"
   style="stop-color:#FFEFD0"
   id="stop77" />
		<stop
   offset="0.7338"
   style="stop-color:#FFF8EA"
   id="stop78" />
		<stop
   offset="0.8821"
   style="stop-color:#FFFDFA"
   id="stop79" />
		<stop
   offset="1"
   style="stop-color:#FFFFFF"
   id="stop80" />
	</radialGradient><radialGradient
       id="SVGID_00000082327987348496982530000005695122870166384316_"
       cx="377.03171"
       cy="89113.688"
       r="23.466101"
       gradientTransform="matrix(0.26458333,0,0,0.03950229,-170.36387,-3457.4485)"
       gradientUnits="userSpaceOnUse">
		<stop
   offset="0"
   style="stop-color:#FFC042"
   id="stop81" />
		<stop
   offset="0.0162"
   style="stop-color:#FFC247"
   id="stop82" />
		<stop
   offset="0.2071"
   style="stop-color:#FFD47E"
   id="stop83" />
		<stop
   offset="0.3929"
   style="stop-color:#FFE4AD"
   id="stop84" />
		<stop
   offset="0.5692"
   style="stop-color:#FFEFD0"
   id="stop85" />
		<stop
   offset="0.7338"
   style="stop-color:#FFF8EA"
   id="stop86" />
		<stop
   offset="0.8821"
   style="stop-color:#FFFDFA"
   id="stop87" />
		<stop
   offset="1"
   style="stop-color:#FFFFFF"
   id="stop88" />
	</radialGradient><radialGradient
       id="SVGID_00000041986455432770903490000010044259755797563042_"
       cx="74.336601"
       cy="90325.164"
       r="23.466"
       gradientTransform="matrix(0.26458333,0,0,0.03103562,-170.36387,-2713.9137)"
       gradientUnits="userSpaceOnUse">
		<stop
   offset="0"
   style="stop-color:#FFC042"
   id="stop89" />
		<stop
   offset="0.0162"
   style="stop-color:#FFC247"
   id="stop90" />
		<stop
   offset="0.2071"
   style="stop-color:#FFD47E"
   id="stop91" />
		<stop
   offset="0.3929"
   style="stop-color:#FFE4AD"
   id="stop92" />
		<stop
   offset="0.5692"
   style="stop-color:#FFEFD0"
   id="stop93" />
		<stop
   offset="0.7338"
   style="stop-color:#FFF8EA"
   id="stop94" />
		<stop
   offset="0.8821"
   style="stop-color:#FFFDFA"
   id="stop95" />
		<stop
   offset="1"
   style="stop-color:#FFFFFF"
   id="stop96" />
	</radialGradient><radialGradient
       id="SVGID_00000163780498512609527580000013368104648154647989_"
       cx="162.7363"
       cy="90325.164"
       r="23.466299"
       gradientTransform="matrix(0.26458333,0,0,0.03103562,-170.36387,-2713.9137)"
       gradientUnits="userSpaceOnUse">
		<stop
   offset="0"
   style="stop-color:#FFC042"
   id="stop97" />
		<stop
   offset="0.0162"
   style="stop-color:#FFC247"
   id="stop98" />
		<stop
   offset="0.2071"
   style="stop-color:#FFD47E"
   id="stop99" />
		<stop
   offset="0.3929"
   style="stop-color:#FFE4AD"
   id="stop100" />
		<stop
   offset="0.5692"
   style="stop-color:#FFEFD0"
   id="stop101" />
		<stop
   offset="0.7338"
   style="stop-color:#FFF8EA"
   id="stop102" />
		<stop
   offset="0.8821"
   style="stop-color:#FFFDFA"
   id="stop103" />
		<stop
   offset="1"
   style="stop-color:#FFFFFF"
   id="stop104" />
	</radialGradient><radialGradient
       id="SVGID_00000078038050646659129320000008808924160133951925_"
       cx="275.54791"
       cy="90325.164"
       r="23.4659"
       gradientTransform="matrix(0.26458333,0,0,0.03103562,-170.36387,-2713.9137)"
       gradientUnits="userSpaceOnUse">
		<stop
   offset="0"
   style="stop-color:#FFC042"
   id="stop105" />
		<stop
   offset="0.0162"
   style="stop-color:#FFC247"
   id="stop106" />
		<stop
   offset="0.2071"
   style="stop-color:#FFD47E"
   id="stop107" />
		<stop
   offset="0.3929"
   style="stop-color:#FFE4AD"
   id="stop108" />
		<stop
   offset="0.5692"
   style="stop-color:#FFEFD0"
   id="stop109" />
		<stop
   offset="0.7338"
   style="stop-color:#FFF8EA"
   id="stop110" />
		<stop
   offset="0.8821"
   style="stop-color:#FFFDFA"
   id="stop111" />
		<stop
   offset="1"
   style="stop-color:#FFFFFF"
   id="stop112" />
	</radialGradient><radialGradient
       id="SVGID_00000017488731610769851240000014803845823634522510_"
       cx="373.83939"
       cy="90325.164"
       r="23.466101"
       gradientTransform="matrix(0.26458333,0,0,0.03103562,-170.36387,-2713.9137)"
       gradientUnits="userSpaceOnUse">
		<stop
   offset="0"
   style="stop-color:#FFC042"
   id="stop113" />
		<stop
   offset="0.0162"
   style="stop-color:#FFC247"
   id="stop114" />
		<stop
   offset="0.2071"
   style="stop-color:#FFD47E"
   id="stop115" />
		<stop
   offset="0.3929"
   style="stop-color:#FFE4AD"
   id="stop116" />
		<stop
   offset="0.5692"
   style="stop-color:#FFEFD0"
   id="stop117" />
		<stop
   offset="0.7338"
   style="stop-color:#FFF8EA"
   id="stop118" />
		<stop
   offset="0.8821"
   style="stop-color:#FFFDFA"
   id="stop119" />
		<stop
   offset="1"
   style="stop-color:#FFFFFF"
   id="stop120" />
	</radialGradient><radialGradient
       id="SVGID_00000183219144828788041900000009501216331486872757_"
       cx="361.95621"
       cy="86639.391"
       r="23.464399"
       gradientTransform="matrix(0.39367354,0,0,0.03103562,-214.34553,-2682.7199)"
       gradientUnits="userSpaceOnUse">
		<stop
   offset="0"
   style="stop-color:#FFC042"
   id="stop121" />
		<stop
   offset="0.0162"
   style="stop-color:#FFC247"
   id="stop122" />
		<stop
   offset="0.2071"
   style="stop-color:#FFD47E"
   id="stop123" />
		<stop
   offset="0.3929"
   style="stop-color:#FFE4AD"
   id="stop124" />
		<stop
   offset="0.5692"
   style="stop-color:#FFEFD0"
   id="stop125" />
		<stop
   offset="0.7338"
   style="stop-color:#FFF8EA"
   id="stop126" />
		<stop
   offset="0.8821"
   style="stop-color:#FFFDFA"
   id="stop127" />
		<stop
   offset="1"
   style="stop-color:#FFFFFF"
   id="stop128" />
	</radialGradient><linearGradient
       id="SVGID_00000147935371948299451910000004543092986169022386_"
       gradientUnits="userSpaceOnUse"
       x1="164.06799"
       y1="151.7933"
       x2="172.34689"
       y2="203.9193"
       gradientTransform="matrix(1.810582,0,0,1.3726035,-205.5924,-170.36203)">
			<stop
   offset="0"
   style="stop-color:#FF1F00"
   id="stop259" />
			<stop
   offset="1"
   style="stop-color:#FFEE00"
   id="stop260" />
		</linearGradient><linearGradient
       id="SVGID_00000085940695815778316940000014963811245895200400_"
       gradientUnits="userSpaceOnUse"
       x1="169.5885"
       y1="137.78709"
       x2="169.5885"
       y2="195.57671"
       gradientTransform="matrix(1.810582,0,0,1.3726035,-205.5924,-170.36203)">
			<stop
   offset="0"
   style="stop-color:#FF1F00"
   id="stop261" />
			<stop
   offset="1"
   style="stop-color:#FFEE00"
   id="stop262" />
		</linearGradient><linearGradient
       id="SVGID_00000029740859723485798650000012617665382884913799_"
       gradientUnits="userSpaceOnUse"
       x1="169.89841"
       y1="146.1851"
       x2="169.89841"
       y2="196.4442"
       gradientTransform="matrix(1.810582,0,0,1.3726035,-205.5924,-170.36203)">
			<stop
   offset="0"
   style="stop-color:#000000"
   id="stop263" />
			<stop
   offset="1"
   style="stop-color:#FF8400"
   id="stop264" />
		</linearGradient><linearGradient
       id="SVGID_00000028322741429936237140000010938297759065998977_"
       gradientUnits="userSpaceOnUse"
       x1="159.25729"
       y1="130.08279"
       x2="163.4071"
       y2="156.2112"
       gradientTransform="matrix(1.810582,0,0,1.3726035,-205.5924,-170.36203)">
			<stop
   offset="0"
   style="stop-color:#FF1F00"
   id="stop265" />
			<stop
   offset="1"
   style="stop-color:#FFEE00"
   id="stop266" />
		</linearGradient><linearGradient
       id="SVGID_00000080207709840606735760000015507454919943773849_"
       gradientUnits="userSpaceOnUse"
       x1="159.14"
       y1="125.9414"
       x2="161.12019"
       y2="151.33459"
       gradientTransform="matrix(1.810582,0,0,1.3726035,-205.5924,-170.36203)">
			<stop
   offset="0"
   style="stop-color:#FF1F00"
   id="stop267" />
			<stop
   offset="1"
   style="stop-color:#FFEE00"
   id="stop268" />
		</linearGradient><inkscape:path-effect
       effect="fillet_chamfer"
       id="path-effect12-5"
       is_visible="true"
       lpeversion="1"
       nodesatellites_param="F,0,0,1,0,3.5587947,0,1 @ F,0,0,1,0,0.73937001,0,1 @ F,0,0,1,0,0,0,1 @ F,0,0,1,0,3.8088835,0,1 @ F,0,1,1,0,0,0,1 @ F,0,0,1,0,0.2925386,0,1"
       radius="0"
       unit="px"
       method="auto"
       mode="F"
       chamfer_steps="1"
       flexible="false"
       use_knot_distance="true"
       apply_no_radius="true"
       apply_with_radius="true"
       only_selected="false"
       hide_knots="false" /></defs><g
     inkscape:label="Camada 1"
     inkscape:groupmode="layer"
     id="layer1"><rect
       style="fill:#1e2729;fill-opacity:1;stroke-width:3;stroke-linecap:round;stroke-linejoin:round;paint-order:markers fill stroke"
       id="rect1"
       width="1936.4553"
       height="430.32339"
       x="-15.112769"
       y="-3.0737388"
       rx="1.152652"
       ry="1.152652" /><path
       d="m 1548.2365,142.77613 c -0.02,-1.27243 1.0937,-2.31525 2.4877,-2.32829 1.3939,-0.013 2.54,1.00773 2.5597,2.28117 0.02,1.27243 -1.0936,2.31525 -2.4876,2.32829 -1.394,0.013 -2.54,-1.00873 -2.5598,-2.28117 z"
       fill="#ffffff"
       id="path18-4"
       style="fill:#ffffff;stroke-width:0.264583" /><path
       d="m 1547.7332,110.50898 c -0.02,-1.27344 1.0937,-2.31526 2.4876,-2.32829 1.394,-0.014 2.539,1.00672 2.5598,2.28016 0.02,1.27344 -1.0937,2.31525 -2.4876,2.32829 -1.394,0.013 -2.54,-1.00773 -2.5598,-2.28016 z"
       fill="#ffffff"
       id="path19-6"
       style="fill:#ffffff;stroke-width:0.264583" /><path
       d="m 1547.2299,78.240818 c -0.02,-1.272437 1.0936,-2.315253 2.4876,-2.328288 1.394,-0.01304 2.54,1.008724 2.5598,2.280158 0.02,1.27344 -1.0937,2.316257 -2.4877,2.329292 -1.3939,0.01304 -2.5399,-1.008725 -2.5597,-2.281162 z"
       fill="#ffffff"
       id="path20-0"
       style="fill:#ffffff;stroke-width:0.264583" /><path
       d="m 1546.7285,45.973662 c -0.02,-1.27344 1.0937,-2.316256 2.4877,-2.329291 1.394,-0.01304 2.54,1.008724 2.5597,2.281161 0.02,1.27344 -1.0936,2.315254 -2.4876,2.328289 -1.394,0.01303 -2.54,-1.007722 -2.5598,-2.280159 z"
       fill="#ffffff"
       id="path21-6"
       style="fill:#ffffff;stroke-width:0.264583" /><path
       d="m 1546.2252,13.705503 c -0.02,-1.27344 1.0937,-2.315254 2.4877,-2.328289 1.3939,-0.01304 2.54,1.007722 2.5597,2.280159 0.02,1.27344 -1.0936,2.316257 -2.4876,2.329292 -1.394,0.01304 -2.54,-1.007722 -2.5598,-2.281162 z"
       fill="#ffffff"
       id="path22-6"
       style="fill:#ffffff;stroke-width:0.264583" /><path
       d="m 1145.856,155.10938 -369.17316,-18.36785 -3.61549,72.68059 369.17295,18.36839 z"
       fill="#fd6101"
       id="path40-2"
       style="fill:#fd6101;fill-opacity:1;stroke-width:0.264583" /><path
       d="m 631.56043,-397.37138 v -15.917 h 4.8531 v -43.67597 h -4.8531 v -15.91799 h 65.51395 v 29.31117 h -21.74072 v -13.39318 h -11.74472 v 15.33442 h 8.54107 v 11.06489 h -8.54107 v 17.27666 h 11.74472 v -15.33542 h 21.74072 v 31.25242 z m 139.46069,-15.917 h 4.07701 v 15.917 h -36.6881 v -15.917 h 3.97975 l -5.6292,-7.95949 h -0.97062 l -5.63021,7.95949 h 3.97975 v 15.917 h -33.96976 v -15.917 h 5.04664 l 18.63533,-20.96462 -19.41143,-22.71135 h -4.07701 v -15.91799 h 36.39731 v 15.91799 h -3.68896 l 5.33841,7.9585 h 0.97063 l 5.33842,-7.9585 h -3.68797 v -15.91799 h 33.67897 v 15.91799 h -5.04763 l -18.34355,20.67284 z m 7.35787,15.917 v -15.917 h 4.85311 v -43.67597 h -4.85311 v -15.91799 h 65.51396 v 29.31117 h -21.74072 v -13.39318 h -11.74472 v 15.33442 h 8.54107 v 11.06489 h -8.54107 v 17.27666 h 11.74472 v -15.33542 h 21.74072 v 31.25242 z m 69.19089,-15.917 h 4.85311 v -43.67597 h -4.85311 v -15.91799 h 44.54934 c 8.34754,0 14.72076,1.71463 19.12064,5.14389 4.39989,3.42926 6.59983,8.9943 6.59983,16.69409 0,4.33571 -0.87336,8.08785 -2.62008,11.25841 -1.74772,3.17057 -4.23845,5.37051 -7.47318,6.59983 l 0.0963,0.97062 c 6.21178,0.97062 9.31817,4.78894 9.31817,11.45294 v 7.47418 h 4.56132 v 15.917 h -30.76711 v -22.80861 c 0,-2.52382 -0.38805,-4.43197 -1.16515,-5.72647 -0.71092,-1.29349 -1.87606,-2.16785 -3.49343,-2.62007 -1.5532,-0.45323 -3.78523,-0.67984 -6.69709,-0.67984 v 15.91799 h 6.4053 v 15.917 h -38.43482 z m 37.27068,-27.75897 c 1.87606,0 3.26782,-0.48532 4.17327,-1.45594 0.97062,-1.03479 1.45593,-2.62007 1.45593,-4.75584 v -3.49344 c 0,-2.13577 -0.48531,-3.68896 -1.45593,-4.65958 -0.90545,-1.0348 -2.29721,-1.5522 -4.17327,-1.5522 h -5.24116 v 15.917 z m 78.01472,45.03464 c -12.22903,0 -21.67555,-3.10539 -28.34055,-9.31717 -6.59983,-6.21178 -9.89974,-16.14461 -9.89974,-29.79648 0,-26.07644 12.68226,-39.11465 38.04677,-39.11465 6.1466,0 11.84098,0.74401 17.08214,2.23203 5.30533,1.48902 9.25299,3.13847 11.84098,4.95037 v 24.26454 h -23.29392 v -6.98888 c 0,-2.45864 -0.55048,-4.27054 -1.65046,-5.43468 -1.09997,-1.16515 -2.74942,-1.74672 -4.94936,-1.74672 -2.19995,0 -3.8504,0.58157 -4.95038,1.74672 -1.09997,1.16414 -1.64945,2.97604 -1.64945,5.43468 v 29.31217 c 0,2.45865 0.54948,4.27054 1.64945,5.43468 1.09998,1.16515 2.75043,1.74772 4.95038,1.74772 2.19994,0 3.84939,-0.58257 4.94936,-1.74772 1.09998,-1.16414 1.65046,-2.97603 1.65046,-5.43468 v -7.86223 h 23.29392 v 25.1379 c -2.65316,1.81189 -6.59983,3.46235 -11.84098,4.95037 -5.17699,1.48802 -10.80619,2.23203 -16.88862,2.23203 z m 32.38648,-1.35867 v -15.917 h 4.85314 v -43.67597 h -4.85314 v -15.91799 h 36.88164 v 15.91799 h -4.8521 v 43.67597 h 4.8521 v 15.917 z m 5.82374,-81.33469 v -1.45493 l 10.5796,-9.31817 h 24.3608 v 2.52381 l -15.8198,8.24929 z m 72.5911,82.69336 c -12.2291,0 -21.6756,-3.10539 -28.3406,-9.31717 -6.5998,-6.21178 -9.8997,-16.14461 -9.8997,-29.79648 0,-26.07644 12.6822,-39.11465 38.0467,-39.11465 6.1466,0 11.841,0.74401 17.0822,2.23203 5.3053,1.48902 9.252,3.13847 11.841,4.95037 v 24.26454 h -23.294 v -6.98888 c 0,-2.45864 -0.5504,-4.27054 -1.6504,-5.43468 -1.1,-1.16515 -2.7494,-1.74672 -4.9494,-1.74672 -2.1999,0 -3.8504,0.58157 -4.9504,1.74672 -1.0999,1.16414 -1.6494,2.97604 -1.6494,5.43468 v 29.31217 c 0,2.45865 0.5495,4.27054 1.6494,5.43468 1.1,1.16515 2.7505,1.74772 4.9504,1.74772 2.2,0 3.8494,-0.58257 4.9494,-1.74772 1.1,-1.16414 1.6504,-2.97603 1.6504,-5.43468 v -7.86223 h 23.294 v 25.1379 c -2.6532,1.81189 -6.5999,3.46235 -11.841,4.95037 -5.177,1.48802 -10.8062,2.23203 -16.8886,2.23203 z m 32.3864,-1.35867 v -15.917 h 4.8532 v -43.67597 h -4.8532 v -15.91799 h 36.8817 v 15.91799 h -4.8531 v 43.67597 h 4.8531 v 15.917 z m 77.2497,1.35867 c -11.841,0 -20.9967,-3.10539 -27.4672,-9.31717 -6.4053,-6.21178 -9.6079,-16.14461 -9.6079,-29.79648 0,-13.65288 3.2026,-23.58571 9.6079,-29.79749 6.4705,-6.21178 15.6262,-9.31716 27.4672,-9.31716 11.841,0 20.9646,3.10538 27.3709,9.31716 6.4705,6.21178 9.7052,16.14461 9.7052,29.79749 0,13.65187 -3.2347,23.5847 -9.7052,29.79648 -6.4063,6.21178 -15.5299,9.31717 -27.3709,9.31717 z m 0,-17.27567 c 2.1999,0 3.8504,-0.58257 4.9504,-1.74772 1.0999,-1.16414 1.6504,-2.97603 1.6504,-5.43468 v -29.31217 c 0,-2.45864 -0.5505,-4.27054 -1.6504,-5.43468 -1.1,-1.16515 -2.7505,-1.74672 -4.9504,-1.74672 -2.1999,0 -3.8494,0.58157 -4.9494,1.74672 -1.0999,1.16414 -1.6504,2.97604 -1.6504,5.43468 v 29.31217 c 0,2.52282 0.5505,4.3668 1.6504,5.53195 1.1,1.09997 2.7495,1.65045 4.9494,1.65045 z m 70.4633,17.27567 c -6.2118,0 -12.0997,-0.5174 -17.6647,-1.5532 -5.4998,-1.09997 -9.7373,-2.32929 -12.7143,-3.68796 v -19.21691 h 21.3526 c 0,2.00542 0.4533,3.46135 1.3587,4.3668 0.9065,0.90645 2.5559,1.35967 4.9504,1.35967 2.0054,0 3.4293,-0.29179 4.2705,-0.87436 0.9055,-0.64675 1.3587,-1.58528 1.3587,-2.8146 0,-1.0348 -0.4201,-1.90816 -1.2614,-2.62008 -0.8413,-0.7761 -2.2972,-1.55319 -4.3678,-2.32929 l -8.3476,-2.91187 c -7.1814,-2.71734 -12.3583,-5.92099 -15.5289,-9.60895 -3.1054,-3.68796 -4.6586,-8.67042 -4.6586,-14.94637 0,-7.63563 2.4907,-13.42627 7.4732,-17.37393 5.0476,-4.01184 13.4263,-6.01725 25.1379,-6.01725 5.6292,0 10.9034,0.58257 15.8167,1.74671 4.9835,1.09998 8.9943,2.589 12.0425,4.46507 v 17.37292 h -19.4124 c 0,-3.23474 -2.0054,-4.8521 -6.0162,-4.8521 -1.9453,0 -3.336,0.25869 -4.1773,0.77609 -0.7761,0.45323 -1.1652,1.2945 -1.1652,2.52382 0,1.09997 0.4533,1.97333 1.3597,2.62008 0.9706,0.64674 2.5228,1.32658 4.6546,2.0385 l 8.4428,2.91187 c 6.8685,2.32929 11.842,5.3705 14.9504,9.12264 3.1685,3.68896 4.7528,8.54107 4.7528,14.55932 0,8.2172 -2.7775,14.42898 -8.3425,18.63434 -5.5049,4.20636 -13.5867,6.30904 -24.2646,6.30904 z"
       fill="#f0f0f0"
       id="path42-1"
       style="fill:none;stroke-width:0.264583" /><path
       id="text1"
       style="font-size:94.4641px;font-family:'Alfa Slab One';-inkscape-font-specification:'Alfa Slab One';fill:#f0f0f0;stroke-width:2.99999;stroke-linecap:round;stroke-linejoin:round;paint-order:markers fill stroke"
       d="m 670.75301,291.54057 q -17.85371,0 -27.58352,-9.06855 -9.63533,-9.06856 -9.63533,-29.00048 0,-38.06904 37.02992,-38.06904 8.97409,0 16.62569,2.17268 7.74605,2.17267 11.52462,4.81767 v 23.61602 H 676.043 v -6.80141 q 0,-3.58964 -1.60589,-5.28999 -1.60589,-1.70036 -4.81767,-1.70036 -3.21178,0 -4.81767,1.70036 -1.60589,1.70035 -1.60589,5.28999 v 28.52816 q 0,3.58963 1.60589,5.28999 1.60589,1.70035 4.81767,1.70035 3.21178,0 4.81767,-1.70035 1.60589,-1.70036 1.60589,-5.28999 v -7.6516 h 22.67139 v 24.46621 q -3.87303,2.64499 -11.52462,4.81767 -7.55713,2.17267 -16.43676,2.17267 z m 100.88768,-16.81461 h 3.77856 v 15.49211 h -37.02993 v -15.49211 h 5.66785 l -1.51143,-7.55713 h -12.84711 l -1.51143,7.55713 h 5.66785 v 15.49211 h -32.30673 v -15.49211 h 3.77857 L 721.29132,216.725 h 34.38493 z m -39.86385,-17.57032 h 8.69069 l -3.87303,-18.79836 h -0.94464 z m 105.79969,-17.57033 h -16.24782 v -7.3682 H 815.283 v 42.50885 h 6.61249 v 15.49211 h -39.67492 v -15.49211 h 6.61249 v -42.50885 h -6.04571 v 7.3682 H 766.53953 V 216.725 h 71.037 z m 3.21185,50.63276 v -15.49211 h 4.7232 v -42.50885 h -4.7232 V 216.725 h 63.76327 v 28.52816 h -21.15996 v -13.03605 h -11.43016 v 14.92533 h 8.31285 v 10.76891 h -8.31285 v 16.81461 h 11.43016 v -14.92533 h 21.15996 v 30.41744 z m 138.57878,-23.61602 h -4.72321 v 18.89282 q -4.15642,2.3616 -12.18587,4.25088 -7.93498,1.79482 -17.19246,1.79482 -17.66479,0 -27.67799,-9.25748 -10.01319,-9.35195 -10.01319,-28.81155 0,-19.93193 9.91873,-29.00048 10.0132,-9.06856 28.52816,-9.06856 8.97409,0 16.81461,1.88928 7.84052,1.88929 11.80801,4.25089 v 22.57692 h -23.61602 v -4.43981 q 0,-3.9675 -1.70036,-5.66785 -1.60589,-1.79482 -5.19552,-1.79482 -3.58964,0 -5.28999,1.79482 -1.60589,1.70035 -1.60589,5.66785 v 27.58351 q 0,3.9675 1.60589,5.76232 1.70035,1.70035 5.28999,1.70035 3.58963,0 5.19552,-1.70035 1.70036,-1.79482 1.70036,-5.76232 v -0.66124 h -5.10106 v -14.07516 h 33.44029 z m 38.16344,24.93852 q -17.2869,0 -26.73333,-9.06855 -9.35195,-9.06856 -9.35195,-29.00048 0,-19.93193 9.35195,-29.00048 9.44643,-9.06856 26.73333,-9.06856 17.2869,0 26.6389,9.06856 9.4464,9.06855 9.4464,29.00048 0,19.93192 -9.4464,29.00048 -9.352,9.06855 -26.6389,9.06855 z m 0,-16.81461 q 3.2118,0 4.8177,-1.70035 1.6059,-1.70036 1.6059,-5.28999 v -28.52816 q 0,-3.58964 -1.6059,-5.28999 -1.6059,-1.70036 -4.8177,-1.70036 -3.2118,0 -4.8177,1.70036 -1.6059,1.70035 -1.6059,5.28999 v 28.52816 q 0,3.6841 1.6059,5.38445 1.6059,1.60589 4.8177,1.60589 z m 39.297,0 h 4.7232 v -42.50885 h -4.7232 V 216.725 h 43.3591 q 12.1858,0 18.6094,5.0066 6.4235,5.00659 6.4235,16.24782 0,6.3291 -2.5505,10.95784 -2.5505,4.62874 -7.2737,6.42356 l 0.094,0.94464 q 9.0686,1.41696 9.0686,11.14676 v 7.27374 h 4.4398 v 15.49211 h -29.9451 v -22.19906 q 0,-3.6841 -1.1336,-5.57338 -1.0391,-1.88929 -3.4007,-2.55054 -2.2671,-0.66124 -6.518,-0.66124 v 15.49211 h 6.2346 v 15.49211 h -37.4078 z m 36.2743,-27.01673 q 2.7394,0 4.0619,-1.41697 1.417,-1.51142 1.417,-4.62874 v -3.4007 q 0,-3.11732 -1.417,-4.53428 -1.3225,-1.51143 -4.0619,-1.51143 h -5.1011 v 15.49212 z m 39.297,42.50884 v -15.49211 h 4.7232 v -42.50885 h -4.7232 V 216.725 h 35.8963 v 15.49211 h -4.7232 v 42.50885 h 4.7232 v 15.49211 z m 109.0115,-15.49211 h 3.7786 v 15.49211 h -37.03 v -15.49211 h 5.6679 l -1.5114,-7.55713 h -12.8471 l -1.5115,7.55713 h 5.6679 v 15.49211 h -32.3068 v -15.49211 h 3.7786 L 1191.061,216.725 h 34.385 z m -39.8638,-17.57032 h 8.6907 l -3.8731,-18.79836 h -0.9446 z m 75.9491,34.38493 q -9.0686,0 -17.1925,-1.51143 -8.0294,-1.60589 -12.3748,-3.58963 v -18.70389 h 20.7821 q 0,2.92838 1.3225,4.25088 1.3225,1.3225 4.8177,1.3225 2.9284,0 4.1564,-0.85018 1.3225,-0.94464 1.3225,-2.73946 0,-1.51142 -1.228,-2.55053 -1.228,-1.13357 -4.2509,-2.26714 l -8.1239,-2.83392 q -10.4855,-3.96749 -15.1143,-9.35195 -4.5342,-5.38445 -4.5342,-14.54747 0,-11.14676 7.2737,-16.90907 7.3682,-5.85678 24.4662,-5.85678 8.2184,0 15.3976,1.70036 7.2738,1.60589 11.7136,4.34534 v 16.90908 h -18.8928 q 0,-4.72321 -5.8568,-4.72321 -2.8339,0 -4.062,0.75572 -1.1335,0.66125 -1.1335,2.45606 0,1.60589 1.3225,2.55053 1.4169,0.94465 4.5342,1.98375 l 8.2184,2.83392 q 10.0132,3.40071 14.5475,8.87963 4.6287,5.38445 4.6287,14.16961 0,11.99695 -8.1239,18.13711 -8.0294,6.14017 -23.616,6.14017 z" /><path
       d="m 870.06089,187.70754 10.55264,0.58601 -0.40146,7.22835 -19.99737,-1.10984 1.8853,-33.97278 9.44473,0.5238 z m 25.15395,-25.4303 -1.88532,33.97279 -9.44445,-0.52486 1.88505,-33.97171 z m 16.29229,35.3191 c -3.95097,-0.21935 -7.14424,-1.33079 -9.57844,-3.33513 -2.43329,-2.03582 -3.64836,-4.81 -3.64627,-8.32287 l 10.07113,0.55965 c 0.0291,1.19394 0.33554,2.08071 0.91557,2.66113 0.5803,0.57935 1.35171,0.89649 2.31586,0.94949 0.86675,0.0484 1.58531,-0.1208 2.15487,-0.5087 0.60276,-0.41718 0.92627,-1.01153 0.96922,-1.78224 0.0552,-0.99641 -0.36757,-1.79306 -1.26934,-2.39123 -0.9018,-0.59818 -2.37688,-1.29167 -4.42823,-2.08233 -2.17544,-0.86184 -3.93534,-1.66819 -5.27949,-2.42015 -1.30986,-0.78091 -2.44261,-1.85921 -3.39748,-3.23355 -0.92033,-1.40436 -1.32093,-3.18286 -1.20178,-5.33549 0.12116,-2.18384 0.77009,-4.01745 1.94844,-5.49819 1.17979,-1.51435 2.75508,-2.61921 4.72721,-3.31538 1.97214,-0.69619 4.17953,-0.97574 6.62026,-0.84029 3.95231,0.21855 7.04821,1.32536 9.29033,3.31882 2.27561,1.96319 3.40079,4.61911 3.37635,7.9691 l -10.26452,-0.56973 c 0.0249,-1.02988 -0.25275,-1.81809 -0.83505,-2.36624 -0.55,-0.54588 -1.29067,-0.84527 -2.22251,-0.89603 -0.7059,-0.0396 -1.29614,0.13729 -1.76939,0.52963 -0.47219,0.3926 -0.73042,0.97464 -0.77336,1.74538 -0.0353,0.6424 0.17456,1.21807 0.62946,1.72705 0.48863,0.47762 1.09256,0.91446 1.81232,1.30834 0.72068,0.36243 1.78995,0.84091 3.20671,1.43517 2.11168,0.85866 3.83811,1.69532 5.17801,2.51077 1.37441,0.78542 2.52292,1.86417 3.4455,3.23625 0.95713,1.34205 1.38042,3.00949 1.26908,5.001 -0.11254,2.02405 -0.72727,3.81057 -1.84423,5.35958 -1.08469,1.55127 -2.61694,2.73915 -4.59569,3.5639 -1.94729,0.82568 -4.22187,1.16688 -6.82454,1.02229 z m 44.55672,-31.94251 -0.41803,7.51752 -9.05923,-0.50285 -1.46728,26.45525 -9.44579,-0.52406 1.46836,-26.45499 -8.9632,-0.49744 0.41804,-7.5175 z m 23.40797,29.81768 -12.0474,-0.6684 -2.13806,5.44038 -9.92706,-0.55151 14.26992,-33.2851 10.89015,0.60425 10.45124,34.65776 -9.97506,-0.55423 z m -1.96004,-7.35909 -3.05292,-11.19028 -4.22345,10.7861 z m 41.09022,-18.98826 c 3.5664,0.19869 6.6417,1.09435 9.2287,2.68779 2.6194,1.5629 4.5813,3.66991 5.8843,6.32076 1.3034,2.64978 1.8624,5.62884 1.6791,8.93874 -0.1818,3.2763 -1.0834,6.1587 -2.7035,8.64638 -1.5877,2.48996 -3.7722,4.39874 -6.5527,5.72667 -2.7469,1.2976 -5.887,1.84886 -9.4212,1.65244 l -13.4439,-0.74587 1.8853,-33.97278 z m -2.1455,25.59602 c 2.7624,0.15323 4.9731,-0.48108 6.6308,-1.90317 1.6589,-1.42288 2.5636,-3.51528 2.717,-6.27778 0.1555,-2.79475 -0.512,-4.99079 -2.0031,-6.58835 -1.4878,-1.62961 -3.614,-2.52125 -6.3764,-2.67448 l -3.2764,-0.18185 -0.9682,17.44379 z m 33.1618,-16.28578 -0.3083,5.5415 10.8418,0.6026 -0.3974,7.17952 -10.8432,-0.6018 -0.3392,6.12041 12.2875,0.68198 -0.4195,7.56474 -21.7322,-1.20578 1.8855,-33.97278 21.7318,1.20685 -0.4194,7.56473 z"
       fill="#f0f0f0"
       id="path41-6"
       style="fill:#f0f0f0;fill-opacity:1;stroke-width:0.264583" /><path
       d="m 570.29338,400.71209 c -0.02,-1.42685 1.09296,-2.595 2.48672,-2.61005 1.40379,-0.014 2.54688,1.12905 2.56693,2.55591 0.0201,1.42685 -1.09295,2.59501 -2.48671,2.60905 -1.39377,0.015 -2.54688,-1.12905 -2.56694,-2.55491 z"
       fill="#ffffff"
       id="path3-1"
       style="fill:none;stroke-width:0.264583" /><path
       d="m 530.76662,401.13323 c -0.0201,-1.42685 1.09295,-2.59501 2.48672,-2.60905 1.39376,-0.015 2.53685,1.12905 2.5569,2.55491 0.0201,1.42685 -1.09295,2.59501 -2.48671,2.61005 -1.39377,0.014 -2.53686,-1.13006 -2.55691,-2.55591 z"
       fill="#ffffff"
       id="path4-8"
       style="fill:none;stroke-width:0.264583" /><path
       d="m 491.22983,401.55437 c -0.0201,-1.42685 1.09295,-2.59401 2.48671,-2.60905 1.39377,-0.015 2.53686,1.12905 2.55691,2.55591 0.02,1.42585 -1.09295,2.594 -2.48672,2.60904 -1.39376,0.014 -2.53685,-1.13005 -2.5569,-2.5559 z"
       fill="#ffffff"
       id="path5-9"
       style="fill:none;stroke-width:0.264583" /><path
       d="m 569.79203,364.55343 c -0.0201,-1.42585 1.09295,-2.59401 2.48672,-2.60905 1.39376,-0.014 2.54688,1.12905 2.56693,2.5559 0.02,1.42686 -1.09295,2.59501 -2.49674,2.60905 -1.39377,0.015 -2.53686,-1.13005 -2.55691,-2.5559 z"
       fill="#ffffff"
       id="path6-2"
       style="fill:none;stroke-width:0.264583" /><path
       d="m 530.25524,364.97557 c -0.0201,-1.42686 1.09295,-2.59501 2.48671,-2.61005 1.39377,-0.014 2.54688,1.12905 2.56694,2.5559 0.02,1.42686 -1.09295,2.59501 -2.48672,2.60905 -1.39376,0.015 -2.54688,-1.12905 -2.56693,-2.5549 z"
       fill="#ffffff"
       id="path7-7"
       style="fill:none;stroke-width:0.264583" /><path
       d="m 490.71845,365.3967 c -0.0201,-1.42685 1.10297,-2.595 2.49674,-2.60904 1.39376,-0.015 2.53685,1.12905 2.55691,2.5549 0.02,1.42685 -1.09296,2.59501 -2.48672,2.61005 -1.39377,0.014 -2.54688,-1.13005 -2.56693,-2.55591 z"
       fill="#ffffff"
       id="path8-9"
       style="fill:none;stroke-width:0.264583" /><path
       d="m 569.29068,328.39606 c -0.0201,-1.42655 1.09295,-2.59451 2.48671,-2.60924 1.39377,-0.0147 2.53685,1.12985 2.55691,2.5556 0.0201,1.42665 -1.09295,2.59461 -2.48672,2.60935 -1.39376,0.0146 -2.53685,-1.12996 -2.5569,-2.55571 z"
       fill="#ffffff"
       id="path9-5"
       style="fill:none;stroke-width:0.264583" /><path
       d="m 529.75388,328.8174 c -0.02,-1.42665 1.09296,-2.59461 2.48672,-2.60935 1.39376,-0.0146 2.54688,1.12905 2.56693,2.55571 0.0201,1.42655 -1.09295,2.5945 -2.48671,2.61015 -1.39377,0.0138 -2.54688,-1.13076 -2.56694,-2.55651 z"
       fill="#ffffff"
       id="path10-4"
       style="fill:none;stroke-width:0.264583" /><path
       d="m 490.21709,329.23874 c -0.02,-1.42655 1.09295,-2.59451 2.48672,-2.60925 1.39376,-0.0147 2.54688,1.12985 2.56693,2.5556 0.0201,1.42666 -1.09295,2.59461 -2.48672,2.60935 -1.39376,0.0146 -2.54687,-1.12905 -2.56693,-2.5557 z"
       fill="#ffffff"
       id="path11-3"
       style="fill:none;stroke-width:0.264583" /><path
       d="m 568.78932,292.2383 c -0.02,-1.42666 1.09295,-2.59461 2.48672,-2.60925 1.39376,-0.0147 2.53685,1.12985 2.5569,2.5556 0.0201,1.42575 -1.09295,2.59461 -2.48671,2.60925 -1.39377,0.0147 -2.53685,-1.12985 -2.55691,-2.5556 z"
       fill="#ffffff"
       id="path12-1"
       style="fill:none;stroke-width:0.264583" /><path
       d="m 529.25253,292.65974 c -0.0201,-1.42666 1.09295,-2.59461 2.48672,-2.60935 1.39376,-0.0146 2.54688,1.12995 2.56693,2.5557 0.02,1.42655 -1.10298,2.59451 -2.49674,2.60925 -1.39377,0.0147 -2.53686,-1.12985 -2.55691,-2.5556 z"
       fill="#ffffff"
       id="path13-2"
       style="fill:none;stroke-width:0.264583" /><path
       d="m 489.71574,293.08097 c -0.0201,-1.42665 1.09295,-2.5946 2.48671,-2.60934 1.39377,-0.0146 2.54688,1.12905 2.56694,2.5557 0.02,1.42665 -1.09296,2.59451 -2.48672,2.60925 -1.40379,0.0147 -2.54688,-1.12986 -2.56693,-2.55561 z"
       fill="#ffffff"
       id="path14-3"
       style="fill:none;stroke-width:0.264583" /><path
       d="m 568.28797,256.08025 c -0.0201,-1.42662 1.09295,-2.59457 2.48671,-2.60928 1.39377,-0.0147 2.53686,1.12902 2.55691,2.55564 0.02,1.42663 -1.09295,2.59458 -2.48672,2.60928 -1.39376,0.0147 -2.53685,-1.12901 -2.5569,-2.55564 z"
       fill="#ffffff"
       id="path15-3"
       style="fill:none;stroke-width:0.264583" /><path
       d="m 528.75117,256.50162 c -0.02,-1.42663 1.09296,-2.59457 2.48672,-2.60928 1.39377,-0.0147 2.53685,1.12901 2.55691,2.55564 0.02,1.42662 -1.09295,2.59457 -2.48672,2.60927 -1.39376,0.0147 -2.53685,-1.12901 -2.55691,-2.55563 z"
       fill="#ffffff"
       id="path16-4"
       style="fill:none;stroke-width:0.264583" /><path
       d="m 489.21438,256.92292 c -0.02,-1.42662 1.09295,-2.59457 2.48672,-2.60928 1.39376,-0.0147 2.54688,1.12988 2.55691,2.55564 0.02,1.42663 -1.09296,2.59457 -2.48672,2.60928 -1.39377,0.0147 -2.53685,-1.12901 -2.55691,-2.55564 z"
       fill="#ffffff"
       id="path17-1"
       style="fill:none;stroke-width:0.264583" /><path
       d="m 573.50629,419.86917 c -0.024,-1.71507 1.31373,-3.11918 2.98903,-3.13727 1.68735,-0.0168 3.06133,1.35712 3.08543,3.07219 0.0242,1.71507 -1.31372,3.11919 -2.98901,3.13607 -1.6753,0.018 -3.06134,-1.35711 -3.08545,-3.07099 z"
       fill="#ffffff"
       id="path3-4"
       style="fill:#ffffff;stroke-width:0.264583" /><path
       d="m 525.99532,420.37538 c -0.0242,-1.71507 1.31372,-3.11919 2.98903,-3.13607 1.67529,-0.018 3.04928,1.35712 3.07338,3.07099 0.0242,1.71507 -1.31372,3.11919 -2.98902,3.13727 -1.6753,0.0168 -3.04929,-1.35833 -3.07339,-3.07219 z"
       fill="#ffffff"
       id="path4-2"
       style="fill:#ffffff;stroke-width:0.264583" /><path
       d="m 478.47229,420.88159 c -0.0242,-1.71507 1.31372,-3.11799 2.98902,-3.13607 1.6753,-0.018 3.04929,1.35711 3.07339,3.07219 0.024,1.71387 -1.31372,3.11798 -2.98903,3.13606 -1.67529,0.0168 -3.04928,-1.35832 -3.07338,-3.07218 z"
       fill="#ffffff"
       id="path5-7"
       style="fill:#ffffff;stroke-width:0.264583" /><path
       d="m 572.90367,376.40664 c -0.0242,-1.71387 1.31372,-3.11799 2.98903,-3.13607 1.67529,-0.0168 3.06133,1.35712 3.08543,3.07218 0.024,1.71508 -1.31372,3.11919 -3.00106,3.13607 -1.67531,0.018 -3.0493,-1.35832 -3.0734,-3.07218 z"
       fill="#ffffff"
       id="path6-7"
       style="fill:#ffffff;stroke-width:0.264583" /><path
       d="m 525.38064,376.91405 c -0.0242,-1.71508 1.31372,-3.11919 2.98902,-3.13727 1.6753,-0.0168 3.06133,1.35711 3.08545,3.07218 0.024,1.71508 -1.31372,3.11919 -2.98903,3.13607 -1.67529,0.018 -3.06134,-1.35712 -3.08544,-3.07098 z"
       fill="#ffffff"
       id="path7-9"
       style="fill:#ffffff;stroke-width:0.264583" /><path
       d="m 477.85762,377.42024 c -0.0242,-1.71506 1.32576,-3.11917 3.00107,-3.13605 1.67529,-0.018 3.04928,1.35711 3.07339,3.07098 0.024,1.71507 -1.31373,3.11919 -2.98903,3.13727 -1.6753,0.0168 -3.06133,-1.35832 -3.08543,-3.0722 z"
       fill="#ffffff"
       id="path8-3"
       style="fill:#ffffff;stroke-width:0.264583" /><path
       d="m 572.30105,332.94566 c -0.0242,-1.71471 1.31372,-3.11859 2.98902,-3.1363 1.6753,-0.0177 3.04928,1.35808 3.07339,3.07182 0.0242,1.71483 -1.31372,3.11871 -2.98903,3.13643 -1.67529,0.0175 -3.04928,-1.35821 -3.07338,-3.07195 z"
       fill="#ffffff"
       id="path9-1"
       style="fill:#ffffff;stroke-width:0.264583" /><path
       d="m 524.77801,333.45211 c -0.024,-1.71483 1.31373,-3.11871 2.98903,-3.13643 1.67529,-0.0176 3.06133,1.35711 3.08543,3.07195 0.0242,1.71471 -1.31372,3.11858 -2.98901,3.13739 -1.6753,0.0166 -3.06134,-1.35917 -3.08545,-3.07291 z"
       fill="#ffffff"
       id="path10-9"
       style="fill:#ffffff;stroke-width:0.264583" /><path
       d="m 477.25498,333.95855 c -0.024,-1.7147 1.31372,-3.11858 2.98903,-3.1363 1.67529,-0.0177 3.06134,1.35807 3.08544,3.07182 0.0242,1.71484 -1.31372,3.11871 -2.98903,3.13642 -1.67529,0.0175 -3.06132,-1.35711 -3.08544,-3.07194 z"
       fill="#ffffff"
       id="path11-8"
       style="fill:#ffffff;stroke-width:0.264583" /><path
       d="m 571.69842,289.48421 c -0.024,-1.71484 1.31372,-3.11871 2.98902,-3.13631 1.6753,-0.0177 3.04929,1.35807 3.07339,3.07182 0.0242,1.71374 -1.31372,3.11871 -2.98902,3.13631 -1.6753,0.0177 -3.04928,-1.35808 -3.07339,-3.07182 z"
       fill="#ffffff"
       id="path12-6"
       style="fill:#ffffff;stroke-width:0.264583" /><path
       d="m 524.17539,289.99078 c -0.0242,-1.71484 1.31372,-3.11871 2.98903,-3.13643 1.67529,-0.0175 3.06133,1.35819 3.08543,3.07194 0.024,1.7147 -1.32577,3.11859 -3.00106,3.1363 -1.67531,0.0177 -3.0493,-1.35807 -3.0734,-3.07181 z"
       fill="#ffffff"
       id="path13-5"
       style="fill:#ffffff;stroke-width:0.264583" /><path
       d="m 476.65236,290.49709 c -0.0242,-1.71482 1.31372,-3.11869 2.98902,-3.13641 1.6753,-0.0175 3.06133,1.35711 3.08545,3.07194 0.0242,1.71482 -1.31374,3.11858 -2.98903,3.1363 -1.68735,0.0177 -3.06134,-1.35808 -3.08544,-3.07183 z"
       fill="#ffffff"
       id="path14-0"
       style="fill:#ffffff;stroke-width:0.264583" /><path
       d="m 571.0958,246.02241 c -0.0242,-1.71479 1.31372,-3.11866 2.98901,-3.13634 1.67531,-0.0177 3.0493,1.35707 3.0734,3.07186 0.024,1.7148 -1.31372,3.11867 -2.98903,3.13634 -1.67529,0.0177 -3.04928,-1.35706 -3.07338,-3.07186 z"
       fill="#ffffff"
       id="path15-2"
       style="fill:#ffffff;stroke-width:0.264583" /><path
       d="m 523.57276,246.52889 c -0.024,-1.7148 1.31373,-3.11866 2.98902,-3.13634 1.67531,-0.0177 3.04929,1.35706 3.0734,3.07187 0.024,1.71479 -1.31372,3.11866 -2.98903,3.13633 -1.67529,0.0177 -3.04928,-1.35707 -3.07339,-3.07186 z"
       fill="#ffffff"
       id="path16-8"
       style="fill:#ffffff;stroke-width:0.264583" /><path
       d="m 476.04973,247.03529 c -0.024,-1.71479 1.31372,-3.11866 2.98903,-3.13634 1.67529,-0.0177 3.06133,1.35811 3.07339,3.07187 0.0242,1.7148 -1.31373,3.11866 -2.98903,3.13634 -1.6753,0.0177 -3.04928,-1.35707 -3.07339,-3.07187 z"
       fill="#ffffff"
       id="path17-6"
       style="fill:#ffffff;stroke-width:0.264583" /><path
       d="m 467.63074,24.428116 52.50281,32.408333 52.4978,-32.408333 52.50482,32.408333 52.50382,-32.408333 52.50682,32.408333 52.50583,-32.408333 52.51284,32.408333 52.51289,-32.408333"
       stroke="#fd6101"
       stroke-width="0.527738"
       stroke-miterlimit="10"
       id="path25-6"
       style="fill:none;stroke-width:0.264583" /><path
       d="m 467.63074,-4.7393736 52.50281,32.4083386 52.4978,-32.4083386 52.50482,32.4083386 52.50382,-32.4083386 52.50682,32.4083386 52.50583,-32.4083386 52.51284,32.4083386 52.51289,-32.4083386"
       stroke="#4f4f57"
       stroke-width="0.527738"
       stroke-miterlimit="10"
       id="path26-5"
       style="fill:none;stroke-width:0.264583" /><path
       d="m 988.60498,377.96039 52.50282,32.40833 52.4978,-32.40833 52.5048,32.40833 52.5038,-32.40833 52.5069,32.40833 52.5058,-32.40833 52.5128,32.40833 52.5128,-32.40833"
       stroke="#fd6101"
       stroke-width="0.527738"
       stroke-miterlimit="10"
       id="path25-61"
       style="fill:none;stroke-width:0.264583" /><path
       d="m 988.60498,348.7929 52.50282,32.40834 52.4978,-32.40834 52.5048,32.40834 52.5038,-32.40834 52.5069,32.40834 52.5058,-32.40834 52.5128,32.40834 52.5128,-32.40834"
       stroke="#4f4f57"
       stroke-width="0.527738"
       stroke-miterlimit="10"
       id="path26-3"
       style="fill:none;stroke-width:0.264583" /><text
       xml:space="preserve"
       style="font-style:normal;font-variant:normal;font-weight:normal;font-stretch:normal;font-size:50.8px;font-family:'Goudy Stout';-inkscape-font-specification:'Goudy Stout';text-align:start;writing-mode:lr-tb;direction:ltr;text-anchor:start;fill:#ffffff;fill-opacity:1;stroke-width:3;stroke-linecap:round;stroke-linejoin:round;paint-order:markers fill stroke"
       x="1171.4956"
       y="-182.57077"
       id="text2"><tspan
         sodipodi:role="line"
         id="tspan2"
         style="stroke-width:3"
         x="1171.4956"
         y="-182.57077" /></text><path
       style="color:#000000;font-style:normal;font-variant:normal;font-weight:normal;font-stretch:normal;font-size:medium;line-height:normal;font-family:sans-serif;font-variant-ligatures:normal;font-variant-position:normal;font-variant-caps:normal;font-variant-numeric:normal;font-variant-alternates:normal;font-variant-east-asian:normal;font-feature-settings:normal;font-variation-settings:normal;text-indent:0;text-align:start;text-decoration-line:none;text-decoration-style:solid;text-decoration-color:#000000;letter-spacing:normal;word-spacing:normal;text-transform:none;writing-mode:lr-tb;direction:ltr;text-orientation:mixed;dominant-baseline:auto;baseline-shift:baseline;text-anchor:start;white-space:normal;shape-padding:0;shape-margin:0;inline-size:0;clip-rule:nonzero;display:inline;overflow:visible;visibility:visible;isolation:auto;mix-blend-mode:normal;color-interpolation:sRGB;color-interpolation-filters:linearRGB;solid-color:#000000;solid-opacity:1;vector-effect:none;fill:#fd6101;fill-opacity:1;fill-rule:nonzero;stroke:none;stroke-width:0.525541;stroke-linecap:round;stroke-linejoin:round;stroke-miterlimit:4;stroke-dasharray:none;stroke-dashoffset:0;stroke-opacity:1;-inkscape-stroke:none;paint-order:markers fill stroke;color-rendering:auto;image-rendering:auto;shape-rendering:auto;text-rendering:auto;enable-background:accumulate;stop-color:#000000"
       d="M 84.197188,18.372205 70.184767,61.919029 a 0.43904338,0.43904338 48.5392 0 0 0.499897,0.56581 l 17.218745,-3.271773 -2.639818,42.126694 a 0.37448279,0.37448279 9.2008565 0 0 0.735781,0.11918 l 13.66467,-51.660163 -16.214253,2.589839 a 0.23552393,0.23552393 42.087355 0 1 -0.272294,-0.245927 l 1.908052,-33.605141 a 0.45549322,0.45549322 10.543364 0 0 -0.888359,-0.165343 z"
       id="path12"
       sodipodi:nodetypes="ccccccc"
       inkscape:path-effect="#path-effect12"
       inkscape:original-d="M 85.287285,14.984476 69.95829,62.622859 87.903409,59.213066 85.025379,105.14119 99.664042,49.798777 83.160912,52.434757 Z"
       transform="matrix(2.0205751,1.3073396,-0.81724743,1.263107,382.39231,-48.664675)" /><path
       style="color:#000000;font-style:normal;font-variant:normal;font-weight:normal;font-stretch:normal;font-size:medium;line-height:normal;font-family:sans-serif;font-variant-ligatures:normal;font-variant-position:normal;font-variant-caps:normal;font-variant-numeric:normal;font-variant-alternates:normal;font-variant-east-asian:normal;font-feature-settings:normal;font-variation-settings:normal;text-indent:0;text-align:start;text-decoration-line:none;text-decoration-style:solid;text-decoration-color:#000000;letter-spacing:normal;word-spacing:normal;text-transform:none;writing-mode:lr-tb;direction:ltr;text-orientation:mixed;dominant-baseline:auto;baseline-shift:baseline;text-anchor:start;white-space:normal;shape-padding:0;shape-margin:0;inline-size:0;clip-rule:nonzero;display:inline;overflow:visible;visibility:visible;isolation:auto;mix-blend-mode:normal;color-interpolation:sRGB;color-interpolation-filters:linearRGB;solid-color:#000000;solid-opacity:1;vector-effect:none;fill:#fd6101;fill-opacity:1;fill-rule:nonzero;stroke:none;stroke-width:0.525541;stroke-linecap:round;stroke-linejoin:round;stroke-miterlimit:4;stroke-dasharray:none;stroke-dashoffset:0;stroke-opacity:1;-inkscape-stroke:none;paint-order:markers fill stroke;color-rendering:auto;image-rendering:auto;shape-rendering:auto;text-rendering:auto;enable-background:accumulate;stop-color:#000000"
       d="M 84.197188,18.372205 70.184767,61.919029 a 0.43904338,0.43904338 48.5392 0 0 0.499897,0.56581 l 17.218745,-3.271773 -2.639818,42.126694 a 0.37448279,0.37448279 9.2008565 0 0 0.735781,0.11918 l 13.66467,-51.660163 -16.214253,2.589839 a 0.23552393,0.23552393 42.087355 0 1 -0.272294,-0.245927 l 1.908052,-33.605141 a 0.45549322,0.45549322 10.543364 0 0 -0.888359,-0.165343 z"
       id="path12-17"
       sodipodi:nodetypes="ccccccc"
       inkscape:path-effect="#path-effect12-5"
       inkscape:original-d="M 85.287285,14.984476 69.95829,62.622859 87.903409,59.213066 85.025379,105.14119 99.664042,49.798777 83.160912,52.434757 Z"
       transform="matrix(2.0205751,1.3073396,-0.81724743,1.263107,1340.984,96.646406)"
       inkscape:transform-center-x="315.15191"
       inkscape:transform-center-y="-13.040769" /></g></svg>
