<svg xmlns="http://www.w3.org/2000/svg" width="1920" height="420" fill="none" viewBox="0 0 1920 420"><g clip-path="url(#clip0_4027_7226)"><path fill="#1E2729" d="M1919.72-.148H-.28V420h1920V-.148Z"/><path fill="#1E2729" d="M1919.72-.148H-.28V420h1920V-.148Z"/><path fill="#fff" d="M1769.22 143.903c-.02-1.422 1.09-2.587 2.48-2.602 1.39-.015 2.53 1.126 2.55 2.549.02 1.423-1.09 2.587-2.48 2.602-1.39.015-2.53-1.127-2.55-2.549ZM1729.79 144.323c-.02-1.422 1.09-2.587 2.48-2.602 1.39-.014 2.54 1.126 2.56 2.549.02 1.423-1.09 2.588-2.48 2.602-1.4.015-2.54-1.127-2.56-2.549ZM1690.36 144.744c-.02-1.423 1.09-2.588 2.48-2.603 1.4-.014 2.54 1.126 2.56 2.549.02 1.423-1.09 2.588-2.48 2.602-1.39.015-2.54-1.126-2.56-2.548ZM1650.94 145.164c-.02-1.423 1.09-2.588 2.48-2.602 1.39-.015 2.53 1.126 2.55 2.549.02 1.422-1.09 2.587-2.48 2.602-1.39.014-2.53-1.127-2.55-2.549ZM1611.51 145.584c-.02-1.423 1.09-2.588 2.48-2.602 1.39-.015 2.53 1.126 2.55 2.549.02 1.422-1.09 2.587-2.48 2.602-1.39.014-2.53-1.127-2.55-2.549ZM1768.72 107.842c-.02-1.423 1.09-2.587 2.48-2.602 1.39-.015 2.53 1.127 2.55 2.549.02 1.423-1.09 2.587-2.48 2.602-1.39.016-2.53-1.126-2.55-2.549ZM1729.29 108.263c-.02-1.423 1.09-2.588 2.48-2.603 1.39-.014 2.53 1.126 2.55 2.549.02 1.423-1.09 2.588-2.48 2.602-1.39.016-2.53-1.126-2.55-2.548ZM1689.86 108.683c-.02-1.422 1.09-2.587 2.48-2.602 1.39-.014 2.54 1.126 2.56 2.549.02 1.423-1.09 2.587-2.49 2.602-1.39.015-2.53-1.127-2.55-2.549ZM1650.43 109.104c-.02-1.423 1.09-2.588 2.48-2.603 1.39-.014 2.54 1.126 2.56 2.549.02 1.423-1.09 2.588-2.48 2.602-1.39.015-2.54-1.126-2.56-2.548ZM1611 109.524c-.02-1.423 1.1-2.588 2.49-2.602 1.39-.015 2.53 1.126 2.55 2.548.02 1.423-1.09 2.588-2.48 2.603-1.39.014-2.54-1.127-2.56-2.549ZM1768.22 71.783c-.02-1.423 1.09-2.588 2.48-2.602 1.39-.015 2.53 1.126 2.55 2.548.02 1.423-1.09 2.588-2.48 2.603-1.39.014-2.53-1.127-2.55-2.55ZM1728.79 72.203c-.02-1.423 1.09-2.587 2.48-2.602 1.39-.015 2.53 1.127 2.55 2.549.02 1.422-1.09 2.587-2.48 2.602-1.39.015-2.53-1.127-2.55-2.549ZM1689.36 72.623c-.02-1.422 1.09-2.587 2.48-2.602 1.39-.014 2.53 1.127 2.55 2.549.02 1.423-1.09 2.587-2.48 2.602-1.39.015-2.53-1.127-2.55-2.549ZM1649.93 73.043c-.02-1.422 1.09-2.587 2.48-2.602 1.39-.014 2.54 1.126 2.56 2.549.02 1.423-1.09 2.588-2.48 2.603-1.39.014-2.54-1.128-2.56-2.55ZM1610.5 73.464c-.02-1.423 1.09-2.588 2.48-2.602 1.39-.015 2.54 1.126 2.56 2.548.02 1.423-1.09 2.588-2.48 2.602-1.39.015-2.54-1.126-2.56-2.548ZM1767.72 35.723c-.02-1.423 1.09-2.588 2.48-2.602 1.39-.015 2.53 1.126 2.55 2.548.02 1.423-1.09 2.588-2.48 2.603-1.39.014-2.53-1.127-2.55-2.55ZM1728.29 36.143c-.02-1.423 1.09-2.588 2.48-2.602 1.39-.015 2.53 1.126 2.55 2.548.02 1.423-1.09 2.588-2.48 2.603-1.39.014-2.53-1.126-2.55-2.55ZM1688.86 36.563c-.02-1.423 1.09-2.587 2.48-2.602 1.39-.015 2.53 1.127 2.55 2.549.02 1.422-1.09 2.587-2.48 2.602-1.39.015-2.53-1.127-2.55-2.549ZM1649.43 36.983c-.02-1.422 1.09-2.587 2.48-2.602 1.39-.014 2.54 1.127 2.56 2.549.02 1.423-1.1 2.587-2.49 2.602-1.39.015-2.53-1.127-2.55-2.549ZM1610 37.404c-.02-1.423 1.09-2.588 2.48-2.603 1.39-.014 2.54 1.126 2.56 2.549.02 1.423-1.09 2.588-2.48 2.602-1.4.015-2.54-1.127-2.56-2.548ZM1767.22-.337c-.02-1.423 1.09-2.588 2.48-2.603 1.39-.014 2.53 1.126 2.55 2.55.02 1.422-1.09 2.587-2.48 2.601-1.39.015-2.53-1.127-2.55-2.548ZM1727.79.083c-.02-1.423 1.09-2.588 2.48-2.603 1.39-.014 2.53 1.126 2.55 2.55.02 1.422-1.09 2.587-2.48 2.601-1.39.015-2.53-1.126-2.55-2.548ZM1688.36.503c-.02-1.423 1.09-2.588 2.48-2.602 1.39-.015 2.53 1.126 2.55 2.548.02 1.423-1.09 2.588-2.48 2.603-1.39.014-2.53-1.126-2.55-2.55ZM1648.93.923c-.02-1.423 1.09-2.587 2.48-2.602 1.39-.015 2.53 1.126 2.55 2.549.02 1.422-1.09 2.587-2.48 2.602-1.39.015-2.53-1.126-2.55-2.549ZM1609.5 1.343c-.02-1.423 1.09-2.587 2.48-2.602 1.39-.015 2.54 1.127 2.55 2.549.02 1.422-1.09 2.587-2.48 2.602-1.39.015-2.53-1.126-2.55-2.549ZM255.221 416.225c-.019-1.269 1.091-2.309 2.481-2.322 1.391-.013 2.533 1.005 2.553 2.275.02 1.269-1.09 2.309-2.481 2.322-1.39.013-2.533-1.006-2.553-2.275ZM215.793 416.6c-.02-1.269 1.09-2.309 2.481-2.323 1.39-.013 2.533 1.006 2.552 2.275.02 1.27-1.09 2.309-2.48 2.322-1.392.014-2.534-1.005-2.553-2.274ZM176.363 416.975c-.02-1.269 1.091-2.309 2.481-2.322 1.39-.013 2.533 1.005 2.553 2.275.02 1.269-1.091 2.309-2.481 2.322-1.39.013-2.533-1.006-2.553-2.275ZM136.934 417.35c-.019-1.269 1.091-2.309 2.481-2.322 1.39-.013 2.533 1.005 2.553 2.275.02 1.269-1.091 2.309-2.481 2.322-1.39.013-2.532-1.006-2.553-2.275ZM97.506 417.725c-.02-1.269 1.09-2.309 2.48-2.322 1.391-.013 2.534 1.005 2.553 2.275.02 1.269-1.09 2.309-2.481 2.322-1.39.013-2.533-1.006-2.552-2.275ZM254.719 384.045c-.019-1.27 1.091-2.309 2.481-2.322 1.391-.014 2.533 1.004 2.553 2.274.02 1.27-1.09 2.309-2.481 2.322-1.39.013-2.533-1.005-2.553-2.274ZM215.291 384.42c-.019-1.27 1.091-2.309 2.481-2.322 1.39-.014 2.533 1.005 2.553 2.274.02 1.27-1.091 2.309-2.481 2.322-1.39.013-2.533-1.005-2.553-2.274ZM175.863 384.795c-.02-1.27 1.09-2.309 2.48-2.322 1.391-.014 2.534 1.005 2.553 2.274.02 1.27-1.09 2.309-2.481 2.322-1.39.013-2.533-1.005-2.552-2.274ZM136.434 385.17c-.019-1.27 1.091-2.309 2.481-2.322 1.39-.014 2.533 1.005 2.553 2.274.02 1.27-1.091 2.309-2.481 2.322-1.39.013-2.533-1.005-2.553-2.274ZM97.006 385.545c-.02-1.27 1.09-2.309 2.48-2.322 1.391-.014 2.534 1.005 2.553 2.274.02 1.27-1.09 2.309-2.48 2.322-1.39.013-2.534-1.005-2.553-2.274ZM254.218 351.864c-.02-1.269 1.09-2.309 2.48-2.322 1.391-.013 2.534 1.006 2.553 2.275.02 1.269-1.09 2.309-2.481 2.322-1.39.013-2.533-1.006-2.552-2.275ZM214.79 352.239c-.02-1.27 1.091-2.309 2.481-2.322 1.39-.013 2.533 1.005 2.553 2.274.019 1.27-1.091 2.31-2.481 2.323-1.391.013-2.533-1.006-2.553-2.275ZM175.361 352.614c-.02-1.27 1.091-2.309 2.481-2.322 1.39-.013 2.533 1.005 2.553 2.274.02 1.27-1.091 2.31-2.481 2.323-1.39.013-2.533-1.006-2.553-2.275ZM135.932 352.989c-.019-1.27 1.091-2.309 2.481-2.323 1.391-.013 2.533 1.006 2.553 2.275.02 1.269-1.091 2.309-2.481 2.323-1.39.013-2.533-1.005-2.553-2.275ZM96.504 353.364c-.02-1.27 1.09-2.309 2.48-2.322 1.391-.013 2.534 1.005 2.553 2.274.02 1.27-1.09 2.31-2.48 2.323-1.39.013-2.534-1.005-2.553-2.275ZM253.718 319.684c-.02-1.27 1.09-2.309 2.48-2.323 1.391-.013 2.534 1.006 2.553 2.275.02 1.27-1.09 2.309-2.481 2.322-1.39.013-2.533-1.005-2.552-2.274ZM214.289 320.059c-.019-1.27 1.091-2.309 2.481-2.323 1.39-.013 2.533 1.005 2.553 2.274.02 1.27-1.091 2.309-2.481 2.323-1.39.013-2.533-1.005-2.553-2.274ZM174.861 320.434c-.02-1.27 1.09-2.31 2.481-2.323 1.39-.013 2.533 1.005 2.552 2.275.02 1.27-1.09 2.309-2.481 2.322-1.39.013-2.533-1.005-2.552-2.274ZM135.432 320.809c-.02-1.27 1.091-2.31 2.481-2.323 1.39-.013 2.533 1.006 2.553 2.275.019 1.27-1.091 2.309-2.481 2.322-1.391.013-2.533-1.005-2.553-2.274ZM96.003 321.184c-.02-1.27 1.09-2.31 2.48-2.323 1.39-.013 2.533 1.006 2.553 2.275.02 1.27-1.09 2.309-2.48 2.322-1.39.013-2.534-1.005-2.553-2.274ZM253.216 287.503c-.02-1.27 1.09-2.309 2.48-2.322 1.391-.013 2.534 1.005 2.553 2.274.02 1.27-1.09 2.309-2.481 2.323-1.39.013-2.533-1.005-2.552-2.275ZM213.787 287.878c-.019-1.27 1.091-2.309 2.481-2.322 1.39-.013 2.533 1.005 2.553 2.274.02 1.27-1.091 2.31-2.481 2.323-1.39.013-2.533-1.006-2.553-2.275ZM174.359 288.253c-.02-1.27 1.09-2.309 2.481-2.322 1.39-.013 2.533 1.005 2.552 2.274.02 1.27-1.09 2.309-2.481 2.323-1.39.013-2.533-1.005-2.552-2.275ZM134.93 288.628c-.019-1.27 1.091-2.309 2.481-2.322 1.391-.013 2.533 1.004 2.553 2.274.02 1.27-1.091 2.309-2.481 2.322-1.39.014-2.533-1.004-2.553-2.274ZM95.502 289.003c-.02-1.27 1.09-2.309 2.48-2.322 1.39-.013 2.534 1.005 2.553 2.274.02 1.27-1.09 2.309-2.48 2.323-1.39.013-2.534-1.005-2.553-2.275ZM252.716 255.322c-.02-1.269 1.09-2.309 2.481-2.322 1.39-.013 2.533 1.005 2.552 2.275.02 1.269-1.09 2.309-2.481 2.322-1.391.013-2.534-1.005-2.552-2.275ZM213.286 255.697c-.019-1.269 1.091-2.309 2.481-2.322 1.391-.013 2.533 1.005 2.553 2.275.02 1.269-1.091 2.309-2.481 2.322-1.39.013-2.533-1.005-2.553-2.275ZM173.858 256.072c-.02-1.269 1.09-2.309 2.481-2.322 1.39-.013 2.533 1.005 2.552 2.275.02 1.269-1.09 2.309-2.48 2.322-1.391.013-2.534-1.005-2.553-2.275ZM134.429 256.447c-.02-1.269 1.091-2.309 2.481-2.323 1.39-.013 2.533 1.005 2.553 2.275.019 1.27-1.091 2.309-2.481 2.322-1.39.014-2.533-1.004-2.553-2.274ZM95 256.822c-.02-1.269 1.091-2.309 2.481-2.322 1.39-.013 2.532 1.006 2.553 2.275.02 1.269-1.09 2.309-2.48 2.322-1.391.013-2.534-1.005-2.554-2.275Z"/><path stroke="#FD6101" stroke-miterlimit="10" stroke-width="2" d="m1273 388.089 52.36 32.321 52.36-32.321 52.36 32.321 52.36-32.321 52.37 32.321 52.36-32.321 52.37 32.321 52.37-32.321"/><path stroke="#4F4F57" stroke-miterlimit="10" stroke-width="2" d="m1273 359 52.36 32.321L1377.72 359l52.36 32.321L1482.44 359l52.37 32.321L1587.17 359l52.37 32.321L1691.91 359"/><path stroke="#FD6101" stroke-miterlimit="10" stroke-width="2" d="m335 22.089 52.361 32.32 52.356-32.32 52.363 32.32 52.362-32.32 52.365 32.32 52.364-32.32 52.371 32.32 52.371-32.32"/><path stroke="#4F4F57" stroke-miterlimit="10" stroke-width="2" d="m335-7 52.361 32.32L439.717-7l52.363 32.32L544.442-7l52.365 32.32L649.171-7l52.371 32.32L753.913-7"/><path fill="#fff" d="m133.951 2.757-.687 61.675-11.808-.137.687-61.538h11.808Z"/><path fill="#4F4F57" d="m75.886 112.792-.17 15.087 101.842 1.151.17-15.088-101.842-1.15ZM65.126 91.92l-.17 15.087 123.833 1.4.17-15.088L65.126 91.92ZM65.382 69.174l-.17 15.087 123.833 1.4.171-15.088-123.834-1.4Z"/><path fill="#4F4F57" d="m75.885 112.791-.17 15.087 101.842 1.151.17-15.087-101.842-1.151ZM65.126 91.92l-.17 15.087 123.833 1.4.17-15.088L65.126 91.92ZM65.383 69.174l-.17 15.088 123.833 1.4.171-15.088-123.834-1.4Z"/><path fill="#FD6101" d="m132.219 156.686.129-11.373-11.794-.133-.129 11.373a5.898 5.898 0 1 0 11.794.133Z"/><path fill="#fff" d="m112.858 131.618-.118 10.425 27.483.311.118-10.425-27.483-.311ZM1807.09 419.848l.03-64 12.25.013-.03 63.857-12.25.13Z"/><path fill="#4F4F57" d="M1866.13 305.011v-15.657h-105.69v15.657h105.69ZM1877.52 326.539v-15.657h-128.5v15.657h128.5ZM1877.51 350.142v-15.657H1749v15.657h128.51Z"/><path fill="#4F4F57" d="M1866.13 305.011v-15.657h-105.69v15.657h105.69ZM1877.52 326.539v-15.657h-128.5v15.657h128.5ZM1877.51 350.142v-15.657H1749v15.657h128.51Z"/><path fill="#FD6101" d="m1807.19 260.116-.01 11.801 12.24.008.01-11.801c0-3.38-2.74-6.121-6.12-6.124a6.117 6.117 0 0 0-6.12 6.116Z"/><path fill="#fff" d="M1827.56 285.909v-10.818h-28.52v10.818h28.52Z"/><path fill="#FD6101" d="m409.891 344.938-14.065-12.256a2.408 2.408 0 0 1-.233-3.399l55.54-63.737a2.41 2.41 0 0 1 3.399-.234l14.065 12.256a2.41 2.41 0 0 1 .234 3.399l-55.541 63.737a2.408 2.408 0 0 1-3.399.234ZM456.454 374.114l17.163 7.311a2.409 2.409 0 0 0 3.16-1.272l33.13-77.779a2.409 2.409 0 0 0-1.272-3.16l-17.163-7.311a2.41 2.41 0 0 0-3.161 1.272l-33.13 77.779a2.41 2.41 0 0 0 1.273 3.16Z"/><path fill="#4F4F57" d="M486.985 273.643c-9.27-5.808-12.085-18.074-6.278-27.343 5.808-9.269 18.074-12.086 27.344-6.278 9.27 5.808 12.085 18.075 6.277 27.344-5.808 9.269-18.074 12.085-27.343 6.277Zm17.27-27.563c-5.929-3.715-13.775-1.913-17.49 4.016-3.715 5.929-1.914 13.775 4.015 17.49 5.929 3.715 13.775 1.914 17.49-4.015 3.715-5.93 1.914-13.776-4.015-17.491Z"/><path fill="#4F4F57" d="m481.199 245.691-19.646 19.96 5.095 5.015 19.646-19.96-5.095-5.015ZM507.931 264.278l-9.39 26.385 6.735 2.397 9.39-26.385-6.735-2.397ZM476.563 271.759l-3.037 4.846 16.7 10.465 3.037-4.846-16.7-10.465Z"/><path fill="#FD6101" d="m1437.96 114.356-7.16 13.447a2.412 2.412 0 0 1-3.26.993l-63.13-33.642a2.408 2.408 0 0 1-.99-3.259l7.16-13.448a2.412 2.412 0 0 1 3.26-.993l63.13 33.642a2.41 2.41 0 0 1 .99 3.26ZM1453.52 69.325l2.66-15.004a2.41 2.41 0 0 0-1.95-2.793l-70.44-12.49a2.405 2.405 0 0 0-2.79 1.95l-2.66 15.004a2.41 2.41 0 0 0 1.95 2.793l70.43 12.491a2.42 2.42 0 0 0 2.8-1.95Z"/><path fill="#4F4F57" d="M1363.43 63.366c-3 8.69-12.51 13.316-21.2 10.315-8.69-3-13.32-12.512-10.32-21.2 3.01-8.69 12.52-13.317 21.21-10.316 8.68 3.002 13.31 12.512 10.31 21.201Zm-25.84-8.924c-1.92 5.558 1.04 11.641 6.6 13.561s11.64-1.04 13.56-6.598-1.04-11.64-6.6-13.56c-5.55-1.92-11.64 1.04-13.56 6.597Z"/><path fill="#4F4F57" d="m1345.04 68.528-3.2 5.206 20.4 12.515 3.19-5.207-20.39-12.514ZM1352.46 42.05l-.69 5.968 23.38 2.695.69-5.968-23.38-2.695ZM1369.88 56.73l-5.49 15.916 4.61 1.595 5.5-15.916-4.62-1.596Z"/><rect width="277" height="68" x="821.5" y="302.5" stroke="#FD6101" stroke-width="3" rx="8.5"/><path fill="#FD6101" d="M867.456 345.216v-16.632h4.644v16.632h-4.644Zm-6.228-6.12v-4.392h17.136v4.392h-17.136Zm37.866-4.644h12.132v4.536h-12.132v-4.536Zm.432 10.368h13.716v4.68H893.73v-25.2h19.044v4.68h-13.248v15.84Zm15.302 4.68 8.676-11.376-.108 3.096-8.316-11.088h6.3l5.256 7.236-2.376.072 5.436-7.308h5.976l-8.352 10.98v-3.024l8.64 11.412h-6.372l-5.508-7.704 2.34.324-5.472 7.38h-6.12Zm32.872.288c-2.208 0-4.152-.432-5.832-1.296-1.656-.864-2.94-2.04-3.852-3.528-.912-1.512-1.368-3.228-1.368-5.148 0-1.944.444-3.66 1.332-5.148a9.529 9.529 0 0 1 3.708-3.528c1.56-.864 3.324-1.296 5.292-1.296 1.896 0 3.6.408 5.112 1.224a8.844 8.844 0 0 1 3.636 3.456c.888 1.488 1.332 3.276 1.332 5.364 0 .216-.012.468-.036.756-.024.264-.048.516-.072.756H941.22v-3.276H954l-2.16.972c0-1.008-.204-1.884-.612-2.628a4.342 4.342 0 0 0-1.692-1.728c-.72-.432-1.56-.648-2.52-.648s-1.812.216-2.556.648a4.286 4.286 0 0 0-1.692 1.764c-.408.744-.612 1.632-.612 2.664v.864c0 1.056.228 1.992.684 2.808a4.872 4.872 0 0 0 1.98 1.836c.864.408 1.872.612 3.024.612 1.032 0 1.932-.156 2.7-.468a6.568 6.568 0 0 0 2.16-1.404l2.988 3.24c-.888 1.008-2.004 1.788-3.348 2.34-1.344.528-2.892.792-4.644.792Zm13.099-.288v-19.368h5.364v5.472l-.756-1.584c.576-1.368 1.5-2.4 2.772-3.096 1.272-.72 2.82-1.08 4.644-1.08v5.184a6.574 6.574 0 0 0-.648-.036 4.94 4.94 0 0 0-.612-.036c-1.536 0-2.784.444-3.744 1.332-.936.864-1.404 2.22-1.404 4.068v9.144h-5.616Zm24.583.288c-2.088 0-3.948-.42-5.58-1.26-1.632-.864-2.916-2.052-3.852-3.564-.912-1.512-1.368-3.228-1.368-5.148 0-1.944.456-3.66 1.368-5.148.936-1.512 2.22-2.688 3.852-3.528 1.632-.864 3.492-1.296 5.58-1.296 2.04 0 3.816.432 5.328 1.296 1.512.84 2.628 2.052 3.348 3.636l-4.356 2.34c-.504-.912-1.14-1.584-1.908-2.016a4.788 4.788 0 0 0-2.448-.648c-.96 0-1.824.216-2.592.648a4.818 4.818 0 0 0-1.836 1.836c-.432.792-.648 1.752-.648 2.88s.216 2.088.648 2.88a4.818 4.818 0 0 0 1.836 1.836c.768.432 1.632.648 2.592.648.888 0 1.704-.204 2.448-.612.768-.432 1.404-1.116 1.908-2.052l4.356 2.376c-.72 1.56-1.836 2.772-3.348 3.636-1.512.84-3.288 1.26-5.328 1.26Zm11.804-.288v-19.368h5.614V349.5h-5.614Zm2.808-22.068c-1.032 0-1.872-.3-2.52-.9-.648-.6-.972-1.344-.972-2.232 0-.888.324-1.632.972-2.232.648-.6 1.488-.9 2.52-.9 1.036 0 1.876.288 2.516.864.65.552.98 1.272.98 2.16 0 .936-.33 1.716-.98 2.34-.62.6-1.46.9-2.516.9Zm17.376 22.356c-2.08 0-3.94-.42-5.58-1.26-1.63-.864-2.91-2.052-3.85-3.564-.91-1.512-1.37-3.228-1.37-5.148 0-1.944.46-3.66 1.37-5.148.94-1.512 2.22-2.688 3.85-3.528 1.64-.864 3.5-1.296 5.58-1.296 2.04 0 3.82.432 5.33 1.296a7.712 7.712 0 0 1 3.35 3.636l-4.36 2.34c-.5-.912-1.14-1.584-1.9-2.016a4.806 4.806 0 0 0-2.45-.648c-.96 0-1.83.216-2.59.648a4.842 4.842 0 0 0-1.84 1.836c-.43.792-.65 1.752-.65 2.88s.22 2.088.65 2.88a4.842 4.842 0 0 0 1.84 1.836c.76.432 1.63.648 2.59.648.89 0 1.7-.204 2.45-.612.76-.432 1.4-1.116 1.9-2.052l4.36 2.376c-.72 1.56-1.84 2.772-3.35 3.636-1.51.84-3.29 1.26-5.33 1.26Zm11.81-.288v-19.368h5.61V349.5h-5.61Zm2.81-22.068c-1.04 0-1.88-.3-2.52-.9-.65-.6-.98-1.344-.98-2.232 0-.888.33-1.632.98-2.232.64-.6 1.48-.9 2.52-.9 1.03 0 1.87.288 2.52.864.64.552.97 1.272.97 2.16 0 .936-.33 1.716-.97 2.34-.63.6-1.47.9-2.52.9Zm17.23 22.356c-2.06 0-3.9-.432-5.51-1.296-1.58-.864-2.84-2.04-3.78-3.528-.91-1.512-1.36-3.228-1.36-5.148 0-1.944.45-3.66 1.36-5.148a9.778 9.778 0 0 1 3.78-3.528c1.61-.864 3.45-1.296 5.51-1.296 2.04 0 3.87.432 5.47 1.296 1.61.84 2.87 2.004 3.78 3.492.92 1.488 1.37 3.216 1.37 5.184 0 1.92-.45 3.636-1.37 5.148-.91 1.488-2.17 2.664-3.78 3.528-1.6.864-3.43 1.296-5.47 1.296Zm0-4.608c.94 0 1.78-.216 2.52-.648.75-.432 1.33-1.044 1.77-1.836.43-.816.64-1.776.64-2.88 0-1.128-.21-2.088-.64-2.88-.44-.792-1.02-1.404-1.77-1.836-.74-.432-1.58-.648-2.52-.648-.93 0-1.77.216-2.52.648-.74.432-1.34 1.044-1.8 1.836-.43.792-.65 1.752-.65 2.88 0 1.104.22 2.064.65 2.88.46.792 1.06 1.404 1.8 1.836.75.432 1.59.648 2.52.648ZM1130.86 71.966l-314.538 58.877 11.592 61.924 314.536-58.877-11.59-61.924Z"/><path fill="#F0F0F0" d="m899.687 157.374 9.447-1.768 1.211 6.471-17.902 3.351-5.693-30.413 8.455-1.583 4.482 23.942Zm16.708-27.908 5.693 30.413-8.455 1.582-5.693-30.412 8.455-1.583Zm22.039 27.665c-3.537.662-6.598.372-9.182-.871-2.59-1.271-4.264-3.458-5.023-6.561l9.016-1.687c.285 1.048.747 1.765 1.385 2.152.638.386 1.388.499 2.251.337.776-.145 1.374-.45 1.793-.916.442-.499.599-1.094.47-1.784-.167-.892-.713-1.504-1.639-1.837-.926-.333-2.379-.626-4.362-.88-2.108-.29-3.837-.621-5.187-.994-1.326-.406-2.56-1.113-3.701-2.12-1.117-1.041-1.856-2.525-2.217-4.452-.366-1.955-.19-3.715.53-5.278.714-1.593 1.866-2.91 3.457-3.952 1.591-1.042 3.48-1.767 5.665-2.176 3.538-.663 6.512-.356 8.924.919 2.435 1.241 4.004 3.343 4.708 6.307l-9.189 1.72c-.201-.915-.617-1.551-1.25-1.909-.604-.363-1.323-.467-2.157-.311-.632.119-1.115.403-1.448.852-.332.449-.434 1.019-.305 1.709.108.575.418 1.038.93 1.389a7.473 7.473 0 0 0 1.884.763c.715.164 1.763.355 3.143.573 2.051.301 3.757.666 5.117 1.096 1.384.396 2.632 1.1 3.744 2.112 1.136.978 1.871 2.359 2.204 4.142.339 1.812.183 3.523-.468 5.133-.622 1.605-1.718 2.986-3.287 4.143-1.541 1.151-3.476 1.945-5.806 2.381Zm32.434-37.862 1.259 6.73-8.11 1.518 4.434 23.683-8.456 1.583-4.433-23.683-8.024 1.502-1.259-6.73 24.589-4.603ZM998 140.534l-10.785 2.019-.71 5.268-8.887 1.663 5.394-32.488 9.749-1.825 16.739 28.346-8.93 1.671-2.57-4.654Zm-3.325-6.075-5.12-9.222-1.394 10.441 6.514-1.219Zm32.175-25.67c3.2-.597 6.11-.472 8.74.375 2.65.813 4.84 2.249 6.56 4.308 1.73 2.058 2.87 4.568 3.42 7.531.55 2.933.38 5.674-.51 8.222-.87 2.543-2.38 4.702-4.55 6.477-2.15 1.741-4.8 2.908-7.96 3.5l-12.04 2.253-5.69-30.413 12.03-2.253Zm3.65 23.071c2.48-.463 4.29-1.502 5.45-3.117 1.15-1.616 1.5-3.66 1.04-6.133-.47-2.502-1.54-4.297-3.2-5.385-1.67-1.117-3.74-1.444-6.21-.981l-2.93.549 2.92 15.616 2.93-.549Zm25.76-21.566.93 4.961 9.71-1.816 1.2 6.427-9.71 1.817 1.03 5.479 11-2.059 1.27 6.772-19.46 3.642-5.69-30.413 19.46-3.641 1.26 6.772-11 2.059ZM633.936 248.995v-15.874h4.84v-43.558h-4.84v-15.875h65.337v29.232h-21.682v-13.357h-11.713v15.293h8.518v11.035h-8.518v17.23h11.713v-15.294h21.682v31.168h-65.337Zm139.084-15.874h4.066v15.874h-36.589v-15.874h3.969l-5.614-7.938h-.968l-5.615 7.938h3.969v15.874H702.36v-15.874h5.033l18.585-20.908-19.359-22.65h-4.066v-15.875h36.299v15.875h-3.679l5.324 7.937h.968l5.324-7.937h-3.678v-15.875h33.588v15.875h-5.034l-18.294 20.617 19.649 22.941Zm7.338 15.874v-15.874h4.84v-43.558h-4.84v-15.875h65.337v29.232h-21.682v-13.357H812.3v15.293h8.518v11.035H812.3v17.23h11.713v-15.294h21.682v31.168h-65.337Zm69.004-15.874h4.84v-43.558h-4.84v-15.875h44.429c8.325 0 14.681 1.71 19.069 5.13s6.582 8.97 6.582 16.649c0 4.324-.871 8.066-2.613 11.228-1.743 3.162-4.227 5.356-7.453 6.582l.096.968c6.195.968 9.293 4.776 9.293 11.422v7.454h4.549v15.874H892.63v-22.747c0-2.517-.387-4.42-1.162-5.711-.709-1.29-1.871-2.162-3.484-2.613-1.549-.452-3.775-.678-6.679-.678v15.875h6.388v15.874h-38.331v-15.874Zm37.17-27.684c1.871 0 3.259-.484 4.162-1.452.968-1.032 1.452-2.613 1.452-4.743v-3.484c0-2.13-.484-3.679-1.452-4.647-.903-1.032-2.291-1.548-4.162-1.548h-5.227v15.874h5.227Zm77.804 44.913c-12.196 0-21.617-3.097-28.264-9.292-6.582-6.195-9.873-16.101-9.873-29.716 0-26.006 12.648-39.009 37.944-39.009 6.13 0 11.809.742 17.036 2.226 5.291 1.485 9.228 3.13 11.809 4.937v24.199h-23.231v-6.97c0-2.452-.549-4.259-1.646-5.42-1.097-1.162-2.742-1.742-4.936-1.742s-3.84.58-4.937 1.742c-1.097 1.161-1.645 2.968-1.645 5.42v29.233c0 2.452.548 4.259 1.645 5.42 1.097 1.162 2.743 1.743 4.937 1.743 2.194 0 3.839-.581 4.936-1.743 1.097-1.161 1.646-2.968 1.646-5.42v-7.841h23.231v25.07c-2.646 1.807-6.582 3.453-11.809 4.937-5.163 1.484-10.777 2.226-16.843 2.226Zm32.299-1.355v-15.874h4.835v-43.558h-4.835v-15.875h36.785v15.875h-4.84v43.558h4.84v15.874h-36.785Zm5.805-81.115v-1.451l10.55-9.293h24.3v2.517l-15.78 8.227h-19.07Zm72.4 82.47c-12.2 0-21.62-3.097-28.27-9.292-6.58-6.195-9.87-16.101-9.87-29.716 0-26.006 12.65-39.009 37.94-39.009 6.14 0 11.81.742 17.04 2.226 5.29 1.485 9.23 3.13 11.81 4.937v24.199h-23.23v-6.97c0-2.452-.55-4.259-1.65-5.42-1.09-1.162-2.74-1.742-4.93-1.742-2.2 0-3.84.58-4.94 1.742-1.1 1.161-1.65 2.968-1.65 5.42v29.233c0 2.452.55 4.259 1.65 5.42 1.1 1.162 2.74 1.743 4.94 1.743 2.19 0 3.84-.581 4.93-1.743 1.1-1.161 1.65-2.968 1.65-5.42v-7.841h23.23v25.07c-2.65 1.807-6.58 3.453-11.81 4.937-5.16 1.484-10.78 2.226-16.84 2.226Zm32.3-1.355v-15.874h4.84v-43.558h-4.84v-15.875h36.78v15.875h-4.84v43.558h4.84v15.874h-36.78Zm77.04 1.355c-11.81 0-20.94-3.097-27.39-9.292-6.39-6.195-9.59-16.101-9.59-29.716 0-13.616 3.2-23.522 9.59-29.717 6.45-6.195 15.58-9.292 27.39-9.292s20.91 3.097 27.29 9.292c6.46 6.195 9.68 16.101 9.68 29.717 0 13.615-3.22 23.521-9.68 29.716-6.38 6.195-15.48 9.292-27.29 9.292Zm0-17.229c2.19 0 3.84-.581 4.94-1.743 1.09-1.161 1.64-2.968 1.64-5.42v-29.233c0-2.452-.55-4.259-1.64-5.42-1.1-1.162-2.75-1.742-4.94-1.742-2.2 0-3.84.58-4.94 1.742-1.1 1.161-1.64 2.968-1.64 5.42v29.233c0 2.516.54 4.355 1.64 5.517 1.1 1.097 2.74 1.646 4.94 1.646Zm70.27 17.229c-6.19 0-12.07-.516-17.62-1.549-5.48-1.097-9.71-2.323-12.68-3.678v-19.165h21.3c0 2 .45 3.452 1.35 4.355.91.904 2.55 1.356 4.94 1.356 2 0 3.42-.291 4.26-.872.9-.645 1.36-1.581 1.36-2.807 0-1.032-.42-1.903-1.26-2.613-.84-.774-2.29-1.549-4.36-2.323l-8.32-2.904c-7.17-2.71-12.33-5.905-15.49-9.583-3.1-3.678-4.65-8.647-4.65-14.906 0-7.615 2.49-13.39 7.46-17.327 5.03-4.001 13.39-6.001 25.07-6.001 5.61 0 10.87.581 15.77 1.742 4.97 1.097 8.97 2.582 12.01 4.453v17.326h-19.36c0-3.226-2-4.839-6-4.839-1.94 0-3.33.258-4.17.774-.77.452-1.16 1.291-1.16 2.517 0 1.097.45 1.968 1.36 2.613.97.645 2.51 1.323 4.64 2.033l8.42 2.904c6.85 2.323 11.81 5.356 14.91 9.098 3.16 3.679 4.74 8.518 4.74 14.52 0 8.195-2.77 14.39-8.32 18.584-5.49 4.195-13.55 6.292-24.2 6.292Z"/></g><defs><clipPath id="clip0_4027_7226"><path fill="#fff" d="M0 0h1920v420H0z"/></clipPath></defs></svg>