<svg xmlns="http://www.w3.org/2000/svg" width="221" height="124" fill="none" viewBox="0 0 221 124"><path fill="#fff" d="M1.705 89.137H7.39l.853.687 1.137 1.786 1.847 3.021 2.7 4.395 2.273 3.571 1.706 2.747.284.412h.284l1.279-2.06 2.416-3.846 2.131-3.433 1.847-2.885 1.848-3.021.852-1.099.71-.275h6.111l.853.412.142.412v32.277l-.71.687-1.137.137h-5.969l-.71-.412-.284-.549v-15.52l-.71.686-1.564 2.198-1.421 1.923-.995 1.511-2.273 3.433-1.137 1.374-.569.549-.426.138h-.995l-.71-.275-.71-.687-1.421-2.06-2.132-3.296-.995-1.511-1.563-2.198-1.137-1.648-.568-.275.142 1.374v14.559l-.568.549-3.126.137H.994l-.568-.274-.284-.55L0 90.236l.284-.687.427-.274.994-.138ZM54.993 89.275h4.547l2.416.412 2.273.824 2.132 1.099 2.273 1.785 1.28 1.236 1.42 1.786 1.137 1.923.995 2.335.568 2.472.284 2.472v1.648l-.568 3.434-.568 1.511-.853 1.923-1.279 1.923-.995 1.236-1.279 1.373-1.563 1.236-1.989 1.237-1.847.824-1.99.686-3.41.55H55.56l-3.268-.55-2.132-.824-1.989-.961-2.274-1.648-.852-.687-.995-1.099-1.137-1.373-1.279-2.061-.994-2.334-.853-3.434-.142-.962v-2.335l.568-2.747.569-2.06 1.137-2.472 1.989-2.747 2.132-2.06 2.131-1.374 2.274-1.098 1.847-.687 2.7-.412Zm1.137 8.103-2.416.55-1.279.686-1.279.962-1.279 1.373-.852 1.649-.569 1.648-.142.961v1.786l.426 1.923.71 1.648 1.28 1.648.995.961 1.563.962 2.557.687.71.137h1.422l2.984-.824 1.563-1.099 1.279-1.236.995-1.511.71-2.06.284-1.374v-1.511l-.426-1.922-.71-1.649-.995-1.373-1.421-1.374-1.563-.961-2.7-.687H56.13ZM110.27 89.137h20.888l.569.55.142.274v3.434l-2.984 3.709h-10.942v5.081h9.237l.71.412.142.55v5.906l-.284.549-.284.138h-9.521v5.356l9.947-.137h2.984l.853.412.284.549v6.456l-.568.549-4.405.137h-16.484l-.995-.274-.142-.275V89.824l.426-.55.427-.137ZM75.74 89.137h4.973l.71.275 1.421 3.159 2.274 5.769 1.421 3.571 1.137 2.747.995 2.609.71 1.923.71 1.786v.274h.285l.426-1.51 1.137-2.885.852-2.06.853-2.198.71-1.785 2.274-5.631 1.563-3.983.569-1.511.426-.412 2.7-.138h4.831l.853.412-.284 1.511-1.564 3.709-2.415 5.906-2.274 5.356-1.137 2.747-.71 1.648-1.137 2.61-1.705 3.983-1.279 3.159-.71 1.786-.711.961-2.132.137h-4.405l-.71-.274-.995-2.061-2.131-5.219-1.706-3.983-1.42-3.571-.853-2.06-1.99-4.67-.71-1.785-2.132-5.22-1.278-3.021-.427-1.1.284-.686.285-.137 2.415-.138ZM169.099 89h2.558l4.405.137.711.55.142.274v6.319l-.284.686-.143.138-2.415.137h-12.079v5.082h7.674l2.984.137.284.137v6.868l-.142.275-.426.137h-10.516v12.224l-.284.687-.284.137-2.558.137h-4.263l-.711-.274-.284-.824V90.099l.284-.687.569-.275L169.099 89ZM200.077 89h16.768l3.268.137.711.412.142.412v6.319l-.284.824-.569.137h-8.952l.142.687v13.734l-.142 10.851-.568.412-1.422.137h-5.968l-.426-.137-.142-.275-.142-2.197V97.378l-8.81-.137-.853-.275-.284-.686v-6.181l.426-.687.568-.275 6.537-.137Z"/><path fill="#F96809" d="M137.553 91.61h3.837l1.989.412 2.274 1.099 1.421 1.098 1.563 1.923.995 2.198.284 1.099v2.334l-.711 2.335-.568 1.099-1.705 1.786-2.416 2.335-1.563 1.236-1.99 1.511-1.847 1.648-1.421 1.098-.142.275 11.084.824.568.275h-.142l-.426 4.67.284.824-.568-.275-14.352 1.511-.427-.412-.142-6.043-.568-1.236-.427-.687-.852-.55-1.848-.549.569-.549 1.137-.962 2.273-1.785 1.848-1.649 1.705-1.51 1.989-1.649 1.421-1.236.284-.274 1.279-1.237.427-1.098v-1.236l-.569-1.1-.994-.823-.995-.275h-1.421l-1.137.412-.853.962-.852 1.648-.142.137h-6.821l-.142-.961.426-1.649.568-.961 3.979-4.807 1.99-.824 1.847-.412Z"/><path fill="#fff" d="M181.746 89.137h5.542l1.421.275.284.137.142.412v32.552l-.568.412-1.847.137h-5.542l-.569-.137-.142-.275-.142-2.472V99.164l.142-9.615 1.279-.412ZM137.411 115.096h11.51l.995.412.142.275v6.181l-.284.686-.427.275h-15.489l-.426-.412v-6.043l3.979-1.374ZM169.099 89h2.558l4.121.137-.142.412h-.284v.275l-.853.275-.995.137-4.405.138h-9.663l-2.273-.138-2.558-.275-.71-.274.426-.55L169.099 89ZM110.27 89.137h19.61l-.143.687-.568.275-.995.137-5.542.138h-8.384l-3.41-.275-1.137-.412.142-.412.427-.138Z"/><path fill="#fff" d="M181.746 89.137h5.542l1.421.275.284.137.142.412v32.552h-.142V90.511h-.426v-.275h-2.132l-3.552-.137h-1.563l-.284-.138v.275h-.285l-.142-.687.427-.274.71-.138ZM73.324 89.275h6.252v.55l-.995.274-3.694.412h-.995l-.71-.412.142-.824ZM99.186 89.275h7.247l-.142.412-.711.275-2.131.137H98.76l.142-.55.284-.274ZM202.777 113.723l.284.137.284 6.73.142 1.786.285.137-.142.412h-.853v-9.202ZM28.988 89.275h5.827l-.285.274-1.563.412-2.415.138-1.28-.138-.426-.274.142-.412ZM201.356 89.137h8.242v.275l-1.421.138h-5.684l-.142-.138-.995-.137v-.138ZM130.732 115.234l.569.137.568.275.142.274v2.335l-.284-.412-.853-1.511-.426-.412-1.137-.274-.142-.275 1.563-.137ZM218.692 89.137h1.421l.711.412v1.649l-.427-.138v-.412l-.71-.274-.426-.275-.427-.687-.142-.275ZM133.858 120.727l.853 1.237.142.961h-.852l-.427-.412v-1.373l.284-.413ZM196.098 89.137h4.69l-.285.275-3.268.138h-.568v-.275l-.569-.138ZM138.832 115.371h3.268v.137l-1.421.138-.426.275h-1.137l-.71-.137v-.276l.426-.137ZM55.987 89.275h2.132l-.568.55-1.706-.138-.426-.275.569-.137ZM193.256 89.275h.995l-.284.55-.427.274-.71-.138.142-.549.284-.137ZM210.877 121.552l.284.137v.824l-.711.412-.142-.275.142-.412h.285l.142-.686ZM106.575 89.687l.711.412-.142.961-.569-.412v-.961ZM109.389 0h1.481l.854.165 1.025.442.969.551 1.025.607 3.076 1.82.911.55.854.497 1.31.772.741.441 1.139.662 1.481.882 3.189 1.875 1.196.717 1.595.938.741.44 1.253.718.911.551-.228.055h-.569l-1.31.166-.684.22-.74.331-1.026.551-.626.497-.513.44-.057.111h-.114l-.114.22-.455.607-.399.607-.342.662-.227.551-.171.055-.684-.44-1.082-.718-1.025-.717-.627-.386-1.025-.716-.968-.662-1.025-.717-.513-.331-.911-.662-1.026-.717-1.936-1.323-.798-.496-.683-.386-.911-.331-.513-.11h-1.367l-1.025.22-1.196.386-1.196.496-.912.442-1.31.606-1.082.552-1.538.772-.854.386-.228.055-13.157.055-.513.055-.512.33-.228.442v.772l.17.33.343.277.398.165.74.055H97.6l.854.055.057.056v.661l1.082-.386 3.076-1.323 1.082-.497 1.082-.551 1.937-.882 1.367-.607 1.196-.441.854-.276.741-.165h.455l.741.22 1.025.607.911.607 2.051 1.433 1.936 1.324 3.076 2.15 1.994 1.324.854.607.854.55.912.608.74.55.456.387.17.441.228 1.71.342 1.378.513 1.71.512 1.488.627 1.434.683 1.158.741 1.213.74 1.159.855 1.213h.17l.399-.441.684-.662.398-.441.855-.883.512-.496.399-.441.854-.882.798-.828.398-.44 1.14-1.27.056-.385.057-1.544.057-.607.741-.551.797-.607 1.196-.882.741-.552 1.025-.772.74-.496.684-.33.228-.056h.512l.627.166.512.275.456.441.342.662.057.331v.496l-.171.497-.399.606-.512.552-.456.551-.513.607-.569.717-.627.716-.512.607-.798.938-.512.606-.684.772-.626.772-.627.717-.74.937-.741.883-.626.772-1.481 1.764-.741.938-1.139 1.378-.569.717-.627.772-.512.607-.627.662-.626.386-.399.11h-.627l-.512-.165-.57-.386-.456-.442-.512-.606-.627-.662-.512-.606-.684-.717-.512-.607-.57-.606-.513-.607-.569-.662-.513-.606-.74-.773-.171-.22-.399.055-.854.331-2.62.937-1.709.607-1.652.551-1.196.442-.797.165-.342-.055-.854-.276-1.595-.662-1.709-.661-1.651-.607-1.083-.276-.626-.165-.513-.055-5.468.055H87.005l-.456.165-.512.331-.285.441-.057.166v.662l.228.496.057.22h-8.145l-.057-.11v-4.025l.057-12.463.17-.827.456-.993.57-.717.512-.44 1.026-.662 1.594-.938 1.368-.827 1.594-.938.969-.606.968-.552 1.424-.827 1.253-.717 2.164-1.323 1.424-.827 1.367-.827.854-.497 1.083-.661 1.196-.717 1.139-.662 1.082-.662 2.677-1.599 1.025-.607 2.734-1.654.741-.441.797-.386 1.025-.33.342-.056Zm1.196 17.04-1.652.33-2.05.442-2.222.496-1.253.22-.968.221-1.139.22-1.424.331-.683.166-.4.441-.455.662-.455.551-.342.22-.684.276-2.392 1.048-.797.331-.342.276-.17.33-1.425.056h-3.588l-.797.055-.456.165-.342.276-.228.441v.552l.228.44.399.387.456.165 19.934.055h6.949l.684-.055.512-.275.285-.331.114-.386v-.497l-.228-.551-.399-.33-.455-.111-10.822.055h-6.151l-.171-.055.57-.276.455-.276.627-.386.455-.386.57-.772.171-.33 3.93-.773 3.132-.606 2.336-.496h.512l.57.33.854.552.854.496.912.496 1.139.607.854.441.513.166.285-.11.057-.166-.456-.552-.456-.386-1.253-1.213-.455-.386-.912-.882-.455-.386-.513-.496-.456-.386-.398-.386-.114-.055h-.399Zm-11.733 11.8-.456.11-.57.332-.227.386-.057.386.114.496.285.441.455.386.285.055H110.3l.513-.11.342-.22.341-.332.114-.33v-.662l-.285-.496-.398-.331-.228-.11H98.852Z"/><path fill="#fff" d="m142.007 34.171.114.055v3.352l-.057 14.287-.229.879-.229.605-.343.604-.63.714-.973.715-1.374.824-.973.604-1.374.825-1.489.879-1.03.604-.916.55-1.202.714-1.374.824-2.691 1.594-1.088.66-1.03.604-1.088.659-1.202.714-.973.605-1.088.659-.343.165-.401.055-7.27.055H99.358l-.859-.605-.457-.274-.688-.77-.744-.55-1.374-.823-1.66-.934-1.374-.825L91 61.481l-.973-.55-.229-.164.057-.165 1.66-.77 1.088-.494.573-.275 1.202-.55 1.087-.549 1.431-.714.745-.44.858-.494.172-.11 11.163-.055.344-.165.744-.604.744-.66.458-.385.401-.439h-9.389l.058-.165 1.316-.77.916-.549 1.031-.604.858-.55.802-.44.458-.219h8.014l.458-.33.687-.66v-.164l-1.316-.275-2.348-.494-2.69-.55-1.889-.44-1.202-.384-.974-.44-1.087-.659-.63-.494-.916-.88-.744-.989-.573-1.044-.458-1.319-.343-1.373-.057-.33v-1.703l.114-1.1.115-.164 3.377-.11.802-.11h1.316l1.202.33 1.489.55 2.118.823 2.061.825 2.233.934 2.461 1.044 1.889.824 1.489.605 1.316.549 3.092 1.319.572.33.687.604.572.66.458.769.344.879.229 1.099v1.319l-.229.934-.229.604-.458.66-.458.494-.916.605-1.889.879-1.202.494-1.145.495-2.576 1.099-3.435 1.483-1.317.55-.458.22-1.145.494-.916.385-3.263 1.428-.801.385-1.317.604v.11l.859.44.916.495.343.11.401-.056.515-.22 1.145-.494.802-.33.458-.22 3.091-1.318 1.431-.604 2.29-.99 1.431-.604 1.775-.77.572-.22.63-.274 1.832-.77.572-.219.687-.33 1.088-.494.687-.44.687-.604.572-.66.458-.769.401-.879.229-.99.115-.823v-1.264l-.172-1.154-.229-.824-.401-.99-.572-.934-.401-.494-.229-.275.057-.11.573.11h1.202l.572-.11.802-.33.687-.494.629-.604 1.031-1.21.801-.988.458-.605.63-.77.687-.768.458-.605.63-.77 1.202-1.483.629-.714.287-.385Z"/><path fill="#fff" d="M111.233 10.935h.46l.749.221 1.036.608.921.609 2.073 1.438 1.958 1.328 3.109 2.157 2.015 1.327.864.609.863.553.922.608.748.553.461.388.172.442.231 1.715.345 1.383.518 1.715.519 1.493.633 1.438.691 1.162.748 1.216.749 1.162.864 1.217h.172l.403-.443.691-.663.403-.443.864-.885.518-.498.403-.442.864-.885.057-.11h.115l.116-.222.518-.498.403-.442.518-.498.288-.332h.115l.23-.442.058-.388.058-1.548.057-.609.749-.553.806-.609 1.209-.884.748-.554 1.037-.774.748-.498.691-.332.23-.055h.519l.633.166.518.277.461.442.345.664.058.332v.497l-.173.498-.403.609-.518.553-.461.553-.518.608-.576.72-.633.719-.518.608-.806.94-.519.609-.69.774-.634.774-.633.72-.749.94-.748.885-.633.774-1.497 1.77-.749.94-1.152 1.383-.575.72-.634.774-.518.608-.633.664-.633.387-.404.111h-.633l-.518-.166-.576-.387-.46-.443-.519-.608-.633-.664-.518-.608-.691-.72-.518-.608-.576-.608-.518-.609-.576-.663-.518-.609-.749-.774-.172-.221-.403.055-.864.332-2.649.94-1.727.608-1.67.553-1.209.443-.806.166-.345-.055-.864-.277-1.612-.664-1.727-.663-1.67-.609-1.094-.276-.633-.166-.519-.056-.115-.11.346-.498.748-.83.921-.94.403-.498.116-.055 1.669-.056.518-.11.346-.221.288-.277.115-.332v-.664l-.288-.497-.461-.332-.115-.056-.978-.055v-.055l.69-.056.346-.166.518-.608.518-.553.634-.664.46-.553.403-.055h1.037l.691-.056.518-.276.23-.277.115-.387v-.498l-.23-.553-.346-.277-.46-.11-10.94.055H97.99l-.23-.11.46-.332.634-.277.633-.387.403-.332.576-.774.173-.332.287-.11 6.91-1.328 2.36-.498h.518l.576.332.864.553.864.498.921.498 1.151.608.864.442.518.166.288-.11-.115-.277-.288-.276v-.111l-.23-.11-1.497-1.439-.461-.387-.921-.885-.461-.387-.518-.498-.461-.387-.403-.387-.115-.056h-.403l-1.67.332-2.072.443-2.246.497-1.266.222-.979.221-1.152.221-1.439.332-.691.166-.346.387-.46.664-.46.553-.289.221-.921.388-1.036.442-1.267.553-.806.332-.288.221h-.69l-.807-.11-.633-.387-.403-.388-.346-.553-.115-.387v-.719l.23-.553.519-.443 1.554-.774 1.382-.664 3.052-1.549 1.036-.553.403-.221v.166l1.094-.387 3.109-1.328 1.094-.498 1.094-.553 1.958-.885 1.381-.608 1.209-.443.864-.276.749-.166ZM78.189 39.639h23.429l.113.166.057 1.495.171.941.341 1.108.284.665.512.94.569.776.682.775.739.665.91.664 1.024.554.455.333-.228.276-.853.554-1.251.775-2.331 1.385-1.593.941-.966.554-1.365.775-1.137.61-1.308.72-1.536.775-1.308.609-1.82.886-1.08.553-1.308.61-.91.443-1.535.775-1.308.609-1.08.554-1.65.775-1.25.61-2.616 1.218-.91.443-1.877.885-1.592.72L70 67.66l8.814-7.586-1.421.055h-.74l-.512-.221-.34-.388-.171-.388v-.443l.17-.443.341-.387.683-.333.227-.055 5.005-.055.113-.222.626-.498.398-.388.455-.388.569-.498.682-.61.17-.054.057-.167.455-.387.91-.83.626-.5.568-.553.455-.388.569-.553 8.245-.056.399-.166.398-.332.17-.554-.057-.554-.284-.498-.569-.222-.398-.055-9.212-.055-.853.055-.455.221-.227.277-.114.277-.057.554.17.554.342.443v.166l-1.308.055h-5.857l-.398-.055-.285-.498-.113-.665-.057-3.489V39.64Zm3.298 3.212-.057.055v2.935h16.776l.739-.056.455-.221.398-.443.17-.498-.056-.554-.285-.554-.341-.388-.455-.221-.284-.055h-17.06Z"/><path fill="#C84907" d="m142.008 34.171.113.055v3.352l-.056 14.287-.227.879-.227.605-.34.604-.623.714-.964.715-1.36.824-.964.604-1.36.825-1.474.879-1.02.604-.907.55-1.19.714-1.36.824-2.664 1.594-1.077.66-1.02.604-1.077.659-1.19.714-.964.605-1.076.659-.34.165-.397.055-7.198.055H99.783l-.793-.55.227-.22 1.36-.549 1.133-.495 1.587-.714 1.531-.66.906-.439 3.004-1.374.227-.055 1.304.715.68.33.396.054.624-.22.567-.274 1.133-.495 1.474-.659.907-.385 1.7-.714 4.534-1.978.907-.385 1.134-.494.566-.22.624-.275 1.813-.77.567-.219.68-.33 1.077-.494.68-.44.68-.604.567-.66.454-.769.396-.879.227-.99.113-.823v-1.264l-.17-1.154-.226-.824-.397-.99-.567-.934-.397-.494-.226-.275.056-.11.567.11h1.19l.567-.11.794-.33.68-.494.623-.604 1.02-1.21.794-.988.453-.605.624-.77.68-.768.453-.605.624-.77 1.19-1.483.623-.714.284-.385ZM94.69 15.719h3.187l.854.054.056.055v.488l-.512.326-1.366.706-1.821.924-2.22 1.086-1.139.544-.569.38-.227.272-.171.434v.706l.228.598.398.489.57.434.454.163 1.196.11-.114.325-.057.054-1.423.055h-3.586l-.797.054-.455.163-.285.217-.227.435v.543l.227.435.456.38.341.109 19.922.054h3.757l1.764.054-.341.49-.513.488-.398.435-.683.76-.228.272-.284.108-.683.055-10.872.054-.455.109-.513.271-.227.38-.057.38.114.49.284.434.399.326.284.055 9.961.054-.341.38-.399.435-.797.815-.683.76-.284.435-.513.054-4.838.054H87.29l-.456.163-.512.326-.285.435-.056.163v.652l.227.489.057.217h-4.952V25.932l.057-4.51.285-.868.398-.598.57-.434 1.08-.652 1.196-.707.91-.543 1.31-.815.968-.597.569-.326.057-.109 5.976-.054Z"/><path fill="#B1B1B1" d="M107.124 36.222h1.326l1.21.337 1.498.564 2.132.845 2.075.845 2.247.957 2.478 1.07 1.902.845 1.498.62 1.325.563 3.112 1.352.576.338.692.62.576.675.461.789.346.901.23 1.127v.845l-17.172 7.21 1.095-.958.403-.338 1.383-1.127.98-.788.864-.733 1.268-.957.461-.338.576-.45.576-.451.807-.62.576-.45.346-.282.634-.507-.173-.113-.979-.394-.519-.169-1.153-.45-1.094-.395-.519-.225-.576-.17-.404-.168-.634-.169-.922-.394-.518-.17-.634-.225-1.614-.563-.518-.225-.865-.282-1.383-.507-1.613-.676-.692-.45-.633-.507-.634-.789-.404-.563-.691-1.295-.231-.451-.461-1.127-.345-1.126-.173-.507-.346-.113-.231-.112 1.672-.057.806-.112Z"/><path fill="#fff" d="M145.966 20.503h.515l.63.167.515.279.458.446.344.669.057.334v.502l-.172.502-.401.613-.515.558-.458.557-.515.614-.572.724-.63.725-.515.613-.801.948-.515.613-.687.781-.63.78-.63.725-.744.948-.744.892-.629.78-1.489 1.785-.744.948-1.144 1.394-.573.724-.63.78-.515.614-.629.67-.63.39-.401.111h-.629l-.515-.167-.573-.39-.458-.447-.515-.613-.629-.669-.516-.613-.686-.725-.516-.613-.572-.613-.515-.614-.573-.669-.515-.613-.744-.78-.172-.224.058-.167.458-.334.973-.893.458-.39.915-.892.516-.613.572-.725.572-.836.458-.725.115.111.4.948.687 1.171.744 1.227.744 1.17.859 1.227h.172l.4-.446.687-.669.401-.446.859-.892.515-.502.4-.446.859-.892.057-.111h.115l.114-.224.515-.501.401-.446.515-.502.286-.335h.115l.229-.446.057-.39.057-1.56.058-.614.744-.558.801-.613 1.202-.892.744-.558 1.03-.78.745-.502.686-.335.229-.055Z"/><path fill="#F96708" d="M110.074 3.417h1.032l.688.164.688.33 1.032.602 1.089.657 1.261.712 1.376.822 1.147.657.745.438 1.204.713 1.032.602.86.493.745.438 1.319.767.802.493.516.274 1.032.603 1.147.657 1.376.822.229.219-.803.548-.63.547-.058.11h-.114l-.115.22-.459.602-.401.602-.344.657-.229.548-.172.055-.688-.438-1.089-.712-1.032-.712-.631-.384-1.032-.712-.975-.657-1.031-.712-.516-.33-.918-.656-1.032-.713-1.949-1.314-.802-.493-.688-.384-.918-.328-.516-.11h-1.376l-1.032.22-1.203.383-1.204.493-.918.438-1.318.603-1.09.547-1.547.767-.86.384-.23.054h-8.14l.286-.274 1.204-.657.745-.438 1.147-.657 1.95-1.15 1.318-.768.745-.438 1.605-.931 1.089-.658 2.408-1.424.746-.438 2.35-1.37.573-.273.574-.11Z"/><path fill="#F9690B" d="M77.778 39.639h23.924l.116.163v.597l-.232.054-.697.597-1.22 1.14-.464.38-.348.272H81.146l-.058 2.877.464-.054h4.007l8.652.054v.109l-.464.38-1.51 1.412-.465.38-.697.597.465.054v.054h-4.355l-.871.055-.465.217-.232.271-.116.272-.058.543.174.542.349.435v.163l-1.336.054h-5.981l-.407-.054-.29-.489-.116-.651-.058-3.42v-7.004Z"/><path fill="#fff" d="m142.006 34.171.115.055v3.358l-.057 14.31-.23.881-.23.606-.345.605-.632.716-.976.715-1.379.826-.977.605-1.378.826-1.494.88-1.034.606-.919.55-1.207.716-1.379.825-2.7 1.597-1.091.66-1.034.606-1.092.66-1.206.716-.977.605-1.091.66-.345.166-.402.055h-5.401l.058-.165.747-.496.976-.605 1.034-.606 2.356-1.43.804-.496 1.207-.716 1.263-.77 1.322-.77.976-.606 1.207-.716 1.379-.825.804-.496 1.379-.825 1.206-.716 1.264-.77 1.609-.936 1.264-.77 1.091-.661.919-.55.517-.386.403-.385.287-.55.172-.771.058-12.88.402-.55.632-.77 1.206-1.487.632-.715.287-.386Z"/><path fill="#C84907" d="M98.879 56.041h11.424l-.351.4-.704.574h-.117v.114l-.644.516-.879.744-.762.63-.585.458-.528.458-.644.516-.703.63-.527.4-1.524 1.26-.761.573-.645.573-.937.687-.82.688-.645.515-.351.4-.586-.4-.059-.23-.761-.572-1.406-.859-1.7-.974-1.405-.859-1.23-.744-.997-.573-.234-.172.059-.171 1.698-.802 1.114-.516.585-.286 1.23-.573 1.114-.572 1.465-.745.761-.458.879-.515.176-.115Z"/><path fill="#fff" d="M132.373 15.035h1.168l.667.108.834.27.89.541.668.595.389.432.445.757.389 1.135.056.217v1.513l-.501 1.406-.445.702-.667.703-.334.27-.611.379-1.001.432-.723.108h-1.335l-.667-.108-1.113-.486-.611-.379-.668-.594-.556-.757-.334-.649-.278-.81-.055-.325v-1.19l.222-.864.334-.865.5-.81.668-.65.611-.432.668-.324 1.056-.27.334-.055Z"/><path fill="#F96808" d="M77.778 39.639h23.924l.116.168v.616l-.232.056-.697.616-1.22 1.177-.464.392-.348.28H81.146l-.058.056-.987.056h-2.323v-3.417Z"/><path fill="#6E7274" d="M106.878 36.222h1.342l1.226.338 1.517.564 2.16.847 2.101.846 2.276.96 2.51 1.072 1.926.846 1.518.621 1.342.564 3.152 1.355.584.338.7.62.584.678.467.79.35.903.175.733v.226l-.875-.282-.584-.282-.701-.282-1.751-.734-1.575-.677-.876-.338-.467-.226-.584-.226-.992-.395-.467-.226-2.218-.902-1.225-.508-1.751-.734-.934-.395-1.226-.508-.759-.282-.875-.395-1.051-.395-.875-.395-1.518-.62-.642-.283-.7-.339-.584-.394-.35-.395-.467-.847-.35-.903v-.17h-.35v-.056l.817-.112Z"/><path fill="#6F7274" d="M111.257 10.935h.463l.752.223 1.042.613.926.613 2.083 1.449 1.967 1.337 3.125 2.174 2.025 1.337.868.613.868.558.926.613.752.557.463.39.173.446.232 1.727.058.335-.405-.056-1.158-.724-.868-.558-.752-.557-1.099-.78-.752-.557-.811-.558-.578-.446-1.389-1.003-.579-.39v-.111l-.289-.112-.868-.669-.521-.39-1.446-1.114-.405-.279v-.111l-.29-.112-.752-.557-.116-.056v-.111l-.289-.112-.926-.724-.578-.446-.347-.167h-.926l-.926.111-1.215.335-1.158.334-1.041.334-2.373.78-1.678.614-.983.334-2.894 1.115-.23-.056-.174-.613-.174-.502.868-.334 3.009-1.282 1.099-.502 1.1-.557 1.967-.891 1.389-.614 1.215-.445.868-.279.752-.167Z"/><path fill="#F96808" d="m138.484 38.272.102.214v1.818l-.051 3.154v2.46l.051.48v3.422l-.154 1.283-.204.535-.358.481-.409.375-.766.534-.563.375-.562.32-.409.268h-.358v-.428l.103-.32-.154-.535-.153-1.016v-3.369l-.051-1.016V45.81l-.102-2.031-.103-.375.256-.267.409-.374.358-.374.92-1.177.715-.962.409-.588.562-.748.512-.642Z"/><path fill="#C94907" d="M110.494 19.136h.514l.572.35.857.583.857.526.915.524 1.143.642.857.467.458.175v.175h-.115l-.057.175-.228.058-.115.234-.4.35-.057.117h-.114l-.115.291-10.917.059-6.973.058 1.143-.584.915-.583.685-.7.458-.934 7.373-1.458 1.829-.408.515-.117Z"/><path fill="#C84907" d="M110.632 5.467h.507l.168.173.844.344.787.459.563.402.675.401.562.402.394.287.394.23.168.172.282.115.562.401.338.23.562.344.956.689.281.287.113.287-.169.172H118l-.112.057.056.115-.281-.057-.506-.173-.731-.057-.282-.172-.675-.172-.112-.115-.113.057-.281-.115-.225-.057-1.237-.746-.9-.344-.506-.115h-1.35l-1.012.23-1.182.401-1.181.517-.9.459-1.293.631-1.069.574-1.518.803-.563.287-.506.058-.113.057h-1.237l-.787-.115-.394.058.337-.402.732-.517.506-.286.393-.287.338-.115v-.115l.45-.23.169-.114h.168v-.115l.619-.344.281-.173.619-.401.45-.287.506-.287.45-.287.506-.344.619-.345.506-.287 1.069-.746.9-.573.787-.517.394-.23.45-.286.393-.058v-.115Z"/><path fill="#F9690A" d="M108.71 50.574h7.322l.635.056-.346.392-.635.56-.634.504-.692.616-.634.504-.865.729-.173.056-9.456-.056.058-.168 1.326-.785.923-.56 1.037-.616.865-.56.808-.448.461-.224Z"/><path fill="#fff" d="M80.216 43.056h1.036l.061 2.77v2.449l-.06 2.982h-2.56l-.427-.053-.305-.48-.122-.639-.061-3.355v-3.62l2.438-.054Z"/><path fill="#C94A07" d="m123.043 36.905.284.055.397.437.511.602.567.6.454.548.568.601.51.602.511.546.511.602.624.765v.11l-.341-.11-.454-.219-2.099-.874-3.121-1.313-1.759-.71-1.021-.438-.397-.164v-.11l1.135-.437 1.645-.6 1.248-.438.227-.055Z"/><path fill="#F9690A" d="m137.172 25.97-.056.937-.726.79-.725.69-.391.394-.614.592-.391.395-.614.592-.391.394-.279-.246-.446-.642-.782-1.233-.502-.789-.447-.887v-.148l.614.098 1.228.148h1.117l1.004-.148.67-.197 1.061-.444.67-.296Z"/><path fill="#fff" d="M97.854 45.79h.429v.048l-.59.147-.106.195-.59.928-.375.585-.267.488-.054.342h-4.607l-.482-.049.322-.341.428-.342.857-.732 1.232-1.123h.107v-.098l3.696-.048ZM77.016 57.104l5.004-.38-3.263 3.418h-2.121l-.49-.254-.326-.443-.163-.443v-.506l.163-.506.326-.443.653-.38.217-.063ZM140.049 17.086l.543.402.395.403.542.806.444 1.094.148.978-.148.288-.493.403-.839.633-.493.402-.148.058.099-.288.296-1.208.098-.748v-.749l-.148-1.093-.296-1.209v-.172Z"/><path fill="#FA690A" d="M141.168 62.192h.615l.43.178.369.297.246.476v.713l-.184.416-.369.416-.553.237h-.677l-.492-.237-.369-.416-.184-.535v-.416l.246-.594.43-.357.492-.178ZM79.592 3.417h.737l.492.178.308.357.184.475v.654l-.246.535-.43.357-.43.178h-.615l-.492-.238-.43-.475-.185-.416v-.595l.246-.475.43-.357.43-.178Z"/><path fill="#FA6A0B" d="m141.264 5.467.541.06.482.238.421.475.12.357v.475l-.301.594-.421.357-.421.178h-.722l-.421-.238-.301-.356-.181-.357-.06-.535.181-.534.24-.357.421-.238.422-.119Z"/><path fill="#FA690A" d="m90.099 35.538.424.098.371.244.212.293.106.341-.053.44-.212.293-.318.244-.265.098h-.425l-.37-.098-.372-.342-.106-.244v-.586l.265-.39.371-.293.371-.098Z"/><path fill="#fff" d="m138.835 45.79.167.11.166.887.582.776.167.166.083.333v1.108l-.25.554-.249.498-.083.111.249.056-.083.221-.166-.055-.084.388-.499.942-.249.055v-.775l.083-.277.083-4.988.083-.11ZM109.313 31.438l.283.06v.306l-.509.61h-.113v.122h-.113v.122h-.114l-.056.244.056.122-.226.427-.226.122-.283.55-.056.244h.282v.488l-.396-.061-.452-.122-.509-.061-.113-.122.339-.55.735-.915.905-1.037.566-.55ZM119.904 63.559l.298.058-.298.29-.297.173-.179.29-.834.405-.416.174-.417.29-.06.115-.238.116h-.179v.116h-.119l-.119.29-.417.405-.119.058-.238.405-.357.174-.357.058h-1.013l.298-.29 1.548-.984 1.072-.638 1.131-.694 1.31-.811ZM78.06 23.92l.284.055v.932l.14.22v6.306l-.282.768.142.494h-.283v.11h-.283v-8.282l.141-.548.142-.055ZM140.979 48.523l.272.054.163.864v.7l-.054.27-.218.163-.272-.054-.217-.378-.163.162-.055.162-.381-.108-.054-.216.054-.594.218-.323.272.161.054.054.055-.053-.163-.162.163-.108.217-.486.109-.108ZM112.95 26.654h.181l-.06.372-.485.606-.182.233-.182.28-.182.233-.545.326-.485-.047.061-.372.788-.7.909-.745.182-.186ZM127.103 34.171l.17.053v.473l-.17.316-.056.262-.396.579.056.21-.226.158-.226-.053-.396-.473.113-.316.339-.473.34-.42.282-.158.17-.158ZM130.491 57.408l.317.056-.254.223-.254.056v.167l-1.078.446h-.191l-.063.28-.381.167-.698.334-.507.28-.381.055v.112l-.952.557h-.19l.127-.223.317-.279 1.142-.613 1.396-.781 1.206-.67.444-.167ZM132.677 56.041l.252.047-.101.047-.05.189h-.152l-.101.188-.202.142-.252.094-.051.094-.252.095-.101.14-.505.142-.253.189-.101-.047.101-.189.253-.235.808-.472.707-.424ZM140 17.086l.778.368.353.315.071.158.141.052.071.263-.071.105h-.141l-.071.105-.707-.21-.424-.999v-.157ZM123.673 61.508l.064.125h-.192l-.129.31-.643.435-.707.373-.45.124.257-.373 1.157-.683.386-.248.257-.063ZM101.667 40.322l.151.04v.644l-.353-.121h-.303l-.051-.08.152-.201h.101l.05-.121.253-.16ZM134.937 54.674h.113l-.056.171-.339.043-.114.17-.396.214-.226.086h-.283l.057-.171 1.018-.47.226-.043ZM91.212 21.87l.253.048.303.147.151.342-.1.146-.253-.098-.354-.39v-.195ZM79.192 43.056h2.121v.683l-.517-.512H79.76l-.57-.086v-.085Z"/><path fill="#fff" d="M126.33 59.458h.189l.047.187-.566.496h-.141l.094-.248.236-.31.141-.125ZM140 17.086l.648.368.059.105-.412.157-.118.053-.177-.526v-.157ZM135.581 53.99h.118l.059.206-.531.41-.176.068.058-.41.236-.205.236-.068ZM85.273 13.668h.141l.142.274h-.142v.205l-.424.205-.141-.137.212-.41.212-.136ZM125.01 60.825h.142l-.142.456-.353.227-.213-.076v-.227l.566-.38ZM133.508 55.358h.128l-.128.39-.129.293h-.45l.257-.39.322-.294ZM142.033 34.171h.088v.38l-.707.304.177-.304.442-.38ZM115.758 66.292l.202.069-.708.41-.505.205-.202-.069 1.213-.615Z"/><path fill="#6F7274" d="m127.98 32.577 1.038-2.734 3.345 5.581 6.458-6.948.116-.342 5.305-4.214-10.611 13.668h-2.076l-3.575-5.011Z"/><path fill="#B1B1B1" d="m127.98 31.98.91-2.546 3.411 5.197 6.483-6.787 5.458-3.924-11.258 12.302h-1.365l-3.639-4.242ZM88.253 51.364 75.657 62.192l4.766-1.823 13.163-8.254.454-.858-5.787.107Z"/></svg>