<svg xmlns="http://www.w3.org/2000/svg" width="326" height="69" fill="none" viewBox="0 0 326 69"><path fill="#fff" d="M106.705 17.465h5.684l.853.687 1.137 1.786 1.847 3.021 2.7 4.395 2.273 3.572 1.706 2.746.284.413h.284l1.279-2.06 2.416-3.846 2.131-3.434 1.847-2.885 1.848-3.021.852-1.099.711-.275h6.11l.853.412.142.412v32.277l-.711.687-1.136.137h-5.969l-.71-.412-.284-.55v-15.52l-.711.687-1.563 2.198-1.421 1.923-.995 1.51-2.273 3.434-1.137 1.374-.568.55-.427.136h-.994l-.711-.274-.71-.687-1.421-2.06-2.132-3.296-.995-1.511-1.563-2.198-1.137-1.648-.568-.275.142 1.374v14.559l-.568.549-3.126.137h-3.979l-.569-.274-.284-.55L105 18.564l.284-.687.427-.274.994-.138ZM159.993 17.603h4.547l2.416.412 2.273.824 2.132 1.099 2.273 1.785 1.279 1.236 1.421 1.786 1.137 1.923.995 2.335.568 2.472.284 2.472v1.648l-.568 3.434-.568 1.51-.853 1.924-1.279 1.923-.995 1.236-1.278 1.373-1.564 1.236-1.989 1.236-1.847.825-1.99.686-3.41.55h-2.416l-3.268-.55-2.132-.824-1.989-.961-2.274-1.648-.852-.687-.995-1.099-1.137-1.373-1.279-2.06-.994-2.336-.853-3.433-.142-.962V33.26l.568-2.746.569-2.06 1.137-2.473 1.989-2.747 2.132-2.06 2.131-1.374 2.274-1.099 1.847-.686 2.7-.412Zm1.137 8.103-2.416.55-1.279.686-1.279.962-1.279 1.373-.852 1.648-.569 1.649-.142.961v1.786l.426 1.922.711 1.649 1.279 1.648.995.961 1.563.962 2.557.687.711.137h1.421l2.984-.824 1.563-1.099 1.279-1.236.995-1.511.71-2.06.284-1.374v-1.51l-.426-1.923-.71-1.649-.995-1.373-1.421-1.373-1.563-.962-2.7-.687h-1.847ZM215.27 17.465h20.888l.569.55.142.274v3.434l-2.984 3.709h-10.942v5.081h9.237l.71.412.142.55v5.906l-.284.55-.284.137h-9.521v5.356l9.947-.137h2.984l.853.412.284.55v6.455l-.568.549-4.405.137h-16.484l-.995-.274-.142-.275V18.152l.426-.55.427-.137ZM180.739 17.465h4.974l.71.275 1.421 3.159 2.274 5.769 1.421 3.57 1.137 2.748.994 2.61.711 1.922.71 1.786v.274h.285l.426-1.51 1.137-2.885.852-2.06.853-2.197.71-1.786 2.274-5.631 1.563-3.983.569-1.511.426-.412 2.7-.138h4.831l.853.412-.284 1.511-1.564 3.709-2.415 5.906-2.274 5.356-1.137 2.747-.71 1.648-1.137 2.61-1.705 3.983-1.279 3.16-.711 1.785-.71.961-2.132.137h-4.405l-.71-.274-.995-2.06-2.131-5.22-1.706-3.983-1.421-3.57-.852-2.061-1.99-4.67-.71-1.785-2.132-5.22-1.278-3.021-.427-1.1.284-.686.285-.137 2.415-.138ZM274.099 17.328h2.558l4.405.137.711.55.142.274v6.319l-.284.686-.143.138-2.415.137h-12.079v5.082h7.674l2.984.137.284.137v6.868l-.142.275-.426.137h-10.516v12.224l-.284.687-.284.137-2.558.137h-4.263l-.711-.274-.284-.824V18.427l.284-.687.569-.275 14.778-.137ZM305.077 17.328h16.768l3.268.137.711.412.142.412v6.319l-.284.824-.569.137h-8.952l.142.687V39.99l-.142 10.851-.568.412-1.422.137h-5.968l-.426-.137-.142-.275-.142-2.197V25.706l-8.81-.137-.853-.275-.284-.686v-6.181l.426-.687.568-.275 6.537-.137Z"/><path fill="#F96809" d="M242.553 19.938h3.837l1.989.412 2.274 1.098 1.421 1.1 1.563 1.922.995 2.198.284 1.099V30.1l-.711 2.335-.568 1.1-1.705 1.785-2.416 2.335-1.563 1.236-1.99 1.51-1.847 1.649-1.421 1.099-.142.274 11.084.824.568.275h-.142l-.426 4.67.284.824-.568-.275-14.352 1.511-.427-.412-.142-6.043-.568-1.236-.427-.687-.852-.55-1.848-.549.569-.55 1.137-.96 2.273-1.786 1.848-1.648 1.705-1.511 1.989-1.648 1.421-1.237.284-.274 1.279-1.236.427-1.1v-1.235l-.569-1.1-.994-.823-.995-.275h-1.421l-1.137.412-.853.962-.852 1.648-.142.137h-6.821l-.142-.961.426-1.649.568-.961 3.979-4.807 1.99-.824 1.847-.412Z"/><path fill="#fff" d="M286.746 17.465h5.542l1.421.275.284.137.142.412v32.552l-.568.412-1.847.137h-5.542l-.569-.137-.142-.275-.142-2.472V27.492l.142-9.615 1.279-.412ZM242.411 43.424h11.51l.995.412.142.275v6.18l-.284.687-.427.275h-15.489l-.426-.412v-6.043l3.979-1.374ZM274.099 17.328h2.558l4.121.137-.142.412h-.284v.275l-.853.275-.995.137-4.405.137h-9.663l-2.273-.137-2.558-.275-.71-.274.426-.55 14.778-.137ZM215.27 17.465h19.61l-.143.687-.568.275-.995.137-5.542.137h-8.384l-3.41-.274-1.137-.412.142-.412.427-.138Z"/><path fill="#fff" d="M286.746 17.465h5.542l1.421.275.284.137.142.412v32.552h-.142V18.839h-.426v-.275h-2.132l-3.552-.137h-1.563l-.284-.138v.275h-.285l-.142-.687.427-.274.71-.138ZM106.705 17.465h5.542l-.142.687-.995.275-5.257.412-.427-.137.142-.687.142-.412.995-.138ZM178.324 17.603h6.252v.55l-.995.274-3.694.412h-.995l-.71-.412.142-.824ZM204.186 17.603h7.247l-.142.412-.711.274-2.131.138h-4.689l.142-.55.284-.274ZM307.777 42.05l.284.138.284 6.73.142 1.786.285.137-.142.412h-.853v-9.202ZM133.988 17.603h5.827l-.285.274-1.563.413-2.415.137-1.279-.137-.427-.275.142-.412ZM306.356 17.465h8.242v.275l-1.421.138h-5.684l-.142-.138-.995-.137v-.138ZM235.732 43.562l.569.137.568.275.142.274v2.335l-.284-.412-.853-1.51-.426-.413-1.137-.274-.142-.275 1.563-.137ZM323.692 17.465h1.421l.711.412v1.649l-.427-.138v-.412l-.71-.274-.426-.275-.427-.687-.142-.275ZM238.858 49.056l.853 1.236.142.961h-.852l-.427-.412v-1.373l.284-.413ZM301.098 17.465h4.69l-.285.275-3.268.138h-.568v-.275l-.569-.138ZM243.832 43.699h3.268v.138l-1.421.137-.426.275h-1.137l-.71-.137v-.276l.426-.137ZM160.987 17.603h2.132l-.568.55-1.706-.138-.426-.275.568-.137ZM298.256 17.603h.995l-.284.55-.427.274-.71-.137.142-.55.284-.137ZM315.877 49.88l.284.137v.824l-.711.412-.142-.275.142-.412h.285l.142-.686ZM211.575 18.015l.711.412-.142.961-.569-.412v-.961ZM39.389.896h1.48l.855.166 1.025.441.969.552 1.025.606 3.075 1.82.912.551.854.497 1.31.772.74.44 1.14.663 1.48.882 3.19 1.875 1.196.717 1.595.937.74.441 1.254.717.91.551-.227.056h-.57l-1.31.165-.683.22-.74.332-1.026.551-.626.496-.513.441-.057.11h-.114l-.114.221-.455.607-.399.607-.342.661-.227.552-.171.055-.684-.441-1.082-.717-1.025-.717-.627-.386-1.025-.717-.968-.662-1.026-.717-.512-.33-.911-.662-1.026-.717-1.936-1.324-.798-.496-.683-.386-.911-.33-.513-.111h-1.367l-1.025.22-1.196.387-1.196.496-.912.441-1.31.607-1.082.551-1.538.772-.854.386-.228.055-13.157.055-.512.056-.513.33-.228.441v.772l.17.331.343.276.398.166.74.055H27.6l.854.055.057.055v.662l1.082-.386 3.076-1.324 1.082-.496 1.082-.552 1.937-.882 1.367-.606 1.196-.441.854-.276.74-.166h.456l.74.22 1.026.607.911.607 2.05 1.434 1.937 1.323 3.076 2.15 1.993 1.324.855.607.854.551.912.607.74.551.456.386.17.442.228 1.709.342 1.379.513 1.71.512 1.488.627 1.434.683 1.158.74 1.213.741 1.158.855 1.213h.17l.4-.441.683-.662.398-.44.855-.883.512-.497.399-.44.854-.883.798-.827.398-.441 1.14-1.269.056-.386.057-1.544.057-.606.74-.552.798-.606 1.196-.883.74-.551 1.026-.772.74-.496.684-.331.228-.055h.512l.627.165.513.276.455.441.342.662.057.33v.497l-.171.496-.399.607-.512.551-.456.552-.513.606-.57.717-.626.717-.512.607-.798.937-.512.607-.684.772-.626.772-.627.716-.74.938-.74.882-.627.772-1.481 1.765-.74.937-1.14 1.379-.57.717-.626.772-.512.607-.627.661-.627.386-.398.11h-.627l-.512-.165-.57-.386-.456-.441-.512-.607-.627-.661-.512-.607-.684-.717-.512-.606-.57-.607-.513-.607-.57-.661-.512-.607-.74-.772-.171-.22-.399.055-.854.33-2.62.938-1.709.606-1.652.552-1.196.441-.797.165-.342-.055-.854-.275-1.595-.662-1.709-.662-1.651-.606-1.083-.276-.626-.166-.513-.055-5.468.056H17.005l-.456.165-.512.33-.285.442-.057.165v.662l.228.496.057.22H7.835l-.057-.11v-4.025l.057-12.463.17-.827.456-.992.57-.717.512-.441 1.026-.662 1.595-.937 1.367-.828 1.594-.937.968-.607.969-.551 1.424-.827 1.253-.717 2.164-1.324 1.424-.827 1.367-.827.854-.496 1.083-.662 1.196-.717 1.139-.662 1.082-.661 2.677-1.6 1.025-.606 2.734-1.654.74-.441.798-.387 1.025-.33.342-.056Zm1.196 17.04-1.652.33-2.05.442-2.222.496-1.253.22-.968.221-1.139.221-1.424.33-.683.166-.4.442-.455.661-.455.552-.342.22-.684.276-2.392 1.048-.797.33-.342.276-.17.331-1.425.055h-3.588l-.797.055-.456.166-.342.276-.228.44v.552l.228.441.399.386.456.166 19.935.055h6.948l.684-.055.512-.276.285-.33.114-.387v-.496l-.228-.552-.399-.33-.455-.11-10.822.055h-6.151l-.171-.056.57-.275.455-.276.627-.386.455-.386.57-.772.17-.331 3.93-.772 3.133-.607 2.335-.496h.513l.57.331.854.551.854.497.912.496 1.139.607.854.44.513.166.285-.11.056-.166-.455-.551-.456-.386-1.253-1.213-.456-.386-.91-.883-.456-.386-.513-.496-.456-.386-.398-.386-.114-.055h-.399Zm-11.733 11.8-.456.111-.57.331-.227.386-.057.386.114.496.285.441.455.386.285.056h11.62l.512-.11.342-.221.341-.331.114-.33v-.663l-.285-.496-.398-.33-.228-.111H28.852Z"/><path fill="#fff" d="m72.007 35.068.114.055v3.352l-.057 14.286-.229.88-.229.604-.343.604-.63.715-.973.714-1.374.824-.974.605-1.373.824-1.489.88-1.03.604-.916.55-1.202.713-1.374.825-2.69 1.593-1.088.66-1.031.604-1.088.66-1.202.714-.973.604-1.088.66-.343.164-.4.055-7.271.055H29.358l-.859-.604-.457-.275-.688-.77-.744-.549-1.374-.824-1.66-.934-1.374-.824L21 62.377l-.973-.55-.229-.164.057-.165 1.66-.77 1.088-.494.572-.274 1.203-.55 1.087-.55 1.431-.714.745-.44.858-.494.172-.11 11.163-.055.344-.164.744-.605.744-.66.458-.384.4-.44h-9.388l.058-.164 1.316-.77.916-.55 1.03-.604.86-.55.8-.439.459-.22h8.014l.458-.33.687-.659v-.164l-1.316-.275-2.347-.495-2.691-.55-1.89-.439-1.201-.384-.974-.44-1.087-.66-.63-.494-.916-.88-.744-.988-.573-1.044-.458-1.319-.343-1.374-.057-.33V38.97l.114-1.099.115-.165 3.377-.11.802-.11h1.316l1.203.33 1.488.55 2.118.824 2.06.824 2.233.934 2.462 1.044 1.89.825 1.488.604 1.316.55 3.092 1.318.572.33.687.604.572.66.459.77.343.878.229 1.1v1.318l-.23.934-.228.605-.458.659-.458.495-.916.604-1.89.88-1.201.494-1.145.494-2.576 1.1-3.435 1.483-1.317.55-.458.22-1.145.494-.915.384-3.264 1.429-.801.385-1.317.604v.11l.859.44.916.494.343.11.401-.055.515-.22 1.145-.494.802-.33.458-.22 3.091-1.319 1.431-.604 2.29-.99 1.431-.603 1.775-.77.572-.22.63-.274 1.832-.77.572-.22.687-.33 1.088-.494.687-.44.687-.604.572-.66.458-.768.401-.88.23-.989.114-.824v-1.264l-.172-1.154-.23-.824-.4-.989-.572-.934-.401-.495-.23-.274.058-.11.573.11h1.202l.572-.11.802-.33.687-.495.63-.604 1.03-1.209.801-.989.458-.604.63-.77.687-.769.458-.604.63-.77 1.202-1.483.63-.715.286-.384Z"/><path fill="#fff" d="M41.233 11.831h.46l.749.222 1.036.608.921.608 2.073 1.439 1.958 1.327 3.109 2.157 2.015 1.328.864.608.863.553.922.609.748.553.46.387.173.443.23 1.714.346 1.383.518 1.715.519 1.493.633 1.439.69 1.161.75 1.217.748 1.162.864 1.216h.172l.403-.442.691-.664.403-.442.864-.885.518-.498.403-.443.864-.885.057-.11h.115l.116-.221.518-.498.403-.443.518-.498.288-.331h.115l.23-.443.058-.387.058-1.549.057-.608.749-.554.806-.608 1.209-.885.748-.553 1.037-.775.748-.497.691-.332.23-.056h.519l.633.166.518.277.46.442.346.664.058.332v.498l-.173.498-.403.608-.518.553-.46.553-.519.609-.576.719-.633.719-.518.608-.806.94-.519.61-.69.774-.634.774-.633.72-.749.94-.748.884-.634.775-1.497 1.77-.748.94-1.151 1.383-.576.72-.634.773-.518.609-.633.664-.633.387-.404.11h-.633l-.518-.166-.576-.387-.46-.442-.519-.609-.633-.663-.518-.609-.691-.719-.518-.608-.576-.609-.518-.608-.576-.664-.518-.608-.749-.775-.172-.221-.403.055-.864.332-2.649.94-1.727.609-1.67.553-1.209.442-.806.166-.345-.055-.864-.276-1.612-.664-1.727-.664-1.67-.608-1.094-.277-.633-.166-.519-.055-.115-.11.346-.499.748-.83.921-.94.403-.498.116-.055 1.67-.055.517-.11.346-.222.288-.276.115-.332v-.664l-.288-.498-.46-.332-.116-.055-.979-.055v-.056l.691-.055.346-.166.518-.608.518-.554.634-.663.46-.554.403-.055h1.037l.69-.055.519-.277.23-.276.115-.388v-.497l-.23-.553-.346-.277-.46-.11-10.94.055H27.99l-.23-.111.46-.332.634-.276.633-.388.403-.331.576-.775.172-.332.288-.11 6.91-1.328 2.36-.498h.518l.576.332.864.553.863.498.922.498 1.151.608.864.443.518.166.288-.11-.115-.277-.288-.277v-.11l-.23-.111-1.497-1.438-.46-.387-.922-.885-.46-.388-.519-.497-.46-.388-.404-.387-.115-.055h-.403l-1.67.332-2.072.442-2.246.498-1.267.221-.978.222-1.152.22-1.44.333-.69.165-.346.388-.46.664-.46.553-.289.22-.921.388-1.036.443-1.267.553-.806.332-.288.22h-.69l-.807-.11-.633-.387-.403-.387-.346-.553-.115-.387v-.72l.23-.553.518-.442 1.555-.775 1.382-.663 3.051-1.55 1.037-.552.403-.221v.165l1.094-.387 3.109-1.327 1.094-.498 1.094-.553 1.957-.885 1.382-.609 1.21-.442.863-.277.749-.166ZM8.189 40.535h23.428l.114.166.057 1.495.17.942.342 1.107.284.665.512.941.569.776.682.775.74.664.91.665 1.023.554.455.332-.228.277-.853.554-1.25.775-2.332 1.384-1.592.942-.967.553-1.365.776-1.137.609-1.308.72-1.536.775-1.308.61-1.82.885-1.08.554-1.308.61-.91.442-1.535.775-1.308.61-1.08.553-1.65.776-1.25.609-2.616 1.218-.91.443-1.877.886-1.592.72L0 68.556l8.814-7.587-1.421.056h-.74l-.511-.222-.342-.388-.17-.387v-.443l.17-.443.342-.388.682-.332.227-.056 5.005-.055.113-.221.626-.499.398-.388.455-.387.569-.498.682-.61.17-.055.057-.166.455-.388.91-.83.626-.499.568-.554.455-.387.569-.554 8.245-.055.399-.166.398-.333.17-.553-.057-.554-.284-.499-.569-.221-.398-.055-9.212-.056-.853.056-.455.221-.227.277-.114.277-.057.553.17.554.342.443v.166l-1.308.056H9.042l-.398-.056-.285-.498-.113-.665-.057-3.488v-7.144Zm3.298 3.212-.057.055v2.935h16.776l.739-.055.455-.221.398-.444.17-.498-.056-.554-.285-.553-.341-.388-.455-.222-.284-.055h-17.06Z"/><path fill="#C84907" d="m72.008 35.068.113.055v3.352l-.056 14.286-.227.88-.227.604-.34.604-.623.715-.964.714-1.36.824-.964.605-1.36.824-1.474.88-1.02.604-.907.55-1.19.713-1.36.825-2.664 1.593-1.077.66-1.02.604-1.077.66-1.19.714-.964.604-1.076.66-.34.164-.397.055-7.198.055H29.783l-.793-.55.227-.219 1.36-.55 1.133-.494 1.587-.714 1.53-.66.907-.44 3.004-1.373.227-.055 1.304.714.68.33.397.055.623-.22.567-.275 1.133-.494 1.474-.66.907-.384 1.7-.715 4.534-1.978.907-.384 1.134-.495.566-.22.624-.274 1.813-.77.567-.22.68-.33 1.077-.494.68-.44.68-.604.567-.66.454-.768.396-.88.227-.989.114-.824v-1.264l-.17-1.154-.227-.824-.397-.989-.567-.934-.396-.495-.227-.274.056-.11.567.11h1.19l.567-.11.794-.33.68-.495.623-.604 1.02-1.209.794-.989.453-.604.624-.77.68-.769.453-.604.624-.77 1.19-1.483.623-.715.284-.384ZM24.69 16.615h3.187l.854.055.056.054v.489l-.512.326-1.366.706-1.821.924-2.22 1.086-1.139.543-.569.38-.227.272-.171.435v.706l.227.598.399.488.57.435.455.163 1.195.109-.114.325-.057.055-1.423.054h-3.586l-.797.054-.455.163-.285.218-.227.434v.544l.227.434.456.38.341.11 19.922.053h3.757l1.764.055-.341.489-.512.489-.399.434-.683.76-.228.272-.284.109-.683.054-10.872.055-.455.108-.513.272-.227.38-.057.38.114.49.284.434.399.326.284.054 9.961.054-.341.38-.399.435-.797.815-.683.76-.284.435-.512.055-4.839.054H17.29l-.456.163-.512.326-.284.434-.058.163v.652l.228.49.057.216h-4.952V26.828l.057-4.509.285-.869.398-.598.57-.434 1.08-.652 1.196-.706.91-.543 1.31-.815.968-.598.569-.326.057-.108 5.976-.055Z"/><path fill="#B1B1B1" d="M37.124 37.118h1.326l1.21.338 1.498.563 2.132.845 2.075.845 2.247.958 2.478 1.07 1.901.845 1.499.62 1.325.563 3.112 1.351.576.338.692.62.576.676.46.788.347.902.23 1.126v.845l-17.172 7.21 1.095-.958.403-.338 1.383-1.126.98-.789.864-.732 1.268-.957.46-.338.577-.451.576-.45.807-.62.576-.45.346-.282.634-.507-.173-.113-.98-.394-.518-.17-1.153-.45-1.094-.394-.52-.226-.575-.168-.404-.17-.634-.168-.922-.395-.518-.169-.634-.225-1.614-.563-.518-.226-.865-.281-1.383-.507-1.613-.676-.692-.45-.633-.508-.634-.788-.404-.563-.691-1.296-.23-.45-.462-1.127-.345-1.127-.173-.507-.346-.112-.23-.113 1.67-.056.807-.113Z"/><path fill="#fff" d="M75.966 21.4h.516l.63.167.514.278.458.446.344.67.057.334v.502l-.172.502-.4.613-.516.557-.458.558-.515.613-.572.725-.63.725-.515.613-.801.948-.515.613-.687.78-.63.781-.63.725-.744.948-.744.892-.63.78-1.488 1.784-.744.948-1.144 1.394-.573.725-.63.78-.515.614-.63.669-.629.39-.4.112h-.63l-.515-.168-.573-.39-.458-.446-.515-.613-.63-.67-.515-.613-.687-.724-.515-.614-.572-.613-.515-.613-.573-.67-.515-.613-.744-.78-.172-.223.058-.167.458-.335.973-.892.458-.39.915-.892.516-.614.572-.724.572-.837.458-.724.115.111.4.948.687 1.17.744 1.227.745 1.171.858 1.227h.172l.4-.446.687-.67.401-.446.859-.892.515-.501.4-.446.859-.892.057-.112h.115l.114-.223.515-.502.401-.446.515-.502.286-.334h.115l.229-.446.057-.39.057-1.561.057-.614.745-.557.801-.614 1.202-.892.744-.557 1.03-.78.745-.502.686-.335.23-.056Z"/><path fill="#F96708" d="M40.074 4.314h1.032l.688.164.688.329 1.032.602 1.089.658 1.261.712 1.376.821 1.147.658.745.438 1.204.712 1.032.603.86.493.745.438 1.319.767.802.493.516.274 1.032.602 1.147.658 1.376.821.229.22-.803.547-.63.548-.058.11h-.114l-.115.219-.459.602-.4.603-.345.657-.23.548-.171.055-.688-.439-1.09-.712-1.031-.712-.631-.383-1.032-.713-.974-.657-1.032-.712-.516-.329-.918-.657-1.032-.712-1.949-1.315-.803-.493-.688-.383-.917-.329-.516-.11h-1.376l-1.032.22-1.203.383-1.204.493-.918.438-1.318.603-1.09.548-1.547.767-.86.383-.23.055h-8.14l.286-.274 1.204-.657.745-.439 1.147-.657 1.95-1.15 1.318-.767.745-.438 1.605-.932 1.09-.657 2.407-1.424.746-.438 2.35-1.37.574-.274.573-.11Z"/><path fill="#F9690B" d="M7.778 40.535h23.924l.116.163v.597l-.232.055-.697.597-1.22 1.14-.464.38-.348.271H11.146l-.058 2.878.464-.054h4.007l8.652.054v.108l-.464.38-1.51 1.412-.465.38-.696.597.464.054v.055h-4.355l-.871.054-.465.217-.232.272-.116.271-.058.543.174.543.348.434v.163l-1.335.055H8.649l-.407-.055-.29-.488-.116-.652-.058-3.42v-7.004Z"/><path fill="#fff" d="m72.006 35.068.115.055v3.357l-.057 14.311-.23.88-.23.606-.345.606-.632.715-.976.716-1.379.825-.977.606-1.378.825-1.494.881-1.034.605-.92.55-1.206.716-1.379.826-2.7 1.596-1.091.66-1.034.606-1.092.66-1.206.716-.977.606-1.091.66-.345.165-.402.055h-5.4l.057-.165.747-.495.976-.606 1.034-.605 2.356-1.431.804-.496 1.207-.715 1.264-.77 1.32-.771.977-.606 1.207-.715 1.379-.826.804-.495 1.379-.826 1.206-.715 1.264-.77 1.609-.937 1.264-.77 1.091-.66.92-.551.516-.385.402-.386.288-.55.172-.77.058-12.88.402-.55.632-.771 1.206-1.486.632-.716.287-.385Z"/><path fill="#C84907" d="M28.879 56.937h11.424l-.351.401-.703.573h-.118v.115l-.644.515-.879.745-.761.63-.586.458-.528.458-.644.515-.703.63-.527.401-1.524 1.26-.761.573-.645.573-.937.687-.82.687-.645.515-.351.401-.586-.4-.059-.23-.761-.572-1.406-.86-1.7-.973-1.405-.86-1.23-.744-.997-.572-.234-.172.059-.172 1.698-.802 1.114-.515.585-.286 1.23-.573 1.114-.573 1.465-.744.761-.459.879-.515.176-.115Z"/><path fill="#fff" d="M62.373 15.932h1.168l.667.108.835.27.89.54.667.595.389.433.445.757.39 1.135.055.216V21.5l-.5 1.405-.446.703-.667.703-.334.27-.611.378-1.001.433-.723.108h-1.335l-.668-.108-1.112-.487-.611-.378-.668-.595-.556-.757-.334-.648-.278-.811-.055-.324v-1.19l.222-.865.334-.864.5-.811.668-.649.611-.432.668-.325 1.056-.27.334-.054Z"/><path fill="#F96808" d="M7.778 40.535h23.924l.116.168v.616l-.232.056-.697.617-1.22 1.176-.464.392-.348.28H11.146l-.058.056-.987.056H7.778v-3.417Z"/><path fill="#6E7274" d="M36.878 37.118h1.342l1.226.339 1.517.564 2.16.846 2.101.847 2.276.96 2.51 1.071 1.926.847 1.518.62 1.342.565 3.152 1.354.584.339.7.62.584.678.467.79.35.903.175.733v.226l-.876-.282-.583-.282-.7-.283-1.752-.733-1.575-.677-.876-.339-.467-.226-.584-.225-.992-.395-.467-.226-2.218-.903-1.225-.508-1.751-.733-.934-.395-1.226-.508-.759-.282-.875-.395-1.05-.395-.876-.396-1.518-.62-.642-.282-.7-.339-.584-.395-.35-.395-.467-.846-.35-.903v-.17h-.35v-.056l.817-.113Z"/><path fill="#6F7274" d="M41.257 11.831h.463l.752.223 1.042.613.926.613 2.083 1.45 1.967 1.337 3.125 2.173 2.025 1.338.868.613.868.557.926.613.752.557.463.39.173.446.232 1.728.058.334-.405-.055-1.158-.725-.867-.557-.753-.557-1.1-.78-.751-.558-.81-.557-.58-.446-1.388-1.003-.578-.39v-.112l-.29-.111-.868-.669-.52-.39-1.447-1.115-.405-.278V16.4l-.29-.111-.752-.558-.115-.055v-.112l-.29-.111-.926-.725-.578-.446-.348-.167h-.925l-.926.112-1.215.334-1.158.335-1.041.334-2.373.78-1.678.613-.983.335-2.894 1.114-.23-.056-.175-.613-.173-.501.868-.335 3.009-1.281 1.1-.502 1.099-.557 1.967-.892 1.389-.613 1.215-.446.868-.278.752-.168Z"/><path fill="#F96808" d="m68.484 39.168.102.214V41.2l-.051 3.154v2.46l.05.481v3.422L68.434 52l-.205.535-.358.48-.409.375-.766.535-.563.374-.562.32-.409.268h-.358v-.428l.103-.32-.154-.535-.153-1.016V49.22l-.051-1.016v-1.497l-.102-2.032-.103-.374.256-.267.409-.375.358-.374.92-1.176.715-.962.41-.589.561-.748.512-.642Z"/><path fill="#C94907" d="M40.494 20.032h.514l.572.35.857.584.857.525.915.525 1.143.642.857.466.458.175v.175h-.115l-.057.176-.228.058-.115.233-.4.35-.057.117h-.114l-.115.292-10.917.058-6.973.058 1.143-.583.915-.583.685-.7.458-.934 7.373-1.458 1.83-.409.514-.117Z"/><path fill="#C84907" d="M40.632 6.364h.507l.168.172.844.344.787.46.563.401.675.402.562.402.394.287.394.23.168.171.282.115.562.402.338.23.562.344.956.688.281.287.113.287-.169.172H48l-.112.058.056.114-.281-.057-.506-.172-.731-.058-.282-.172-.675-.172-.112-.115-.112.058-.282-.115-.225-.057-1.237-.746-.9-.345-.506-.115h-1.35l-1.012.23-1.182.402-1.18.516-.9.46-1.294.63-1.069.575-1.518.803-.563.287-.506.057-.113.058h-1.237l-.787-.115-.394.057.337-.402.731-.516.507-.287.393-.287.338-.115v-.114l.45-.23.169-.115h.168v-.114l.619-.345.281-.172.619-.402.45-.287.506-.287.45-.287.506-.344.619-.344.506-.287 1.069-.746.9-.574.787-.516.394-.23.45-.287.393-.057v-.115Z"/><path fill="#F9690A" d="M38.71 51.47h7.322l.635.056-.346.392-.634.56-.635.505-.692.616-.634.504-.865.728-.173.056-9.456-.056.058-.168 1.326-.784.923-.56 1.038-.617.864-.56.808-.448.46-.224Z"/><path fill="#fff" d="M10.216 43.952h1.036l.061 2.77v2.45l-.06 2.981h-2.56l-.428-.053-.304-.48-.122-.638-.061-3.355v-3.621l2.438-.054Z"/><path fill="#C94A07" d="m53.043 37.801.284.055.397.438.51.601.568.601.454.547.568.602.51.601.511.547.51.601.625.766v.109l-.34-.11-.455-.218-2.099-.875-3.12-1.312-1.76-.71-1.021-.438-.397-.164v-.11l1.135-.437 1.645-.601 1.248-.438.227-.055Z"/><path fill="#F9690A" d="m67.172 26.867-.056.937-.726.789-.725.69-.391.395-.614.592-.391.394-.614.592-.39.395-.28-.247-.446-.641-.782-1.233-.502-.79-.447-.887v-.148l.614.099 1.228.148h1.117l1.004-.148.67-.197 1.06-.444.67-.296Z"/><path fill="#fff" d="M27.854 46.686h.429v.049l-.59.146-.107.196-.589.927-.375.586-.267.488-.054.342h-4.607l-.482-.05.322-.34.428-.343.857-.732 1.232-1.122h.107v-.098l3.696-.049ZM7.016 58l5.004-.38-3.263 3.418H6.636l-.49-.253-.326-.443-.163-.443v-.506l.163-.507.326-.443.653-.38.217-.063ZM70.05 17.982l.542.403.395.403.542.806.444 1.093.148.978-.148.288-.493.403-.839.633-.493.403-.148.058.099-.288.296-1.209.098-.748v-.748l-.148-1.094-.296-1.208v-.173Z"/><path fill="#FA690A" d="M71.168 63.088h.615l.43.178.37.298.245.475v.713l-.184.416-.37.416-.552.238h-.677l-.492-.238-.368-.416-.185-.535v-.416l.246-.594.43-.356.492-.179ZM9.592 4.314h.737l.492.178.308.356.184.476v.654l-.246.534-.43.357-.43.178h-.615L9.1 6.81l-.43-.476-.185-.416v-.594l.246-.476.43-.356.43-.178Z"/><path fill="#FA6A0B" d="m71.264 6.364.541.06.482.237.42.475.121.357v.475l-.3.595-.422.356-.421.179h-.722l-.421-.238-.301-.357-.18-.356L70 7.612l.18-.535.241-.357.421-.237.422-.12Z"/><path fill="#FA690A" d="m20.099 36.435.424.097.371.244.212.293.106.342-.053.44-.212.292-.318.244-.265.098h-.425l-.37-.098-.372-.341-.106-.245v-.585l.265-.39.371-.294.372-.097Z"/><path fill="#fff" d="m68.835 46.686.167.11.166.888.582.775.167.166.083.333v1.108l-.25.554-.25.5-.082.11.25.055-.084.222-.166-.055-.084.387-.499.943-.25.055v-.776l.084-.277.083-4.987.083-.111ZM39.313 32.334l.283.061v.305l-.51.61h-.112v.122h-.113v.122h-.113l-.057.245.056.122-.226.427-.226.122-.283.549-.056.244h.282v.488l-.396-.06-.452-.123-.51-.06-.112-.123.34-.55.734-.914.906-1.038.565-.549ZM49.904 64.455l.298.058-.298.29-.298.173-.178.29-.834.405-.416.174-.417.29-.06.116-.238.115h-.179v.116h-.119l-.119.29-.417.405-.119.058-.238.406-.357.173-.357.058h-1.013l.298-.29 1.548-.984 1.072-.637 1.131-.695 1.31-.81ZM8.06 24.816l.283.055v.933l.142.219v6.307l-.283.768.141.493h-.282v.11h-.283V25.42l.141-.549.142-.055ZM70.979 49.42l.272.054.163.863v.701l-.054.27-.218.162-.272-.054-.217-.378-.163.162-.055.162-.38-.108-.055-.216.054-.593.218-.324.272.162.054.054.055-.054-.163-.162.163-.108.217-.485.109-.108ZM42.95 27.55h.181l-.06.373-.485.606-.182.233-.182.28-.182.232-.545.326-.485-.046.06-.373.789-.699.909-.745.181-.187ZM57.103 35.068l.17.052v.474l-.17.315-.056.263-.396.578.056.21-.226.158-.226-.053-.396-.473.113-.315.34-.473.339-.42.282-.159.17-.157ZM60.49 58.304l.318.056-.254.223-.254.056v.167l-1.078.447h-.19l-.064.279-.38.167-.699.335-.507.279-.381.055v.112l-.952.558h-.19l.127-.223.317-.28 1.142-.613 1.396-.78 1.206-.67.444-.168ZM62.677 56.937l.252.048-.1.047-.051.188h-.152l-.1.189-.203.141-.252.094-.05.095-.253.094-.101.141-.505.142-.253.188-.1-.047.1-.188.253-.236.808-.471.707-.425ZM70 17.982l.778.368.353.316.071.157.141.053.071.263-.07.105h-.142l-.07.105-.708-.21-.424-1v-.157ZM53.673 62.405l.064.124h-.192l-.129.31-.643.436-.707.372-.45.125.257-.373 1.157-.684.386-.248.257-.062ZM31.667 41.219l.151.04v.643l-.353-.12h-.303l-.05-.081.15-.201h.102l.05-.12.253-.161ZM64.937 55.57h.114l-.057.171-.34.043-.113.171-.396.214-.226.085h-.283l.057-.17 1.018-.47.226-.043ZM21.212 22.766l.253.049.303.146.151.342-.1.146-.253-.097-.354-.39v-.196ZM9.192 43.952h2.121v.684l-.517-.513H9.76l-.57-.085v-.086Z"/><path fill="#fff" d="M56.33 60.355h.189l.047.186-.566.497h-.141l.094-.248.236-.311.141-.124ZM70 17.982l.648.368.06.105-.413.158-.118.053L70 18.14v-.158ZM65.58 54.887h.119l.059.205-.53.41-.177.069.058-.41.236-.206.236-.068ZM15.273 14.565h.141l.142.273h-.142v.205l-.424.205-.142-.136.213-.41.212-.137ZM55.01 61.721h.142l-.142.456-.353.228-.212-.076V62.1l.565-.38ZM63.508 56.254h.128l-.128.39-.129.294h-.45l.257-.391.322-.293ZM72.033 35.068h.088v.38l-.707.303.177-.303.442-.38ZM45.758 67.189l.202.068-.708.41-.505.205-.202-.068 1.212-.615Z"/><path fill="#6F7274" d="m57.98 33.473 1.038-2.734 3.345 5.582 6.459-6.948.115-.342 5.305-4.215-10.61 13.669h-2.077l-3.575-5.012Z"/><path fill="#B1B1B1" d="m57.98 32.876.91-2.545 3.411 5.196 6.483-6.787 5.458-3.924-11.258 12.302h-1.365l-3.64-4.242ZM18.253 52.26 5.657 63.089l4.766-1.822 13.164-8.255.454-.858-5.788.108Z"/></svg>