<svg xmlns="http://www.w3.org/2000/svg" width="221" height="222" fill="none" viewBox="0 0 221 222"><path fill="#fff" d="M106.575 0h3.695l2.131.426 2.558 1.137 2.416 1.421 2.558 1.563 7.673 4.69 2.274 1.42 2.131 1.28 3.268 1.989 1.848 1.137 2.842 1.705 3.694 2.273 7.958 4.832 2.984 1.847 3.979 2.416 1.847 1.137 3.126 1.847 2.274 1.42-.568.143h-1.421l-3.269.426-1.705.569-1.847.852-2.558 1.421-1.563 1.28-1.279 1.136-.142.284h-.284l-.285.569-1.136 1.563-.995 1.563-.853 1.705-.568 1.421-.426.142-1.706-1.137-2.699-1.847-2.558-1.847-1.563-.995-2.558-1.847-2.416-1.706-2.558-1.847-1.279-.852-2.273-1.706-2.558-1.847-4.831-3.41-1.99-1.28-1.705-.994-2.274-.852-1.278-.285h-3.411l-2.558.569-2.984.994-2.984 1.28-2.273 1.136-3.269 1.563-2.7 1.421-3.836 1.99-2.132.994-.568.142-32.826.143-1.278.142-1.28.852-.568 1.137v1.99l.427.852.852.71.995.427 1.847.142h23.02l2.132.142.142.142v1.705l2.7-.994 7.673-3.41 2.7-1.28 2.7-1.42 4.832-2.274 3.41-1.563 2.984-1.137 2.132-.71 1.847-.427h1.137l1.847.568 2.558 1.564 2.273 1.563 5.116 3.694 4.831 3.41 7.674 5.543 4.973 3.41 2.132 1.563 2.131 1.421 2.274 1.563 1.847 1.421 1.137.995.426 1.137.569 4.405.852 3.552 1.279 4.405 1.279 3.837 1.563 3.695 1.705 2.984 1.848 3.126 1.847 2.984 2.132 3.126h.426l.995-1.136 1.705-1.706.994-1.136 2.132-2.274 1.279-1.279.995-1.137 2.131-2.273 1.99-2.132.994-1.137 2.842-3.268.142-.995.142-3.978.143-1.564 1.847-1.42 1.989-1.564 2.984-2.273 1.848-1.421 2.557-1.99 1.848-1.279 1.705-.852.568-.142h1.279l1.563.426 1.279.71 1.137 1.137.853 1.705.142.853v1.279l-.427 1.279-.994 1.563-1.279 1.421-1.137 1.421-1.279 1.563-1.421 1.847-1.563 1.848-1.279 1.563-1.989 2.415-1.279 1.564-1.705 1.989-1.563 1.99-1.564 1.847-1.847 2.415-1.847 2.274-1.563 1.99-3.695 4.547-1.847 2.415-2.842 3.553-1.421 1.847-1.563 1.99-1.279 1.563-1.563 1.705-1.563.995-.995.284h-1.563l-1.279-.427-1.421-.994-1.137-1.137-1.279-1.563-1.563-1.705-1.279-1.563-1.705-1.848-1.279-1.563-1.421-1.563-1.279-1.563-1.421-1.705-1.279-1.563-1.847-1.99-.426-.568-.995.142-2.132.853-6.536 2.415-4.263 1.563-4.121 1.421-2.984 1.137-1.99.426-.852-.142-2.132-.71-3.978-1.705-4.263-1.706-4.121-1.563-2.7-.71-1.563-.426-1.28-.143-13.64.142h-34.39l-1.136.427-1.279.852-.71 1.137-.142.427v1.705l.568 1.279.142.568h-20.32l-.142-.284V84.407l.142-32.114.426-2.132 1.137-2.557 1.42-1.848 1.28-1.136 2.557-1.706 3.98-2.415 3.41-2.132 3.979-2.416 2.415-1.563 2.416-1.42 3.552-2.132 3.127-1.848 5.4-3.41 3.552-2.131 3.41-2.132 2.132-1.279 2.7-1.705 2.984-1.847 2.842-1.706 2.7-1.705 6.678-4.12 2.558-1.564 6.821-4.263 1.847-1.137 1.99-.994 2.558-.853.852-.142Zm2.984 43.909-4.121.853-5.115 1.136-5.542 1.28-3.126.568-2.416.568-2.842.569-3.553.852-1.705.426-.994 1.137-1.137 1.705-1.137 1.421-.853.569-1.705.71-5.968 2.7-1.99.853-.852.71-.426.853-3.553.142h-8.952l-1.99.142-1.136.426-.853.71-.568 1.138v1.42l.568 1.138.995.994 1.136.427 49.736.142h17.336l1.705-.142 1.279-.711.71-.853.285-.994v-1.28l-.569-1.42-.994-.853-1.137-.284-27 .142H77.73l-.426-.142 1.42-.71 1.137-.711 1.564-.995 1.136-.994 1.421-1.99.427-.852 9.805-1.99 7.815-1.563 5.826-1.279h1.279l1.421.853 2.132 1.42 2.131 1.28 2.274 1.279 2.842 1.563 2.131 1.136 1.279.427.711-.284.142-.427-1.137-1.42-1.137-.995-3.126-3.127-1.137-.994-2.274-2.274-1.136-.995-1.279-1.279-1.137-.994-.995-.995-.284-.142h-.995Zm-29.272 30.41-1.137.284-1.421.852-.569.995-.142.995.285 1.279.71 1.136 1.137.995.71.142h28.989l1.279-.284.852-.569.853-.852.284-.853v-1.705l-.71-1.279-.995-.852-.568-.285H80.287Z"/><path fill="#fff" d="m187.714 87.534.285.142v8.668l-.142 36.946-.569 2.274-.568 1.563-.853 1.563-1.563 1.847-2.416 1.847-3.41 2.132-2.416 1.563-3.41 2.132-3.695 2.273-2.558 1.563-2.273 1.421-2.984 1.848-3.411 2.131-6.678 4.121-2.7 1.705-2.558 1.563-2.7 1.705-2.984 1.848-2.416 1.563-2.7 1.705-.852.426-.995.142-18.047.143H81.85l-2.132-1.564-1.137-.71-1.705-1.989-1.847-1.421-3.41-2.132-4.121-2.416-3.41-2.131-2.985-1.847-2.416-1.421-.568-.427.142-.426 4.121-1.989 2.7-1.279 1.42-.711 2.985-1.421 2.7-1.421 3.552-1.847 1.848-1.137 2.131-1.279.427-.284 27.709-.142.853-.426 1.847-1.564 1.847-1.705 1.137-.995.995-1.136H91.228l.143-.427 3.268-1.989 2.273-1.421 2.558-1.563 2.132-1.421 1.989-1.137 1.137-.568h19.894l1.137-.853 1.705-1.705v-.426l-3.268-.711-5.826-1.279-6.679-1.421-4.69-1.137-2.984-.994-2.415-1.137-2.7-1.705-1.563-1.279-2.274-2.274-1.847-2.558-1.421-2.7-1.137-3.41-.853-3.552-.142-.853v-4.405l.284-2.842.285-.427 8.384-.284 1.989-.284h3.268l2.984.853 3.695 1.42 5.258 2.132 5.115 2.132 5.542 2.415 6.111 2.7 4.689 2.132 3.694 1.563 3.269 1.421 7.673 3.41 1.421.853 1.705 1.563 1.421 1.705 1.137 1.99.853 2.273.568 2.842v3.411l-.568 2.415-.569 1.563-1.136 1.706-1.137 1.279-2.274 1.563-4.689 2.273-2.984 1.279-2.842 1.279-6.395 2.842-8.526 3.837-3.268 1.421-1.137.568-2.842 1.279-2.273.995-8.1 3.694-1.99.995-3.268 1.563v.284l2.132 1.137 2.273 1.279.853.284.994-.142 1.279-.568 2.842-1.279 1.99-.853 1.137-.568 7.673-3.41 3.553-1.564 5.684-2.557 3.552-1.563 4.405-1.99 1.421-.568 1.563-.711 4.547-1.989 1.421-.569 1.706-.852 2.7-1.279 1.705-1.137 1.705-1.563 1.421-1.705 1.137-1.99.994-2.273.569-2.558.284-2.132v-3.268l-.426-2.984-.569-2.131-.994-2.558-1.421-2.416-.995-1.279-.568-.71.142-.285 1.421.285h2.984l1.421-.285 1.989-.852 1.705-1.279 1.563-1.563 2.558-3.126 1.99-2.558 1.136-1.563 1.564-1.99 1.705-1.99 1.137-1.562 1.563-1.99 2.984-3.836 1.563-1.848.71-.994Z"/><path fill="#fff" d="M110.838 28.42h1.137l1.847.568 2.558 1.564 2.274 1.563 5.115 3.694 4.832 3.41 7.673 5.543 4.974 3.41 2.131 1.563 2.132 1.421 2.273 1.563 1.848 1.421 1.136.995.427 1.137.568 4.405.853 3.552 1.279 4.405 1.278 3.837 1.564 3.695 1.705 2.984 1.847 3.126 1.847 2.984 2.132 3.126h.426l.995-1.136 1.705-1.706.995-1.136 2.131-2.274 1.279-1.279.995-1.137 2.131-2.273.142-.285h.285l.284-.568 1.279-1.279.994-1.137 1.279-1.279.711-.852h.284l.569-1.137.142-.995.142-3.978.142-1.564 1.847-1.42 1.99-1.564 2.984-2.273 1.847-1.421 2.558-1.99 1.847-1.279 1.705-.852.569-.142h1.279l1.563.426 1.279.71 1.136 1.137.853 1.705.142.853v1.279l-.426 1.279-.995 1.563-1.279 1.421-1.137 1.421-1.279 1.563-1.421 1.847-1.563 1.848-1.279 1.563-1.989 2.415-1.279 1.564-1.705 1.989-1.563 1.99-1.563 1.847-1.848 2.415-1.847 2.274-1.563 1.99-3.695 4.547-1.847 2.415-2.842 3.553-1.421 1.847-1.563 1.99-1.279 1.563-1.563 1.705-1.563.995-.995.284h-1.563l-1.279-.427-1.421-.994-1.137-1.137-1.279-1.563-1.563-1.705-1.279-1.563-1.705-1.848-1.279-1.563-1.421-1.563-1.279-1.563-1.421-1.705-1.278-1.563-1.848-1.99-.426-.568-.995.142-2.131.853-6.537 2.415-4.263 1.563-4.121 1.421-2.984 1.137-1.989.426-.853-.142-2.131-.71-3.979-1.705-4.263-1.706-4.121-1.563-2.7-.71-1.563-.426-1.279-.143-.284-.284.852-1.279 1.848-2.131 2.273-2.416.995-1.279.284-.142 4.121-.142 1.279-.284.853-.569.71-.71.284-.853v-1.705l-.71-1.279-1.137-.852-.284-.142-2.416-.143v-.142l1.705-.142.853-.426 1.279-1.563 1.279-1.421 1.563-1.705 1.137-1.421.994-.142h2.558l1.705-.143 1.279-.71.569-.71.284-.995v-1.28l-.569-1.42-.852-.71-1.137-.285-26.999.142H78.155l-.568-.284 1.137-.853 1.563-.71 1.563-.995.995-.852 1.42-1.99.427-.852.71-.285 17.052-3.41 5.826-1.279h1.279l1.421.853 2.132 1.42 2.131 1.28 2.274 1.279 2.842 1.563 2.131 1.136 1.279.427.711-.285-.284-.71-.711-.71v-.285l-.568-.284-3.695-3.694-1.137-.995-2.273-2.274-1.137-.995-1.279-1.278-1.137-.995-.995-.995-.284-.142h-.994l-4.121.853-5.116 1.136-5.542 1.28-3.126.568-2.416.568-2.842.569-3.552.852-1.705.426-.853.995-1.137 1.705-1.137 1.421-.71.569-2.274.994-2.558 1.137-3.126 1.421-1.99.853-.71.568h-1.705l-1.99-.284-1.562-.995-.995-.994-.853-1.421-.284-.995V53.43l.569-1.421 1.278-1.137 3.837-1.99 3.41-1.705 7.532-3.978 2.558-1.421.994-.569v.426l2.7-.994 7.674-3.41 2.7-1.28 2.7-1.42 4.831-2.274 3.41-1.563 2.984-1.137 2.132-.71 1.847-.427ZM28.136 102.028H86.68l.284.426.142 3.837.427 2.416.852 2.842.71 1.705 1.28 2.416 1.42 1.989 1.706 1.989 1.847 1.706 2.274 1.705 2.558 1.421 1.136.852-.568.711-2.131 1.421-3.127 1.989-5.826 3.553-3.979 2.415-2.415 1.421-3.41 1.99-2.843 1.563-3.268 1.847-3.837 1.99-3.268 1.563-4.547 2.273-2.7 1.421-3.268 1.564-2.274 1.136-3.837 1.99-3.268 1.563-2.7 1.421-4.12 1.989-3.127 1.563-6.537 3.127-2.273 1.136-4.69 2.274-3.978 1.847-11.653 4.832L29.7 154.463l-3.553.142H24.3l-1.279-.568-.852-.995-.427-.995v-1.137l.427-1.136.852-.995 1.706-.853.568-.142 12.505-.142.284-.568 1.563-1.279.995-.995 1.137-.995 1.42-1.278 1.706-1.564.426-.142.142-.426 1.137-.995 2.273-2.131 1.564-1.279 1.42-1.421 1.137-.995 1.421-1.421 20.605-.142.995-.426.994-.853.427-1.421-.142-1.421-.71-1.279-1.422-.568-.995-.142-23.02-.142-2.131.142-1.137.568-.569.711-.284.71-.142 1.421.426 1.421.853 1.137v.426l-3.268.142H30.267l-.994-.142-.71-1.279-.285-1.705-.142-8.952v-18.331Zm8.242 8.242-.142.142v7.531h41.92l1.846-.142 1.137-.568.995-1.137.426-1.279-.142-1.421-.71-1.421-.853-.995-1.137-.568-.71-.142h-42.63Z"/><path fill="#C84907" d="m187.714 87.534.285.142v8.668l-.143 36.946-.568 2.274-.568 1.563-.853 1.563-1.563 1.847-2.416 1.847-3.41 2.132-2.416 1.563-3.41 2.132-3.695 2.273-2.558 1.563-2.273 1.421-2.984 1.848-3.411 2.131-6.678 4.121-2.7 1.705-2.558 1.563-2.7 1.705-2.984 1.848-2.416 1.563-2.7 1.705-.852.426-.995.142-18.047.143H81.85l-1.99-1.421.569-.569 3.41-1.421 2.842-1.279 3.979-1.847 3.837-1.705 2.273-1.137 7.532-3.553.568-.142 3.268 1.848 1.705.852.995.142 1.563-.568 1.421-.711 2.842-1.278 3.695-1.706 2.274-.994 4.263-1.848 11.368-5.115 2.273-.995 2.842-1.279 1.421-.568 1.563-.711 4.547-1.989 1.421-.569 1.706-.852 2.7-1.279 1.705-1.137 1.705-1.563 1.421-1.705 1.137-1.99.994-2.273.569-2.558.284-2.132v-3.268l-.426-2.984-.569-2.131-.994-2.558-1.421-2.416-.995-1.279-.568-.71.142-.285 1.421.285h2.984l1.421-.285 1.989-.852 1.705-1.279 1.563-1.563 2.558-3.126 1.99-2.558 1.136-1.563 1.564-1.99 1.705-1.99 1.137-1.562 1.563-1.99 2.984-3.836 1.563-1.848.71-.994ZM69.63 39.646h7.957l2.131.142.142.142v1.28l-1.278.852-3.411 1.847-4.547 2.416-5.542 2.842-2.842 1.42-1.421.995-.569.71-.426 1.138v1.847l.569 1.563.994 1.279 1.421 1.137 1.137.426 2.984.284-.284.853-.142.142-3.553.142h-8.952l-1.99.142-1.136.427-.71.568-.569 1.137v1.42l.568 1.138 1.137.994.853.284 49.735.143h9.378l4.406.142-.853 1.278-1.279 1.28-.995 1.136-1.705 1.99-.568.71-.711.284-1.705.142-27.141.142-1.137.285-1.279.71-.568.995-.142.995.284 1.279.71 1.136.995.853.71.142 24.868.142-.852.995-.995 1.137-1.99 2.131-1.705 1.99-.71 1.136-1.28.142-12.078.142H51.156l-1.137.427-1.279.852-.71 1.137-.142.427v1.705l.568 1.279.142.568H36.236V66.361l.142-11.795.71-2.273.995-1.563 1.42-1.137 2.7-1.705 2.985-1.847 2.273-1.421 3.269-2.132 2.416-1.563 1.42-.853.143-.284 14.92-.142Z"/><path fill="#B1B1B1" d="M100.607 93.786h3.268l2.984.853 3.695 1.42 5.258 2.132 5.115 2.132 5.542 2.415 6.11 2.7 4.69 2.132 3.694 1.563 3.269 1.421 7.673 3.41 1.421.853 1.705 1.563 1.421 1.705 1.137 1.99.853 2.273.568 2.842v2.132l-42.346 18.189 2.7-2.416.995-.853 3.41-2.842 2.416-1.989 2.131-1.847 3.127-2.416 1.136-.853 1.421-1.137 1.421-1.136 1.99-1.563 1.421-1.137.852-.711 1.564-1.279-.427-.284-2.415-.995-1.279-.426-2.842-1.137-2.7-.994-1.279-.569-1.421-.426-.995-.426-1.563-.427-2.274-.994-1.278-.427-1.564-.568-3.978-1.421-1.279-.568-2.132-.711-3.41-1.279-3.979-1.705-1.705-1.137-1.563-1.279-1.563-1.989-.995-1.421-1.705-3.268-.569-1.137-1.136-2.842-.853-2.842-.426-1.28-.853-.283-.568-.285 4.12-.142 1.99-.284Z"/><path fill="#fff" d="M196.525 53.43h1.278l1.564.426 1.278.71 1.137 1.137.853 1.705.142.853v1.279l-.426 1.279-.995 1.563-1.279 1.421-1.137 1.421-1.279 1.563-1.421 1.847-1.563 1.848-1.279 1.563-1.989 2.415-1.279 1.564-1.705 1.989-1.563 1.99-1.563 1.847-1.848 2.415-1.847 2.274-1.563 1.99-3.695 4.547-1.847 2.415-2.842 3.553-1.421 1.847-1.563 1.99-1.279 1.563-1.563 1.705-1.563.995-.995.284h-1.563l-1.279-.427-1.421-.994-1.137-1.137-1.279-1.563-1.563-1.705-1.279-1.563-1.705-1.848-1.279-1.563-1.421-1.563-1.279-1.563-1.421-1.705-1.279-1.563-1.847-1.99-.426-.568.142-.427 1.137-.852 2.415-2.274 1.137-.994 2.274-2.274 1.279-1.563 1.421-1.847 1.421-2.132 1.137-1.847.284.284.994 2.416 1.706 2.984 1.847 3.126 1.847 2.984 2.132 3.126h.426l.995-1.136 1.705-1.706.995-1.136 2.131-2.274 1.279-1.279.995-1.137 2.131-2.273.142-.285h.285l.284-.568 1.279-1.279.994-1.137 1.279-1.279.711-.852h.284l.568-1.137.142-.995.143-3.978.142-1.564 1.847-1.42 1.989-1.564 2.985-2.273 1.847-1.421 2.558-1.99 1.847-1.279 1.705-.852.569-.142Z"/><path fill="#F96708" d="M107.712 8.384h2.558l1.705.426 1.705.853 2.558 1.563 2.7 1.705 3.126 1.847 3.411 2.132 2.842 1.705 1.847 1.137 2.984 1.847 2.558 1.563 2.131 1.28 1.848 1.136 3.268 1.99 1.989 1.278 1.279.71 2.558 1.564 2.842 1.705 3.41 2.132.569.568-1.99 1.421-1.563 1.421-.142.284h-.284l-.284.569-1.137 1.563-.995 1.563-.852 1.705-.569 1.421-.426.142-1.705-1.137-2.7-1.847-2.558-1.847-1.563-.995-2.558-1.847-2.416-1.706-2.557-1.847-1.279-.852-2.274-1.706-2.558-1.847-4.831-3.41-1.989-1.28-1.706-.994-2.273-.852-1.279-.285h-3.411l-2.557.569-2.984.994-2.985 1.28-2.273 1.136-3.269 1.563-2.7 1.421-3.836 1.99-2.132.994-.568.142H66.219l.71-.71 2.984-1.705 1.848-1.137 2.842-1.705 4.831-2.984 3.268-1.99 1.848-1.137 3.978-2.415 2.7-1.706 5.969-3.694 1.847-1.137 5.826-3.552 1.421-.71 1.421-.285Z"/><path fill="#F9690B" d="M28.136 102.028H86.68l.284.426v1.563l-.568.142-1.705 1.564-2.984 2.984-1.137.994-.853.711h-43.34l-.142 7.531 1.136-.142h9.805l21.173.142v.284l-1.137.995-3.694 3.695-1.137.994-1.705 1.563 1.137.143v.142H51.156l-2.131.142-1.137.568-.569.711-.284.71-.142 1.421.426 1.421.853 1.137v.426l-3.268.142H30.267l-.994-.142-.71-1.279-.285-1.705-.142-8.952v-18.331Z"/><path fill="#fff" d="m187.714 87.534.284.142v8.668l-.142 36.946-.568 2.274-.568 1.563-.853 1.563-1.563 1.847-2.416 1.847-3.41 2.132-2.416 1.563-3.41 2.132-3.695 2.273-2.558 1.563-2.273 1.421-2.984 1.848-3.411 2.131-6.679 4.121-2.699 1.705-2.558 1.563-2.7 1.705-2.984 1.848-2.416 1.563-2.7 1.705-.852.426-.995.142H119.79l.143-.426 1.847-1.279 2.416-1.563 2.557-1.563 5.826-3.695 1.99-1.278 2.984-1.848 3.126-1.989 3.268-1.99 2.416-1.563 2.984-1.847 3.411-2.131 1.989-1.279 3.41-2.132 2.985-1.847 3.126-1.99 3.979-2.415 3.126-1.99 2.7-1.705 2.273-1.421 1.279-.995.995-.994.71-1.421.427-1.99.142-33.251.994-1.421 1.564-1.99 2.984-3.836 1.563-1.848.71-.994Z"/><path fill="#C84907" d="M80.145 144.516h27.709l-.853.995-1.705 1.421h-.284v.284l-1.563 1.279-2.132 1.847-1.847 1.563-1.42 1.137-1.28 1.137-1.563 1.279-1.705 1.563-1.279.994-3.695 3.127-1.847 1.421-1.563 1.421-2.273 1.705-1.99 1.705-1.563 1.279-.853.995-1.42-.995-.143-.568-1.847-1.421-3.41-2.132-4.121-2.416-3.41-2.131-2.985-1.847-2.416-1.421-.568-.427.142-.426 4.121-1.989 2.7-1.279 1.42-.711 2.985-1.421 2.7-1.421 3.552-1.847 1.848-1.137 2.131-1.279.427-.284Z"/><path fill="#fff" d="M163.984 38.083h2.984l1.705.284 2.131.71 2.274 1.422 1.705 1.563.995 1.137 1.137 1.989.994 2.984.143.568v3.98l-1.279 3.694-1.137 1.847-1.705 1.847-.853.71-1.563.996-2.558 1.136-1.847.285h-3.411l-1.705-.285-2.842-1.279-1.563-.994-1.705-1.563-1.421-1.99-.853-1.705-.71-2.131-.142-.853v-3.126l.568-2.274.853-2.273 1.279-2.132 1.705-1.705 1.563-1.137 1.705-.852 2.7-.711.853-.142Z"/><path fill="#F96808" d="M28.136 102.028H86.68l.284.426v1.563l-.568.142-1.705 1.564-2.984 2.984-1.137.994-.853.711h-43.34l-.142.142-2.416.142h-5.684v-8.668Z"/><path fill="#6E7274" d="M100.607 93.786h3.268l2.984.853 3.695 1.42 5.258 2.132 5.115 2.132 5.542 2.415 6.11 2.7 4.69 2.132 3.694 1.563 3.269 1.421 7.673 3.41 1.421.853 1.705 1.563 1.421 1.705 1.137 1.99.853 2.273.426 1.848v.568l-2.131-.711-1.421-.71-1.706-.711-4.263-1.847-3.836-1.705-2.132-.853-1.137-.568-1.421-.568-2.415-.995-1.137-.569-5.4-2.273-2.984-1.279-4.263-1.847-2.274-.995-2.984-1.279-1.847-.71-2.132-.995-2.557-.995-2.132-.995-3.695-1.563-1.563-.71-1.705-.853-1.421-.994-.852-.995-1.137-2.132-.853-2.273v-.427h-.852v-.142l1.989-.284Z"/><path fill="#6F7274" d="M110.838 28.42h1.137l1.847.568 2.558 1.564 2.274 1.563 5.115 3.694 4.832 3.41 7.673 5.543 4.974 3.41 2.131 1.563 2.132 1.421 2.273 1.563 1.847 1.421 1.137.995.427 1.137.568 4.405.142.852-.995-.142-2.842-1.847-2.131-1.421-1.847-1.421-2.7-1.99-1.848-1.42-1.989-1.421-1.421-1.137-3.41-2.558-1.421-.995v-.284l-.711-.284-2.131-1.705-1.279-.995-3.553-2.842-.995-.71v-.285l-.71-.284-1.847-1.42-.285-.143v-.284l-.71-.284-2.274-1.848-1.421-1.136-.852-.427h-2.274l-2.273.284-2.985.853-2.842.853-2.557.852-5.827 1.99-4.12 1.563-2.416.852-7.105 2.842-.569-.142-.426-1.563-.426-1.279 2.131-.852 7.39-3.269 2.7-1.279 2.7-1.42 4.831-2.274 3.41-1.563 2.984-1.137 2.132-.71 1.847-.427Z"/><path fill="#6F7274" d="M110.838 28.42h1.137l1.847.568 2.558 1.564 2.274 1.563 5.115 3.694 4.832 3.41 7.673 5.543 4.974 3.41 2.131 1.563 2.132 1.421 2.273 1.563 1.847 1.421 1.137.995.427 1.137.568 4.405.142.852-.995-.142-2.842-1.847-2.131-1.421-1.847-1.421-2.7-1.99-1.848-1.42-1.989-1.421-1.421-1.137-3.41-2.558-1.421-.995v-.284l-.711-.284-2.131-1.705-1.279-.995-3.553-2.842-.995-.71v-.285l-.71-.284-1.847-1.42-.285-.143v-.284l-.71-.284-2.274-1.848-1.421-1.136-.852-.427h-2.274l-2.273.284-2.985.853-2.842.853-2.557.852-5.827 1.99-4.12 1.563-2.416.852-7.105 2.842-.569-.142-.426-1.563-.426-1.279 2.131-.852 7.39-3.269 2.7-1.279 2.7-1.42 4.831-2.274 3.41-1.563 2.984-1.137 2.132-.71 1.847-.427Z"/><path fill="#F96808" d="m179.473 98.05.284.568v4.831l-.142 8.384v6.536l.142 1.279v9.095l-.427 3.41-.568 1.421-.995 1.279-1.136.995-2.132 1.421-1.563.994-1.563.853-1.137.711h-.995v-1.137l.285-.853-.427-1.421-.426-2.7v-8.952l-.142-2.7v-3.979l-.284-5.4-.285-.994.711-.711 1.137-.994.994-.995 2.558-3.126 1.99-2.558 1.136-1.563 1.564-1.99 1.421-1.705Z"/><path fill="#C94907" d="M108.28 49.735h1.279l1.421.853 2.132 1.42 2.131 1.28 2.274 1.279 2.842 1.563 2.131 1.136 1.137.427v.426h-.284l-.142.426-.569.142-.284.569-.994.852-.143.285h-.284l-.284.71-27.141.142-17.336.142 2.842-1.42 2.273-1.422 1.706-1.705 1.136-2.274 18.331-3.552 4.547-.995 1.279-.284Z"/><path fill="#C84907" d="M109.417 14.494h1.279l.426.427 2.132.852 1.989 1.137 1.421.995 1.705.994 1.421.995.995.71.995.569.426.426.711.284 1.421.995.852.569 1.421.852 2.416 1.705.711.71.284.711-.427.427h-1.563l-.284.142.142.284-.71-.142-1.279-.426-1.847-.143-.711-.426-1.705-.426-.284-.284-.285.142-.71-.285-.569-.142-3.126-1.847-2.273-.852-1.279-.285h-3.411l-2.557.569-2.985.994-2.984 1.28-2.273 1.136-3.269 1.563-2.7 1.421-3.836 1.99-1.421.71-1.279.142-.284.142h-3.126l-1.99-.284-.995.142.853-.994 1.847-1.28 1.28-.71.994-.71.853-.285v-.284l1.136-.568.427-.284h.426v-.285l1.563-.852.71-.427 1.564-.994 1.136-.71 1.28-.711 1.136-.71 1.28-.853 1.562-.853 1.28-.71 2.699-1.848 2.274-1.42 1.989-1.28.995-.568 1.136-.71.995-.143v-.284Z"/><path fill="#F9690A" d="M104.728 130.022h18.047l1.563.142-.853.994-1.563 1.421-1.563 1.279-1.705 1.563-1.563 1.279-2.132 1.848-.426.142-23.305-.142.142-.427 3.269-1.989 2.273-1.421 2.558-1.563 2.132-1.421 1.989-1.137 1.137-.568Z"/><path fill="#fff" d="M33.82 110.554h2.416l.142 7.389v6.537l-.142 7.957h-5.969l-.994-.142-.71-1.279-.285-1.705-.142-8.952v-9.663l5.684-.142Z"/><path fill="#C94A07" d="m140.963 94.212.711.142.995 1.137 1.279 1.563 1.421 1.564 1.136 1.421 1.421 1.563 1.279 1.563 1.279 1.421 1.279 1.563 1.563 1.989v.284l-.852-.284-1.137-.568-5.258-2.274-7.815-3.41-4.406-1.847-2.557-1.137-.995-.427v-.284l2.842-1.137 4.121-1.563 3.126-1.136.568-.143Z"/><path fill="#F9690A" d="m175.778 66.077-.142 2.7-1.847 2.273-1.848 1.99-.994 1.136-1.564 1.706-.994 1.136-1.563 1.706-.995 1.136-.711-.71-1.136-1.848-1.99-3.552-1.279-2.274-1.137-2.557v-.427l1.564.284 3.126.427h2.842l2.558-.427 1.705-.568 2.7-1.279 1.705-.852Z"/><path fill="#fff" d="M78.155 117.801h1.137v.142l-1.563.426-.284.569-1.563 2.7-.995 1.705-.71 1.421-.143.995h-12.22l-1.28-.142.853-.995 1.137-.995 2.274-2.131 3.268-3.269h.284v-.284l9.805-.142ZM25.294 147.784l13.073-.852-8.526 7.673h-5.542l-1.279-.568-.852-.995-.427-.995v-1.137l.427-1.136.852-.995 1.705-.853.569-.142ZM182.315 43.767l1.563.994 1.136.995 1.564 1.99 1.278 2.7.427 2.415-.427.71-1.421.995-2.415 1.564-1.421.994-.427.142.285-.71.852-2.984.284-1.848v-1.847l-.426-2.7-.852-2.984v-.426Z"/><path fill="#FA690A" d="M185.441 160.715h1.421l.994.427.853.71.568 1.137v1.705l-.426.995-.852.995-1.279.568h-1.563l-1.137-.568-.853-.995-.426-1.279v-.995l.568-1.421.995-.852 1.137-.427ZM32.257 9.663h1.705l1.137.426.71.853.427 1.136v1.564l-.569 1.279-.995.852-.994.426h-1.421l-1.137-.568-.995-1.137-.426-.995v-1.42l.568-1.137.995-.853.995-.426Z"/><path fill="#FA6A0B" d="m185.441 14.21 1.279.142 1.136.569.995 1.136.284.853v1.137l-.71 1.42-.995.853-.995.427h-1.705l-.994-.569-.711-.852-.426-.853-.142-1.279.426-1.279.568-.852.995-.569.995-.284Z"/><path fill="#FA690A" d="m57.835 90.944 1.137.284.994.71.569.853.284.995-.142 1.279-.569.853-.852.71-.71.284h-1.138l-.994-.284-.995-.995-.284-.71v-1.705l.71-1.137.995-.853.995-.284Z"/><path fill="#fff" d="m180.183 117.091.284.284.284 2.273.995 1.99.284.426.142.853v2.842l-.426 1.421-.426 1.279-.142.284.426.142-.142.568-.284-.142-.142.995-.853 2.416-.426.142v-1.99l.142-.71.142-12.789.142-.284ZM105.296 81.14l.711.141v.71l-1.279 1.422h-.284v.284h-.285v.284h-.284l-.142.569.142.284-.568.995-.569.284-.71 1.279-.142.568h.71v1.137l-.994-.142-1.137-.284-1.28-.143-.283-.284.852-1.279 1.848-2.131 2.273-2.416 1.421-1.279ZM132.579 163.699l.711.143-.711.71-.71.426-.426.711-1.99.995-.994.426-.995.71-.142.285-.569.284h-.426v.284h-.284l-.284.71-.995.995-.284.142-.569.995-.852.426-.853.142h-2.416l.711-.71 3.695-2.416 2.557-1.563 2.7-1.705 3.126-1.99ZM28.562 62.098l.284.142v2.416l.142.568v16.341l-.284 1.99.142 1.279h-.284v.284h-.284V63.661l.142-1.421.142-.142ZM185.299 124.764l.71.142.426 2.274v1.847l-.142.71-.568.427-.711-.142-.568-.995-.426.426-.142.427-.995-.285-.142-.568.142-1.563.568-.853.711.427.142.142.142-.142-.426-.427.426-.284.568-1.279.285-.284ZM115.101 68.208h.426l-.142 1.137-1.136 1.847-.427.71-.426.853-.426.71-1.279.995-1.137-.142.142-1.136 1.847-2.132 2.132-2.273.426-.569ZM149.774 87.676l.426.142v1.279l-.426.852-.142.71-.995 1.564.142.568-.568.427-.569-.142-.995-1.28.285-.852.852-1.279.853-1.137.71-.426.427-.426ZM158.015 147.926l.711.142-.568.569-.569.142v.426l-2.416 1.137h-.426l-.142.711-.853.426-1.563.852-1.137.711-.852.142v.284l-2.132 1.421h-.426l.284-.568.711-.711 2.558-1.563 3.126-1.989 2.7-1.705.994-.427ZM164.268 143.805l.71.142-.284.143-.142.568h-.426l-.284.568-.569.427-.71.284-.142.284-.711.284-.284.427-1.421.426-.711.568-.284-.142.284-.568.711-.711 2.273-1.421 1.99-1.279ZM182.315 43.767l1.563.994.71.853.142.426.284.142.143.711-.143.284h-.284l-.142.285-1.421-.569-.852-2.7v-.426ZM141.248 158.442l.142.284h-.427l-.284.71-1.421.995-1.563.853-.995.284.569-.853 2.558-1.563.852-.568.569-.142ZM86.54 103.875l.425.142v2.274l-.994-.426h-.853l-.142-.285.426-.71h.284l.143-.426.71-.569ZM169.241 140.963h.285l-.143.569-.852.142-.284.568-.995.711-.568.284h-.711l.142-.568 2.558-1.564.568-.142ZM60.677 56.84l.71.142.853.426.426.995-.284.427-.71-.285-.995-1.137v-.568ZM30.267 110.696h5.826v1.137l-1.42-.853H31.83l-1.563-.142v-.142ZM187.146 124.053l.284.143.142 2.557-.142.853h-.284l-.142-.568v-2.132l.142-.853ZM180.183 99.612h.284v1.279l.142 1.137-.142 2.274-.284.284v-4.974Z"/><path fill="#fff" d="M149.063 153.326h.568l.143.426-1.706 1.137h-.426l.284-.568.711-.711.426-.284ZM182.315 43.767l1.563.994.142.285-.995.426-.284.142-.426-1.42v-.427ZM171.657 139.4h.284l.142.427-1.279.852-.426.142.142-.852.569-.427.568-.142ZM46.609 35.81h.284l.284.568h-.284v.426l-.853.426-.284-.284.426-.852.427-.285ZM144.374 156.31h.284l-.284.853-.711.426-.426-.142v-.426l1.137-.711ZM176.204 136.558v.427l-.71.71-.427.142-.284-.284.711-.711.71-.284ZM180.894 96.486l.142.284-.711 1.99h-.142v-1.564l.711-.71ZM150.626 78.866l.284.142.143.142-.285.568-.568.142-.284.142v-.71l.71-.426ZM165.831 142.811h.284l-.284.568-.284.426h-.995l.568-.568.711-.426ZM1.705 186.009H7.39l.853.711 1.137 1.847 1.847 3.126 2.7 4.547 2.273 3.695 1.706 2.842.284.426h.284l1.279-2.131 2.416-3.979 2.131-3.553 1.847-2.984 1.848-3.126.852-1.137.71-.284h6.111l.853.426.142.427v33.393l-.71.711-1.137.142h-5.969l-.71-.426-.284-.569v-16.057l-.71.71-1.564 2.274-1.421 1.989-.995 1.563-2.273 3.553-1.137 1.421-.569.568-.426.142h-.995l-.71-.284-.71-.71-1.421-2.132-2.132-3.41-.995-1.563-1.563-2.274-1.137-1.705-.568-.284.142 1.421v15.062l-.568.569-3.126.142H.994l-.568-.284-.284-.569L0 187.146l.284-.711.427-.284.994-.142ZM54.993 186.151h4.547l2.416.427 2.273.852 2.132 1.137 2.273 1.847 1.28 1.279 1.42 1.847 1.137 1.99.995 2.416.568 2.557.284 2.558v1.705l-.568 3.553-.568 1.563-.853 1.989-1.279 1.99-.995 1.279-1.279 1.421-1.563 1.279-1.989 1.278-1.847.853-1.99.711-3.41.568H55.56l-3.268-.568-2.132-.853-1.989-.995-2.274-1.705-.852-.71-.995-1.137-1.137-1.421-1.279-2.132-.994-2.415-.853-3.553-.142-.995v-2.415l.568-2.842.569-2.132 1.137-2.558 1.989-2.842 2.132-2.131 2.131-1.421 2.274-1.137 1.847-.71 2.7-.427Zm1.137 8.384-2.416.569-1.279.71-1.279.995-1.279 1.421-.852 1.705-.569 1.705-.142.995v1.847l.426 1.99.71 1.705 1.28 1.705.995.995 1.563.994 2.557.711.71.142h1.422l2.984-.853 1.563-1.136 1.279-1.279.995-1.563.71-2.132.284-1.421v-1.563l-.426-1.989-.71-1.706-.995-1.421-1.421-1.421-1.563-.994-2.7-.711H56.13ZM110.27 186.009h20.888l.569.569.142.284v3.552l-2.984 3.837h-10.942v5.258h9.237l.71.426.142.568v6.111l-.284.568-.284.142h-9.521v5.542l9.947-.142h2.984l.853.426.284.569v6.678l-.568.569-4.405.142h-16.484l-.995-.284-.142-.284v-33.82l.426-.569.427-.142ZM75.74 186.009h4.973l.71.284 1.421 3.269 2.274 5.968 1.421 3.694 1.137 2.842.995 2.7.71 1.99.71 1.847v.284h.285l.426-1.563 1.137-2.984.853-2.131.852-2.274.71-1.847 2.274-5.826 1.563-4.121.569-1.563.426-.427 2.7-.142h4.831l.853.426-.284 1.564-1.563 3.836-2.416 6.111-2.274 5.541-1.136 2.842-.711 1.706-1.137 2.7-1.705 4.12-1.279 3.269-.71 1.847-.71.995-2.132.142h-4.406l-.71-.284-.995-2.132-2.131-5.4-1.705-4.121-1.421-3.694-.853-2.132-1.99-4.831-.71-1.847-2.131-5.4-1.28-3.126-.426-1.137.285-.711.284-.142 2.416-.142ZM169.099 185.867h2.558l4.405.142.711.569.142.284v6.536l-.284.711-.143.142-2.415.142h-12.079v5.258h7.674l2.984.142.284.142v7.105l-.142.284-.426.142h-10.516v12.647l-.284.711-.284.142-2.558.142h-4.263l-.711-.284-.284-.853v-32.967l.284-.711.569-.284 14.778-.142ZM200.077 185.867h16.768l3.268.142.711.426.142.427v6.536l-.284.853-.569.142h-8.952l.142.711v14.21l-.142 11.225-.568.427-1.422.142h-5.968l-.426-.142-.142-.284-.142-2.274v-23.873l-8.81-.142-.853-.284-.284-.711v-6.394l.426-.711.568-.284 6.537-.142Z"/><path fill="#F96809" d="M137.553 188.567h3.837l1.989.426 2.274 1.137 1.421 1.137 1.563 1.989.995 2.274.284 1.137v2.415l-.711 2.416-.568 1.137-1.705 1.847-2.416 2.416-1.563 1.279-1.99 1.563-1.847 1.705-1.421 1.137-.142.284 11.084.853.568.284h-.142l-.426 4.831.284.853-.568-.284-14.352 1.563-.427-.426-.142-6.253-.568-1.279-.427-.71-.852-.569-1.848-.568.569-.569 1.137-.994 2.273-1.848 1.848-1.705 1.705-1.563 1.989-1.705 1.421-1.279.284-.284 1.279-1.279.427-1.137v-1.279l-.569-1.137-.994-.852-.995-.284h-1.421l-1.137.426-.853.995-.852 1.705-.142.142h-6.821l-.142-.995.426-1.705.568-.995 3.979-4.973 1.99-.853 1.847-.426Z"/><path fill="#fff" d="M181.746 186.009h5.542l1.421.284.284.142.142.427v33.678l-.568.426-1.847.142h-5.542l-.569-.142-.142-.284-.142-2.558v-21.742l.142-9.947 1.279-.426ZM137.411 212.866h11.51l.995.426.142.285v6.394l-.284.711-.427.284h-15.489l-.426-.427v-6.252l3.979-1.421ZM169.099 185.867h2.558l4.121.142-.142.426h-.284v.285l-.853.284-.995.142-4.405.142h-9.663l-2.273-.142-2.558-.284-.71-.284.426-.569 14.778-.142ZM110.27 186.009h19.61l-.142.711-.569.284-.995.142-5.541.142h-8.384l-3.411-.284-1.137-.426.143-.427.426-.142Z"/><path fill="#fff" d="M181.746 186.009h5.542l1.421.284.284.142.142.427v33.678h-.142v-33.11h-.426v-.284h-2.132l-3.552-.142h-1.563l-.284-.142v.284h-.285l-.142-.711.427-.284.71-.142ZM1.705 186.009h5.542l-.142.711-.995.284-5.257.426-.427-.142.142-.71.142-.427.995-.142ZM73.324 186.151h6.252v.569l-.995.284-3.694.426h-.995l-.71-.426.142-.853ZM99.186 186.151h7.247l-.142.427-.711.284-2.131.142H98.76l.142-.569.284-.284ZM202.777 211.445l.284.142.284 6.963.142 1.847.285.142-.142.427h-.853v-9.521ZM28.988 186.151h5.827l-.285.284-1.563.427-2.415.142-1.28-.142-.426-.284.142-.427ZM201.356 186.009h8.242v.284l-1.421.142h-5.684l-.142-.142-.995-.142v-.142ZM130.732 213.008l.569.142.568.284.142.285v2.415l-.284-.426-.853-1.563-.426-.426-1.137-.285-.142-.284 1.563-.142ZM218.692 186.009h1.421l.711.426v1.706l-.427-.142v-.427l-.71-.284-.426-.284-.427-.711-.142-.284ZM133.858 218.692l.853 1.279.142.995h-.852l-.427-.426v-1.421l.284-.427ZM196.098 186.009h4.69l-.285.284-3.268.142h-.568v-.284l-.569-.142ZM138.832 213.15h3.268v.142l-1.421.142-.426.285h-1.137l-.71-.142v-.285l.426-.142ZM55.987 186.151h2.132l-.568.569-1.706-.142-.426-.285.569-.142ZM193.256 186.151h.995l-.284.569-.427.284-.71-.142.142-.569.284-.142ZM210.877 219.545l.284.142v.853l-.711.426-.142-.284.142-.427h.285l.142-.71ZM106.575 186.578l.711.426-.142.995-.569-.427v-.994ZM44.62 37.088h.568l-.142.71-.569.143-.142-.427.284-.426ZM187.714 87.818h.143v.71l-1.137.569.284-.569.71-.71ZM121.496 170.662l.284.142-.995.853-.71.426-.285-.142 1.706-1.279ZM187.288 89.381l.426.426-.284.142-.568.427-.569.142.569-.853.426-.284Z"/><path fill="#6F7274" d="m152.616 83.555 2.557-6.82 8.242 13.925 15.915-17.336.285-.853 13.073-10.515-26.147 34.104h-5.115l-8.81-12.505Z"/><path fill="#B1B1B1" d="m153.184 82.418 2.274-6.82 8.526 13.925 16.199-18.189 13.642-10.515-28.136 32.967h-3.411l-9.094-11.368ZM53.998 132.153l-31.546 28.704 11.936-4.831 32.967-21.883 1.137-2.274-14.494.284Z"/></svg>