<?xml version="1.0" encoding="UTF-8" standalone="no"?>
<!-- Created with Inkscape (http://www.inkscape.org/) -->

<svg
   width="200mm"
   height="200mm"
   viewBox="0 0 200 200"
   version="1.1"
   id="svg1"
   sodipodi:docname="icon-REABILITACAO.svg"
   xml:space="preserve"
   inkscape:version="1.4 (86a8ad7, 2024-10-11)"
   xmlns:inkscape="http://www.inkscape.org/namespaces/inkscape"
   xmlns:sodipodi="http://sodipodi.sourceforge.net/DTD/sodipodi-0.dtd"
   xmlns="http://www.w3.org/2000/svg"
   xmlns:svg="http://www.w3.org/2000/svg"><sodipodi:namedview
     id="namedview1"
     pagecolor="#ffffff"
     bordercolor="#000000"
     borderopacity="0.25"
     inkscape:showpageshadow="2"
     inkscape:pageopacity="0.0"
     inkscape:pagecheckerboard="0"
     inkscape:deskcolor="#d1d1d1"
     inkscape:document-units="mm"
     showgrid="false"
     inkscape:zoom="0.48693448"
     inkscape:cx="387.11573"
     inkscape:cy="362.47176"
     inkscape:window-width="1920"
     inkscape:window-height="991"
     inkscape:window-x="-9"
     inkscape:window-y="-9"
     inkscape:window-maximized="1"
     inkscape:current-layer="g17"><inkscape:grid
       id="grid1"
       units="mm"
       originx="0"
       originy="0"
       spacingx="0.99999999"
       spacingy="0.99999999"
       empcolor="#0099e5"
       empopacity="0.30196078"
       color="#0099e5"
       opacity="0.14901961"
       empspacing="5"
       enabled="true"
       visible="false" /></sodipodi:namedview><defs
     id="defs1"><inkscape:path-effect
   effect="fillet_chamfer"
   id="path-effect12"
   is_visible="true"
   lpeversion="1"
   nodesatellites_param="F,0,0,1,0,3.5587947,0,1 @ F,0,0,1,0,0.73937001,0,1 @ F,0,0,1,0,0,0,1 @ F,0,0,1,0,3.8088835,0,1 @ F,0,1,1,0,0,0,1 @ F,0,0,1,0,0.2925386,0,1"
   radius="0"
   unit="px"
   method="auto"
   mode="F"
   chamfer_steps="1"
   flexible="false"
   use_knot_distance="true"
   apply_no_radius="true"
   apply_with_radius="true"
   only_selected="false"
   hide_knots="false" /><inkscape:path-effect
   effect="fillet_chamfer"
   id="path-effect7"
   is_visible="true"
   lpeversion="1"
   nodesatellites_param="F,0,0,1,0,0,0,1 @ F,0,0,1,0,0,0,1 @ F,0,0,1,0,1.0877082,0,1 @ F,0,0,1,0,0.98880604,0,1 @ F,0,0,1,0,1.011754,0,1"
   radius="0"
   unit="px"
   method="auto"
   mode="F"
   chamfer_steps="1"
   flexible="false"
   use_knot_distance="true"
   apply_no_radius="true"
   apply_with_radius="true"
   only_selected="false"
   hide_knots="false" /><inkscape:path-effect
   effect="fillet_chamfer"
   id="path-effect6"
   is_visible="true"
   lpeversion="1"
   nodesatellites_param="F,0,0,1,0,0,0,1 @ F,0,0,1,0,0,0,1 @ F,0,0,1,0,0.9004366,0,1 @ F,0,0,1,0,1.1898507,0,1 @ F,0,0,1,0,1.4203409,0,1"
   radius="0"
   unit="px"
   method="auto"
   mode="F"
   chamfer_steps="1"
   flexible="false"
   use_knot_distance="true"
   apply_no_radius="true"
   apply_with_radius="true"
   only_selected="false"
   hide_knots="false" /><inkscape:path-effect
   effect="fillet_chamfer"
   id="path-effect4"
   is_visible="true"
   lpeversion="1"
   nodesatellites_param="F,0,0,1,0,1.0758579,0,1 @ F,0,0,1,0,0,0,1 @ F,0,0,1,0,0.88880327,0,1 @ F,0,0,1,0,0,0,1 @ F,0,0,1,0,1.0758579,0,1 @ F,0,0,1,0,2.2214472,0,1"
   radius="0"
   unit="px"
   method="auto"
   mode="F"
   chamfer_steps="1"
   flexible="false"
   use_knot_distance="true"
   apply_no_radius="true"
   apply_with_radius="true"
   only_selected="false"
   hide_knots="false" /><inkscape:path-effect
   effect="fillet_chamfer"
   id="path-effect3"
   is_visible="true"
   lpeversion="1"
   nodesatellites_param="F,0,0,1,0,0,0,1 @ F,0,0,1,0,0,0,1 @ F,0,0,1,0,0,0,1 @ F,0,0,1,0,0,0,1 @ F,0,0,1,0,0,0,1 @ F,0,0,1,0,0,0,1 @ F,0,0,1,0,0,0,1 @ F,0,0,1,0,0,0,1"
   radius="0"
   unit="px"
   method="auto"
   mode="F"
   chamfer_steps="1"
   flexible="false"
   use_knot_distance="true"
   apply_no_radius="true"
   apply_with_radius="true"
   only_selected="false"
   hide_knots="false" /><inkscape:path-effect
   effect="fillet_chamfer"
   id="path-effect2"
   is_visible="true"
   lpeversion="1"
   nodesatellites_param="F,0,0,1,0,0,0,1 @ F,0,0,1,0,0,0,1 @ F,0,0,1,0,0,0,1 @ F,0,0,1,0,0,0,1 @ F,0,0,1,0,0,0,1 @ F,0,0,1,0,0,0,1 @ F,0,0,1,0,0,0,1 @ F,0,0,1,0,0,0,1"
   radius="0"
   unit="px"
   method="auto"
   mode="F"
   chamfer_steps="1"
   flexible="false"
   use_knot_distance="true"
   apply_no_radius="true"
   apply_with_radius="true"
   only_selected="false"
   hide_knots="false" />
	
		<radialGradient
   id="SVGID_1_"
   cx="69.549599"
   cy="86639.391"
   r="23.4655"
   gradientTransform="matrix(0.26458333,0,0,0.03103562,-170.36387,-2682.7199)"
   gradientUnits="userSpaceOnUse">
		<stop
   offset="0"
   style="stop-color:#FFC042"
   id="stop1" />
		<stop
   offset="0.0162"
   style="stop-color:#FFC247"
   id="stop2" />
		<stop
   offset="0.2071"
   style="stop-color:#FFD47E"
   id="stop3" />
		<stop
   offset="0.3929"
   style="stop-color:#FFE4AD"
   id="stop4" />
		<stop
   offset="0.5692"
   style="stop-color:#FFEFD0"
   id="stop5" />
		<stop
   offset="0.7338"
   style="stop-color:#FFF8EA"
   id="stop6" />
		<stop
   offset="0.8821"
   style="stop-color:#FFFDFA"
   id="stop7" />
		<stop
   offset="1"
   style="stop-color:#FFFFFF"
   id="stop8" />
	</radialGradient>
	
	
		<radialGradient
   id="SVGID_00000017491165226217518050000003680051304414230446_"
   cx="162.7363"
   cy="86639.391"
   r="23.465799"
   gradientTransform="matrix(0.26458333,0,0,0.03103562,-170.36387,-2682.7199)"
   gradientUnits="userSpaceOnUse">
		<stop
   offset="0"
   style="stop-color:#FFC042"
   id="stop9" />
		<stop
   offset="0.0162"
   style="stop-color:#FFC247"
   id="stop10" />
		<stop
   offset="0.2071"
   style="stop-color:#FFD47E"
   id="stop11" />
		<stop
   offset="0.3929"
   style="stop-color:#FFE4AD"
   id="stop12" />
		<stop
   offset="0.5692"
   style="stop-color:#FFEFD0"
   id="stop13" />
		<stop
   offset="0.7338"
   style="stop-color:#FFF8EA"
   id="stop14" />
		<stop
   offset="0.8821"
   style="stop-color:#FFFDFA"
   id="stop15" />
		<stop
   offset="1"
   style="stop-color:#FFFFFF"
   id="stop16" />
	</radialGradient>
	
	
		<radialGradient
   id="SVGID_00000057144911357649507230000012081353341769846711_"
   cx="261.92151"
   cy="86640.633"
   r="23.465099"
   gradientTransform="matrix(0.37062833,-0.00423333,3.4395833e-4,0.03103562,-228.77527,-2681.4435)"
   gradientUnits="userSpaceOnUse">
		<stop
   offset="0"
   style="stop-color:#FFC042"
   id="stop17" />
		<stop
   offset="0.0162"
   style="stop-color:#FFC247"
   id="stop18" />
		<stop
   offset="0.2071"
   style="stop-color:#FFD47E"
   id="stop19" />
		<stop
   offset="0.3929"
   style="stop-color:#FFE4AD"
   id="stop20" />
		<stop
   offset="0.5692"
   style="stop-color:#FFEFD0"
   id="stop21" />
		<stop
   offset="0.7338"
   style="stop-color:#FFF8EA"
   id="stop22" />
		<stop
   offset="0.8821"
   style="stop-color:#FFFDFA"
   id="stop23" />
		<stop
   offset="1"
   style="stop-color:#FFFFFF"
   id="stop24" />
	</radialGradient>
	
	
		<radialGradient
   id="SVGID_00000062181308213166424650000009945774080076653202_"
   cx="69.549599"
   cy="87884.766"
   r="23.4634"
   gradientTransform="matrix(0.26458333,0,0,0.03667125,-170.36387,-3188.9308)"
   gradientUnits="userSpaceOnUse">
		<stop
   offset="0"
   style="stop-color:#FFC042"
   id="stop25" />
		<stop
   offset="0.0162"
   style="stop-color:#FFC247"
   id="stop26" />
		<stop
   offset="0.2071"
   style="stop-color:#FFD47E"
   id="stop27" />
		<stop
   offset="0.3929"
   style="stop-color:#FFE4AD"
   id="stop28" />
		<stop
   offset="0.5692"
   style="stop-color:#FFEFD0"
   id="stop29" />
		<stop
   offset="0.7338"
   style="stop-color:#FFF8EA"
   id="stop30" />
		<stop
   offset="0.8821"
   style="stop-color:#FFFDFA"
   id="stop31" />
		<stop
   offset="1"
   style="stop-color:#FFFFFF"
   id="stop32" />
	</radialGradient>
	
	
		<radialGradient
   id="SVGID_00000129186816541277285560000008403992092527079813_"
   cx="171.6723"
   cy="87884.766"
   r="23.463301"
   gradientTransform="matrix(0.26458333,0,0,0.03667125,-170.36387,-3188.9308)"
   gradientUnits="userSpaceOnUse">
		<stop
   offset="0"
   style="stop-color:#FFC042"
   id="stop33" />
		<stop
   offset="0.0162"
   style="stop-color:#FFC247"
   id="stop34" />
		<stop
   offset="0.2071"
   style="stop-color:#FFD47E"
   id="stop35" />
		<stop
   offset="0.3929"
   style="stop-color:#FFE4AD"
   id="stop36" />
		<stop
   offset="0.5692"
   style="stop-color:#FFEFD0"
   id="stop37" />
		<stop
   offset="0.7338"
   style="stop-color:#FFF8EA"
   id="stop38" />
		<stop
   offset="0.8821"
   style="stop-color:#FFFDFA"
   id="stop39" />
		<stop
   offset="1"
   style="stop-color:#FFFFFF"
   id="stop40" />
	</radialGradient>
	
	
		<radialGradient
   id="SVGID_00000049909335490991227300000005275649504862633638_"
   cx="265.9736"
   cy="87884.766"
   r="23.463301"
   gradientTransform="matrix(0.26458333,0,0,0.03667125,-170.36387,-3188.9308)"
   gradientUnits="userSpaceOnUse">
		<stop
   offset="0"
   style="stop-color:#FFC042"
   id="stop41" />
		<stop
   offset="0.0162"
   style="stop-color:#FFC247"
   id="stop42" />
		<stop
   offset="0.2071"
   style="stop-color:#FFD47E"
   id="stop43" />
		<stop
   offset="0.3929"
   style="stop-color:#FFE4AD"
   id="stop44" />
		<stop
   offset="0.5692"
   style="stop-color:#FFEFD0"
   id="stop45" />
		<stop
   offset="0.7338"
   style="stop-color:#FFF8EA"
   id="stop46" />
		<stop
   offset="0.8821"
   style="stop-color:#FFFDFA"
   id="stop47" />
		<stop
   offset="1"
   style="stop-color:#FFFFFF"
   id="stop48" />
	</radialGradient>
	
	
		<radialGradient
   id="SVGID_00000070800293789113609130000015712227114847150499_"
   cx="367.45749"
   cy="87884.766"
   r="23.4639"
   gradientTransform="matrix(0.26458333,0,0,0.03667125,-170.36387,-3188.9308)"
   gradientUnits="userSpaceOnUse">
		<stop
   offset="0"
   style="stop-color:#FFC042"
   id="stop49" />
		<stop
   offset="0.0162"
   style="stop-color:#FFC247"
   id="stop50" />
		<stop
   offset="0.2071"
   style="stop-color:#FFD47E"
   id="stop51" />
		<stop
   offset="0.3929"
   style="stop-color:#FFE4AD"
   id="stop52" />
		<stop
   offset="0.5692"
   style="stop-color:#FFEFD0"
   id="stop53" />
		<stop
   offset="0.7338"
   style="stop-color:#FFF8EA"
   id="stop54" />
		<stop
   offset="0.8821"
   style="stop-color:#FFFDFA"
   id="stop55" />
		<stop
   offset="1"
   style="stop-color:#FFFFFF"
   id="stop56" />
	</radialGradient>
	
	
		<radialGradient
   id="SVGID_00000091704996109097532360000015950613859946710942_"
   cx="73.379204"
   cy="89113.688"
   r="23.4657"
   gradientTransform="matrix(0.26458333,0,0,0.03950229,-170.36387,-3457.4485)"
   gradientUnits="userSpaceOnUse">
		<stop
   offset="0"
   style="stop-color:#FFC042"
   id="stop57" />
		<stop
   offset="0.0162"
   style="stop-color:#FFC247"
   id="stop58" />
		<stop
   offset="0.2071"
   style="stop-color:#FFD47E"
   id="stop59" />
		<stop
   offset="0.3929"
   style="stop-color:#FFE4AD"
   id="stop60" />
		<stop
   offset="0.5692"
   style="stop-color:#FFEFD0"
   id="stop61" />
		<stop
   offset="0.7338"
   style="stop-color:#FFF8EA"
   id="stop62" />
		<stop
   offset="0.8821"
   style="stop-color:#FFFDFA"
   id="stop63" />
		<stop
   offset="1"
   style="stop-color:#FFFFFF"
   id="stop64" />
	</radialGradient>
	
	
		<radialGradient
   id="SVGID_00000145759391242409786700000001593391930056410047_"
   cx="169.2793"
   cy="89113.688"
   r="23.465799"
   gradientTransform="matrix(0.26458333,0,0,0.03950229,-170.36387,-3457.4485)"
   gradientUnits="userSpaceOnUse">
		<stop
   offset="0"
   style="stop-color:#FFC042"
   id="stop65" />
		<stop
   offset="0.0162"
   style="stop-color:#FFC247"
   id="stop66" />
		<stop
   offset="0.2071"
   style="stop-color:#FFD47E"
   id="stop67" />
		<stop
   offset="0.3929"
   style="stop-color:#FFE4AD"
   id="stop68" />
		<stop
   offset="0.5692"
   style="stop-color:#FFEFD0"
   id="stop69" />
		<stop
   offset="0.7338"
   style="stop-color:#FFF8EA"
   id="stop70" />
		<stop
   offset="0.8821"
   style="stop-color:#FFFDFA"
   id="stop71" />
		<stop
   offset="1"
   style="stop-color:#FFFFFF"
   id="stop72" />
	</radialGradient>
	
	
		<radialGradient
   id="SVGID_00000051343970944853086230000012789295974477938322_"
   cx="269.8042"
   cy="89113.688"
   r="23.465599"
   gradientTransform="matrix(0.26458333,0,0,0.03950229,-170.36387,-3457.4485)"
   gradientUnits="userSpaceOnUse">
		<stop
   offset="0"
   style="stop-color:#FFC042"
   id="stop73" />
		<stop
   offset="0.0162"
   style="stop-color:#FFC247"
   id="stop74" />
		<stop
   offset="0.2071"
   style="stop-color:#FFD47E"
   id="stop75" />
		<stop
   offset="0.3929"
   style="stop-color:#FFE4AD"
   id="stop76" />
		<stop
   offset="0.5692"
   style="stop-color:#FFEFD0"
   id="stop77" />
		<stop
   offset="0.7338"
   style="stop-color:#FFF8EA"
   id="stop78" />
		<stop
   offset="0.8821"
   style="stop-color:#FFFDFA"
   id="stop79" />
		<stop
   offset="1"
   style="stop-color:#FFFFFF"
   id="stop80" />
	</radialGradient>
	
	
		<radialGradient
   id="SVGID_00000082327987348496982530000005695122870166384316_"
   cx="377.03171"
   cy="89113.688"
   r="23.466101"
   gradientTransform="matrix(0.26458333,0,0,0.03950229,-170.36387,-3457.4485)"
   gradientUnits="userSpaceOnUse">
		<stop
   offset="0"
   style="stop-color:#FFC042"
   id="stop81" />
		<stop
   offset="0.0162"
   style="stop-color:#FFC247"
   id="stop82" />
		<stop
   offset="0.2071"
   style="stop-color:#FFD47E"
   id="stop83" />
		<stop
   offset="0.3929"
   style="stop-color:#FFE4AD"
   id="stop84" />
		<stop
   offset="0.5692"
   style="stop-color:#FFEFD0"
   id="stop85" />
		<stop
   offset="0.7338"
   style="stop-color:#FFF8EA"
   id="stop86" />
		<stop
   offset="0.8821"
   style="stop-color:#FFFDFA"
   id="stop87" />
		<stop
   offset="1"
   style="stop-color:#FFFFFF"
   id="stop88" />
	</radialGradient>
	
	
		<radialGradient
   id="SVGID_00000041986455432770903490000010044259755797563042_"
   cx="74.336601"
   cy="90325.164"
   r="23.466"
   gradientTransform="matrix(0.26458333,0,0,0.03103562,-170.36387,-2713.9137)"
   gradientUnits="userSpaceOnUse">
		<stop
   offset="0"
   style="stop-color:#FFC042"
   id="stop89" />
		<stop
   offset="0.0162"
   style="stop-color:#FFC247"
   id="stop90" />
		<stop
   offset="0.2071"
   style="stop-color:#FFD47E"
   id="stop91" />
		<stop
   offset="0.3929"
   style="stop-color:#FFE4AD"
   id="stop92" />
		<stop
   offset="0.5692"
   style="stop-color:#FFEFD0"
   id="stop93" />
		<stop
   offset="0.7338"
   style="stop-color:#FFF8EA"
   id="stop94" />
		<stop
   offset="0.8821"
   style="stop-color:#FFFDFA"
   id="stop95" />
		<stop
   offset="1"
   style="stop-color:#FFFFFF"
   id="stop96" />
	</radialGradient>
	
	
		<radialGradient
   id="SVGID_00000163780498512609527580000013368104648154647989_"
   cx="162.7363"
   cy="90325.164"
   r="23.466299"
   gradientTransform="matrix(0.26458333,0,0,0.03103562,-170.36387,-2713.9137)"
   gradientUnits="userSpaceOnUse">
		<stop
   offset="0"
   style="stop-color:#FFC042"
   id="stop97" />
		<stop
   offset="0.0162"
   style="stop-color:#FFC247"
   id="stop98" />
		<stop
   offset="0.2071"
   style="stop-color:#FFD47E"
   id="stop99" />
		<stop
   offset="0.3929"
   style="stop-color:#FFE4AD"
   id="stop100" />
		<stop
   offset="0.5692"
   style="stop-color:#FFEFD0"
   id="stop101" />
		<stop
   offset="0.7338"
   style="stop-color:#FFF8EA"
   id="stop102" />
		<stop
   offset="0.8821"
   style="stop-color:#FFFDFA"
   id="stop103" />
		<stop
   offset="1"
   style="stop-color:#FFFFFF"
   id="stop104" />
	</radialGradient>
	
	
		<radialGradient
   id="SVGID_00000078038050646659129320000008808924160133951925_"
   cx="275.54791"
   cy="90325.164"
   r="23.4659"
   gradientTransform="matrix(0.26458333,0,0,0.03103562,-170.36387,-2713.9137)"
   gradientUnits="userSpaceOnUse">
		<stop
   offset="0"
   style="stop-color:#FFC042"
   id="stop105" />
		<stop
   offset="0.0162"
   style="stop-color:#FFC247"
   id="stop106" />
		<stop
   offset="0.2071"
   style="stop-color:#FFD47E"
   id="stop107" />
		<stop
   offset="0.3929"
   style="stop-color:#FFE4AD"
   id="stop108" />
		<stop
   offset="0.5692"
   style="stop-color:#FFEFD0"
   id="stop109" />
		<stop
   offset="0.7338"
   style="stop-color:#FFF8EA"
   id="stop110" />
		<stop
   offset="0.8821"
   style="stop-color:#FFFDFA"
   id="stop111" />
		<stop
   offset="1"
   style="stop-color:#FFFFFF"
   id="stop112" />
	</radialGradient>
	
	
		<radialGradient
   id="SVGID_00000017488731610769851240000014803845823634522510_"
   cx="373.83939"
   cy="90325.164"
   r="23.466101"
   gradientTransform="matrix(0.26458333,0,0,0.03103562,-170.36387,-2713.9137)"
   gradientUnits="userSpaceOnUse">
		<stop
   offset="0"
   style="stop-color:#FFC042"
   id="stop113" />
		<stop
   offset="0.0162"
   style="stop-color:#FFC247"
   id="stop114" />
		<stop
   offset="0.2071"
   style="stop-color:#FFD47E"
   id="stop115" />
		<stop
   offset="0.3929"
   style="stop-color:#FFE4AD"
   id="stop116" />
		<stop
   offset="0.5692"
   style="stop-color:#FFEFD0"
   id="stop117" />
		<stop
   offset="0.7338"
   style="stop-color:#FFF8EA"
   id="stop118" />
		<stop
   offset="0.8821"
   style="stop-color:#FFFDFA"
   id="stop119" />
		<stop
   offset="1"
   style="stop-color:#FFFFFF"
   id="stop120" />
	</radialGradient>
	
	
		<radialGradient
   id="SVGID_00000183219144828788041900000009501216331486872757_"
   cx="361.95621"
   cy="86639.391"
   r="23.464399"
   gradientTransform="matrix(0.39367354,0,0,0.03103562,-214.34553,-2682.7199)"
   gradientUnits="userSpaceOnUse">
		<stop
   offset="0"
   style="stop-color:#FFC042"
   id="stop121" />
		<stop
   offset="0.0162"
   style="stop-color:#FFC247"
   id="stop122" />
		<stop
   offset="0.2071"
   style="stop-color:#FFD47E"
   id="stop123" />
		<stop
   offset="0.3929"
   style="stop-color:#FFE4AD"
   id="stop124" />
		<stop
   offset="0.5692"
   style="stop-color:#FFEFD0"
   id="stop125" />
		<stop
   offset="0.7338"
   style="stop-color:#FFF8EA"
   id="stop126" />
		<stop
   offset="0.8821"
   style="stop-color:#FFFDFA"
   id="stop127" />
		<stop
   offset="1"
   style="stop-color:#FFFFFF"
   id="stop128" />
	</radialGradient>
	

	
	
	
	
	
	
	
	
	
	
	
	
	
	
	
	

		
			<linearGradient
   id="SVGID_00000147935371948299451910000004543092986169022386_"
   gradientUnits="userSpaceOnUse"
   x1="164.06799"
   y1="151.7933"
   x2="172.34689"
   y2="203.9193"
   gradientTransform="matrix(1.810582,0,0,1.3726035,-205.5924,-170.36203)">
			<stop
   offset="0"
   style="stop-color:#FF1F00"
   id="stop259" />
			<stop
   offset="1"
   style="stop-color:#FFEE00"
   id="stop260" />
		</linearGradient>
		
		
			<linearGradient
   id="SVGID_00000085940695815778316940000014963811245895200400_"
   gradientUnits="userSpaceOnUse"
   x1="169.5885"
   y1="137.78709"
   x2="169.5885"
   y2="195.57671"
   gradientTransform="matrix(1.810582,0,0,1.3726035,-205.5924,-170.36203)">
			<stop
   offset="0"
   style="stop-color:#FF1F00"
   id="stop261" />
			<stop
   offset="1"
   style="stop-color:#FFEE00"
   id="stop262" />
		</linearGradient>
		
		
			<linearGradient
   id="SVGID_00000029740859723485798650000012617665382884913799_"
   gradientUnits="userSpaceOnUse"
   x1="169.89841"
   y1="146.1851"
   x2="169.89841"
   y2="196.4442"
   gradientTransform="matrix(1.810582,0,0,1.3726035,-205.5924,-170.36203)">
			<stop
   offset="0"
   style="stop-color:#000000"
   id="stop263" />
			<stop
   offset="1"
   style="stop-color:#FF8400"
   id="stop264" />
		</linearGradient>
		
		
			<linearGradient
   id="SVGID_00000028322741429936237140000010938297759065998977_"
   gradientUnits="userSpaceOnUse"
   x1="159.25729"
   y1="130.08279"
   x2="163.4071"
   y2="156.2112"
   gradientTransform="matrix(1.810582,0,0,1.3726035,-205.5924,-170.36203)">
			<stop
   offset="0"
   style="stop-color:#FF1F00"
   id="stop265" />
			<stop
   offset="1"
   style="stop-color:#FFEE00"
   id="stop266" />
		</linearGradient>
		
		
			<linearGradient
   id="SVGID_00000080207709840606735760000015507454919943773849_"
   gradientUnits="userSpaceOnUse"
   x1="159.14"
   y1="125.9414"
   x2="161.12019"
   y2="151.33459"
   gradientTransform="matrix(1.810582,0,0,1.3726035,-205.5924,-170.36203)">
			<stop
   offset="0"
   style="stop-color:#FF1F00"
   id="stop267" />
			<stop
   offset="1"
   style="stop-color:#FFEE00"
   id="stop268" />
		</linearGradient>
		
	<inkscape:path-effect
   effect="fillet_chamfer"
   id="path-effect4-6"
   is_visible="true"
   lpeversion="1"
   nodesatellites_param="F,0,0,1,0,1.0758579,0,1 @ F,0,0,1,0,0,0,1 @ F,0,0,1,0,0.88880327,0,1 @ F,0,0,1,0,0,0,1 @ F,0,0,1,0,1.0758579,0,1 @ F,0,0,1,0,2.2214472,0,1"
   radius="0"
   unit="px"
   method="auto"
   mode="F"
   chamfer_steps="1"
   flexible="false"
   use_knot_distance="true"
   apply_no_radius="true"
   apply_with_radius="true"
   only_selected="false"
   hide_knots="false" /><inkscape:path-effect
   effect="fillet_chamfer"
   id="path-effect3-1"
   is_visible="true"
   lpeversion="1"
   nodesatellites_param="F,0,0,1,0,0,0,1 @ F,0,0,1,0,0,0,1 @ F,0,0,1,0,0,0,1 @ F,0,0,1,0,0,0,1 @ F,0,0,1,0,0,0,1 @ F,0,0,1,0,0,0,1 @ F,0,0,1,0,0,0,1 @ F,0,0,1,0,0,0,1"
   radius="0"
   unit="px"
   method="auto"
   mode="F"
   chamfer_steps="1"
   flexible="false"
   use_knot_distance="true"
   apply_no_radius="true"
   apply_with_radius="true"
   only_selected="false"
   hide_knots="false" /><inkscape:path-effect
   effect="fillet_chamfer"
   id="path-effect2-8"
   is_visible="true"
   lpeversion="1"
   nodesatellites_param="F,0,0,1,0,0,0,1 @ F,0,0,1,0,0,0,1 @ F,0,0,1,0,0,0,1 @ F,0,0,1,0,0,0,1 @ F,0,0,1,0,0,0,1 @ F,0,0,1,0,0,0,1 @ F,0,0,1,0,0,0,1 @ F,0,0,1,0,0,0,1"
   radius="0"
   unit="px"
   method="auto"
   mode="F"
   chamfer_steps="1"
   flexible="false"
   use_knot_distance="true"
   apply_no_radius="true"
   apply_with_radius="true"
   only_selected="false"
   hide_knots="false" /><inkscape:path-effect
   effect="fillet_chamfer"
   id="path-effect7-4"
   is_visible="true"
   lpeversion="1"
   nodesatellites_param="F,0,0,1,0,0,0,1 @ F,0,0,1,0,0,0,1 @ F,0,0,1,0,1.0877082,0,1 @ F,0,0,1,0,0.98880604,0,1 @ F,0,0,1,0,1.011754,0,1"
   radius="0"
   unit="px"
   method="auto"
   mode="F"
   chamfer_steps="1"
   flexible="false"
   use_knot_distance="true"
   apply_no_radius="true"
   apply_with_radius="true"
   only_selected="false"
   hide_knots="false" /><inkscape:path-effect
   effect="fillet_chamfer"
   id="path-effect6-3"
   is_visible="true"
   lpeversion="1"
   nodesatellites_param="F,0,0,1,0,0,0,1 @ F,0,0,1,0,0,0,1 @ F,0,0,1,0,0.9004366,0,1 @ F,0,0,1,0,1.1898507,0,1 @ F,0,0,1,0,1.4203409,0,1"
   radius="0"
   unit="px"
   method="auto"
   mode="F"
   chamfer_steps="1"
   flexible="false"
   use_knot_distance="true"
   apply_no_radius="true"
   apply_with_radius="true"
   only_selected="false"
   hide_knots="false" /><inkscape:path-effect
   effect="fillet_chamfer"
   id="path-effect4-1"
   is_visible="true"
   lpeversion="1"
   nodesatellites_param="F,0,0,1,0,1.0758579,0,1 @ F,0,0,1,0,0,0,1 @ F,0,0,1,0,0.88880327,0,1 @ F,0,0,1,0,0,0,1 @ F,0,0,1,0,1.0758579,0,1 @ F,0,0,1,0,2.2214472,0,1"
   radius="0"
   unit="px"
   method="auto"
   mode="F"
   chamfer_steps="1"
   flexible="false"
   use_knot_distance="true"
   apply_no_radius="true"
   apply_with_radius="true"
   only_selected="false"
   hide_knots="false" /><inkscape:path-effect
   effect="fillet_chamfer"
   id="path-effect3-2"
   is_visible="true"
   lpeversion="1"
   nodesatellites_param="F,0,0,1,0,0,0,1 @ F,0,0,1,0,0,0,1 @ F,0,0,1,0,0,0,1 @ F,0,0,1,0,0,0,1 @ F,0,0,1,0,0,0,1 @ F,0,0,1,0,0,0,1 @ F,0,0,1,0,0,0,1 @ F,0,0,1,0,0,0,1"
   radius="0"
   unit="px"
   method="auto"
   mode="F"
   chamfer_steps="1"
   flexible="false"
   use_knot_distance="true"
   apply_no_radius="true"
   apply_with_radius="true"
   only_selected="false"
   hide_knots="false" /><inkscape:path-effect
   effect="fillet_chamfer"
   id="path-effect2-3"
   is_visible="true"
   lpeversion="1"
   nodesatellites_param="F,0,0,1,0,0,0,1 @ F,0,0,1,0,0,0,1 @ F,0,0,1,0,0,0,1 @ F,0,0,1,0,0,0,1 @ F,0,0,1,0,0,0,1 @ F,0,0,1,0,0,0,1 @ F,0,0,1,0,0,0,1 @ F,0,0,1,0,0,0,1"
   radius="0"
   unit="px"
   method="auto"
   mode="F"
   chamfer_steps="1"
   flexible="false"
   use_knot_distance="true"
   apply_no_radius="true"
   apply_with_radius="true"
   only_selected="false"
   hide_knots="false" /><radialGradient
   id="SVGID_1_-3"
   cx="69.549599"
   cy="86639.391"
   r="23.4655"
   gradientTransform="matrix(0.26458333,0,0,0.03103562,-170.36387,-2682.7199)"
   gradientUnits="userSpaceOnUse">
		<stop
   offset="0"
   style="stop-color:#FFC042"
   id="stop1-4" />
		<stop
   offset="0.0162"
   style="stop-color:#FFC247"
   id="stop2-1" />
		<stop
   offset="0.2071"
   style="stop-color:#FFD47E"
   id="stop3-1" />
		<stop
   offset="0.3929"
   style="stop-color:#FFE4AD"
   id="stop4-3" />
		<stop
   offset="0.5692"
   style="stop-color:#FFEFD0"
   id="stop5-8" />
		<stop
   offset="0.7338"
   style="stop-color:#FFF8EA"
   id="stop6-7" />
		<stop
   offset="0.8821"
   style="stop-color:#FFFDFA"
   id="stop7-4" />
		<stop
   offset="1"
   style="stop-color:#FFFFFF"
   id="stop8-2" />
	</radialGradient><radialGradient
   id="SVGID_00000017491165226217518050000003680051304414230446_-7"
   cx="162.7363"
   cy="86639.391"
   r="23.465799"
   gradientTransform="matrix(0.26458333,0,0,0.03103562,-170.36387,-2682.7199)"
   gradientUnits="userSpaceOnUse">
		<stop
   offset="0"
   style="stop-color:#FFC042"
   id="stop9-7" />
		<stop
   offset="0.0162"
   style="stop-color:#FFC247"
   id="stop10-9" />
		<stop
   offset="0.2071"
   style="stop-color:#FFD47E"
   id="stop11-3" />
		<stop
   offset="0.3929"
   style="stop-color:#FFE4AD"
   id="stop12-1" />
		<stop
   offset="0.5692"
   style="stop-color:#FFEFD0"
   id="stop13-9" />
		<stop
   offset="0.7338"
   style="stop-color:#FFF8EA"
   id="stop14-8" />
		<stop
   offset="0.8821"
   style="stop-color:#FFFDFA"
   id="stop15-6" />
		<stop
   offset="1"
   style="stop-color:#FFFFFF"
   id="stop16-5" />
	</radialGradient><radialGradient
   id="SVGID_00000057144911357649507230000012081353341769846711_-0"
   cx="261.92151"
   cy="86640.633"
   r="23.465099"
   gradientTransform="matrix(0.37062833,-0.00423333,3.4395833e-4,0.03103562,-228.77527,-2681.4435)"
   gradientUnits="userSpaceOnUse">
		<stop
   offset="0"
   style="stop-color:#FFC042"
   id="stop17-2" />
		<stop
   offset="0.0162"
   style="stop-color:#FFC247"
   id="stop18-8" />
		<stop
   offset="0.2071"
   style="stop-color:#FFD47E"
   id="stop19-6" />
		<stop
   offset="0.3929"
   style="stop-color:#FFE4AD"
   id="stop20-0" />
		<stop
   offset="0.5692"
   style="stop-color:#FFEFD0"
   id="stop21-2" />
		<stop
   offset="0.7338"
   style="stop-color:#FFF8EA"
   id="stop22-4" />
		<stop
   offset="0.8821"
   style="stop-color:#FFFDFA"
   id="stop23-8" />
		<stop
   offset="1"
   style="stop-color:#FFFFFF"
   id="stop24-6" />
	</radialGradient><radialGradient
   id="SVGID_00000062181308213166424650000009945774080076653202_-5"
   cx="69.549599"
   cy="87884.766"
   r="23.4634"
   gradientTransform="matrix(0.26458333,0,0,0.03667125,-170.36387,-3188.9308)"
   gradientUnits="userSpaceOnUse">
		<stop
   offset="0"
   style="stop-color:#FFC042"
   id="stop25-0" />
		<stop
   offset="0.0162"
   style="stop-color:#FFC247"
   id="stop26-9" />
		<stop
   offset="0.2071"
   style="stop-color:#FFD47E"
   id="stop27-0" />
		<stop
   offset="0.3929"
   style="stop-color:#FFE4AD"
   id="stop28-0" />
		<stop
   offset="0.5692"
   style="stop-color:#FFEFD0"
   id="stop29-6" />
		<stop
   offset="0.7338"
   style="stop-color:#FFF8EA"
   id="stop30-1" />
		<stop
   offset="0.8821"
   style="stop-color:#FFFDFA"
   id="stop31-3" />
		<stop
   offset="1"
   style="stop-color:#FFFFFF"
   id="stop32-8" />
	</radialGradient><radialGradient
   id="SVGID_00000129186816541277285560000008403992092527079813_-9"
   cx="171.6723"
   cy="87884.766"
   r="23.463301"
   gradientTransform="matrix(0.26458333,0,0,0.03667125,-170.36387,-3188.9308)"
   gradientUnits="userSpaceOnUse">
		<stop
   offset="0"
   style="stop-color:#FFC042"
   id="stop33-3" />
		<stop
   offset="0.0162"
   style="stop-color:#FFC247"
   id="stop34-4" />
		<stop
   offset="0.2071"
   style="stop-color:#FFD47E"
   id="stop35-4" />
		<stop
   offset="0.3929"
   style="stop-color:#FFE4AD"
   id="stop36-6" />
		<stop
   offset="0.5692"
   style="stop-color:#FFEFD0"
   id="stop37-0" />
		<stop
   offset="0.7338"
   style="stop-color:#FFF8EA"
   id="stop38-6" />
		<stop
   offset="0.8821"
   style="stop-color:#FFFDFA"
   id="stop39-6" />
		<stop
   offset="1"
   style="stop-color:#FFFFFF"
   id="stop40-1" />
	</radialGradient><radialGradient
   id="SVGID_00000049909335490991227300000005275649504862633638_-8"
   cx="265.9736"
   cy="87884.766"
   r="23.463301"
   gradientTransform="matrix(0.26458333,0,0,0.03667125,-170.36387,-3188.9308)"
   gradientUnits="userSpaceOnUse">
		<stop
   offset="0"
   style="stop-color:#FFC042"
   id="stop41-4" />
		<stop
   offset="0.0162"
   style="stop-color:#FFC247"
   id="stop42-9" />
		<stop
   offset="0.2071"
   style="stop-color:#FFD47E"
   id="stop43-6" />
		<stop
   offset="0.3929"
   style="stop-color:#FFE4AD"
   id="stop44-3" />
		<stop
   offset="0.5692"
   style="stop-color:#FFEFD0"
   id="stop45-7" />
		<stop
   offset="0.7338"
   style="stop-color:#FFF8EA"
   id="stop46-8" />
		<stop
   offset="0.8821"
   style="stop-color:#FFFDFA"
   id="stop47-8" />
		<stop
   offset="1"
   style="stop-color:#FFFFFF"
   id="stop48-2" />
	</radialGradient><radialGradient
   id="SVGID_00000070800293789113609130000015712227114847150499_-9"
   cx="367.45749"
   cy="87884.766"
   r="23.4639"
   gradientTransform="matrix(0.26458333,0,0,0.03667125,-170.36387,-3188.9308)"
   gradientUnits="userSpaceOnUse">
		<stop
   offset="0"
   style="stop-color:#FFC042"
   id="stop49-1" />
		<stop
   offset="0.0162"
   style="stop-color:#FFC247"
   id="stop50-3" />
		<stop
   offset="0.2071"
   style="stop-color:#FFD47E"
   id="stop51-5" />
		<stop
   offset="0.3929"
   style="stop-color:#FFE4AD"
   id="stop52-9" />
		<stop
   offset="0.5692"
   style="stop-color:#FFEFD0"
   id="stop53-8" />
		<stop
   offset="0.7338"
   style="stop-color:#FFF8EA"
   id="stop54-4" />
		<stop
   offset="0.8821"
   style="stop-color:#FFFDFA"
   id="stop55-0" />
		<stop
   offset="1"
   style="stop-color:#FFFFFF"
   id="stop56-7" />
	</radialGradient><radialGradient
   id="SVGID_00000091704996109097532360000015950613859946710942_-6"
   cx="73.379204"
   cy="89113.688"
   r="23.4657"
   gradientTransform="matrix(0.26458333,0,0,0.03950229,-170.36387,-3457.4485)"
   gradientUnits="userSpaceOnUse">
		<stop
   offset="0"
   style="stop-color:#FFC042"
   id="stop57-3" />
		<stop
   offset="0.0162"
   style="stop-color:#FFC247"
   id="stop58-6" />
		<stop
   offset="0.2071"
   style="stop-color:#FFD47E"
   id="stop59-1" />
		<stop
   offset="0.3929"
   style="stop-color:#FFE4AD"
   id="stop60-5" />
		<stop
   offset="0.5692"
   style="stop-color:#FFEFD0"
   id="stop61-4" />
		<stop
   offset="0.7338"
   style="stop-color:#FFF8EA"
   id="stop62-2" />
		<stop
   offset="0.8821"
   style="stop-color:#FFFDFA"
   id="stop63-0" />
		<stop
   offset="1"
   style="stop-color:#FFFFFF"
   id="stop64-9" />
	</radialGradient><radialGradient
   id="SVGID_00000145759391242409786700000001593391930056410047_-7"
   cx="169.2793"
   cy="89113.688"
   r="23.465799"
   gradientTransform="matrix(0.26458333,0,0,0.03950229,-170.36387,-3457.4485)"
   gradientUnits="userSpaceOnUse">
		<stop
   offset="0"
   style="stop-color:#FFC042"
   id="stop65-3" />
		<stop
   offset="0.0162"
   style="stop-color:#FFC247"
   id="stop66-7" />
		<stop
   offset="0.2071"
   style="stop-color:#FFD47E"
   id="stop67-2" />
		<stop
   offset="0.3929"
   style="stop-color:#FFE4AD"
   id="stop68-6" />
		<stop
   offset="0.5692"
   style="stop-color:#FFEFD0"
   id="stop69-0" />
		<stop
   offset="0.7338"
   style="stop-color:#FFF8EA"
   id="stop70-1" />
		<stop
   offset="0.8821"
   style="stop-color:#FFFDFA"
   id="stop71-6" />
		<stop
   offset="1"
   style="stop-color:#FFFFFF"
   id="stop72-5" />
	</radialGradient><radialGradient
   id="SVGID_00000051343970944853086230000012789295974477938322_-7"
   cx="269.8042"
   cy="89113.688"
   r="23.465599"
   gradientTransform="matrix(0.26458333,0,0,0.03950229,-170.36387,-3457.4485)"
   gradientUnits="userSpaceOnUse">
		<stop
   offset="0"
   style="stop-color:#FFC042"
   id="stop73-5" />
		<stop
   offset="0.0162"
   style="stop-color:#FFC247"
   id="stop74-4" />
		<stop
   offset="0.2071"
   style="stop-color:#FFD47E"
   id="stop75-1" />
		<stop
   offset="0.3929"
   style="stop-color:#FFE4AD"
   id="stop76-2" />
		<stop
   offset="0.5692"
   style="stop-color:#FFEFD0"
   id="stop77-0" />
		<stop
   offset="0.7338"
   style="stop-color:#FFF8EA"
   id="stop78-0" />
		<stop
   offset="0.8821"
   style="stop-color:#FFFDFA"
   id="stop79-1" />
		<stop
   offset="1"
   style="stop-color:#FFFFFF"
   id="stop80-4" />
	</radialGradient><radialGradient
   id="SVGID_00000082327987348496982530000005695122870166384316_-6"
   cx="377.03171"
   cy="89113.688"
   r="23.466101"
   gradientTransform="matrix(0.26458333,0,0,0.03950229,-170.36387,-3457.4485)"
   gradientUnits="userSpaceOnUse">
		<stop
   offset="0"
   style="stop-color:#FFC042"
   id="stop81-0" />
		<stop
   offset="0.0162"
   style="stop-color:#FFC247"
   id="stop82-7" />
		<stop
   offset="0.2071"
   style="stop-color:#FFD47E"
   id="stop83-1" />
		<stop
   offset="0.3929"
   style="stop-color:#FFE4AD"
   id="stop84-7" />
		<stop
   offset="0.5692"
   style="stop-color:#FFEFD0"
   id="stop85-7" />
		<stop
   offset="0.7338"
   style="stop-color:#FFF8EA"
   id="stop86-7" />
		<stop
   offset="0.8821"
   style="stop-color:#FFFDFA"
   id="stop87-7" />
		<stop
   offset="1"
   style="stop-color:#FFFFFF"
   id="stop88-3" />
	</radialGradient><radialGradient
   id="SVGID_00000041986455432770903490000010044259755797563042_-3"
   cx="74.336601"
   cy="90325.164"
   r="23.466"
   gradientTransform="matrix(0.26458333,0,0,0.03103562,-170.36387,-2713.9137)"
   gradientUnits="userSpaceOnUse">
		<stop
   offset="0"
   style="stop-color:#FFC042"
   id="stop89-5" />
		<stop
   offset="0.0162"
   style="stop-color:#FFC247"
   id="stop90-9" />
		<stop
   offset="0.2071"
   style="stop-color:#FFD47E"
   id="stop91-9" />
		<stop
   offset="0.3929"
   style="stop-color:#FFE4AD"
   id="stop92-8" />
		<stop
   offset="0.5692"
   style="stop-color:#FFEFD0"
   id="stop93-1" />
		<stop
   offset="0.7338"
   style="stop-color:#FFF8EA"
   id="stop94-8" />
		<stop
   offset="0.8821"
   style="stop-color:#FFFDFA"
   id="stop95-2" />
		<stop
   offset="1"
   style="stop-color:#FFFFFF"
   id="stop96-6" />
	</radialGradient><radialGradient
   id="SVGID_00000163780498512609527580000013368104648154647989_-6"
   cx="162.7363"
   cy="90325.164"
   r="23.466299"
   gradientTransform="matrix(0.26458333,0,0,0.03103562,-170.36387,-2713.9137)"
   gradientUnits="userSpaceOnUse">
		<stop
   offset="0"
   style="stop-color:#FFC042"
   id="stop97-0" />
		<stop
   offset="0.0162"
   style="stop-color:#FFC247"
   id="stop98-3" />
		<stop
   offset="0.2071"
   style="stop-color:#FFD47E"
   id="stop99-8" />
		<stop
   offset="0.3929"
   style="stop-color:#FFE4AD"
   id="stop100-0" />
		<stop
   offset="0.5692"
   style="stop-color:#FFEFD0"
   id="stop101-1" />
		<stop
   offset="0.7338"
   style="stop-color:#FFF8EA"
   id="stop102-2" />
		<stop
   offset="0.8821"
   style="stop-color:#FFFDFA"
   id="stop103-5" />
		<stop
   offset="1"
   style="stop-color:#FFFFFF"
   id="stop104-0" />
	</radialGradient><radialGradient
   id="SVGID_00000078038050646659129320000008808924160133951925_-9"
   cx="275.54791"
   cy="90325.164"
   r="23.4659"
   gradientTransform="matrix(0.26458333,0,0,0.03103562,-170.36387,-2713.9137)"
   gradientUnits="userSpaceOnUse">
		<stop
   offset="0"
   style="stop-color:#FFC042"
   id="stop105-4" />
		<stop
   offset="0.0162"
   style="stop-color:#FFC247"
   id="stop106-7" />
		<stop
   offset="0.2071"
   style="stop-color:#FFD47E"
   id="stop107-8" />
		<stop
   offset="0.3929"
   style="stop-color:#FFE4AD"
   id="stop108-3" />
		<stop
   offset="0.5692"
   style="stop-color:#FFEFD0"
   id="stop109-5" />
		<stop
   offset="0.7338"
   style="stop-color:#FFF8EA"
   id="stop110-1" />
		<stop
   offset="0.8821"
   style="stop-color:#FFFDFA"
   id="stop111-2" />
		<stop
   offset="1"
   style="stop-color:#FFFFFF"
   id="stop112-0" />
	</radialGradient><radialGradient
   id="SVGID_00000017488731610769851240000014803845823634522510_-1"
   cx="373.83939"
   cy="90325.164"
   r="23.466101"
   gradientTransform="matrix(0.26458333,0,0,0.03103562,-170.36387,-2713.9137)"
   gradientUnits="userSpaceOnUse">
		<stop
   offset="0"
   style="stop-color:#FFC042"
   id="stop113-6" />
		<stop
   offset="0.0162"
   style="stop-color:#FFC247"
   id="stop114-4" />
		<stop
   offset="0.2071"
   style="stop-color:#FFD47E"
   id="stop115-0" />
		<stop
   offset="0.3929"
   style="stop-color:#FFE4AD"
   id="stop116-6" />
		<stop
   offset="0.5692"
   style="stop-color:#FFEFD0"
   id="stop117-1" />
		<stop
   offset="0.7338"
   style="stop-color:#FFF8EA"
   id="stop118-8" />
		<stop
   offset="0.8821"
   style="stop-color:#FFFDFA"
   id="stop119-9" />
		<stop
   offset="1"
   style="stop-color:#FFFFFF"
   id="stop120-8" />
	</radialGradient><radialGradient
   id="SVGID_00000183219144828788041900000009501216331486872757_-4"
   cx="361.95621"
   cy="86639.391"
   r="23.464399"
   gradientTransform="matrix(0.39367354,0,0,0.03103562,-214.34553,-2682.7199)"
   gradientUnits="userSpaceOnUse">
		<stop
   offset="0"
   style="stop-color:#FFC042"
   id="stop121-1" />
		<stop
   offset="0.0162"
   style="stop-color:#FFC247"
   id="stop122-4" />
		<stop
   offset="0.2071"
   style="stop-color:#FFD47E"
   id="stop123-3" />
		<stop
   offset="0.3929"
   style="stop-color:#FFE4AD"
   id="stop124-9" />
		<stop
   offset="0.5692"
   style="stop-color:#FFEFD0"
   id="stop125-8" />
		<stop
   offset="0.7338"
   style="stop-color:#FFF8EA"
   id="stop126-8" />
		<stop
   offset="0.8821"
   style="stop-color:#FFFDFA"
   id="stop127-0" />
		<stop
   offset="1"
   style="stop-color:#FFFFFF"
   id="stop128-8" />
	</radialGradient><inkscape:path-effect
   effect="fillet_chamfer"
   id="path-effect4-9"
   is_visible="true"
   lpeversion="1"
   nodesatellites_param="F,0,0,1,0,1.0758579,0,1 @ F,0,0,1,0,0,0,1 @ F,0,0,1,0,0.88880327,0,1 @ F,0,0,1,0,0,0,1 @ F,0,0,1,0,1.0758579,0,1 @ F,0,0,1,0,2.2214472,0,1"
   radius="0"
   unit="px"
   method="auto"
   mode="F"
   chamfer_steps="1"
   flexible="false"
   use_knot_distance="true"
   apply_no_radius="true"
   apply_with_radius="true"
   only_selected="false"
   hide_knots="false" /><inkscape:path-effect
   effect="fillet_chamfer"
   id="path-effect3-5"
   is_visible="true"
   lpeversion="1"
   nodesatellites_param="F,0,0,1,0,0,0,1 @ F,0,0,1,0,0,0,1 @ F,0,0,1,0,0,0,1 @ F,0,0,1,0,0,0,1 @ F,0,0,1,0,0,0,1 @ F,0,0,1,0,0,0,1 @ F,0,0,1,0,0,0,1 @ F,0,0,1,0,0,0,1"
   radius="0"
   unit="px"
   method="auto"
   mode="F"
   chamfer_steps="1"
   flexible="false"
   use_knot_distance="true"
   apply_no_radius="true"
   apply_with_radius="true"
   only_selected="false"
   hide_knots="false" /><inkscape:path-effect
   effect="fillet_chamfer"
   id="path-effect2-2"
   is_visible="true"
   lpeversion="1"
   nodesatellites_param="F,0,0,1,0,0,0,1 @ F,0,0,1,0,0,0,1 @ F,0,0,1,0,0,0,1 @ F,0,0,1,0,0,0,1 @ F,0,0,1,0,0,0,1 @ F,0,0,1,0,0,0,1 @ F,0,0,1,0,0,0,1 @ F,0,0,1,0,0,0,1"
   radius="0"
   unit="px"
   method="auto"
   mode="F"
   chamfer_steps="1"
   flexible="false"
   use_knot_distance="true"
   apply_no_radius="true"
   apply_with_radius="true"
   only_selected="false"
   hide_knots="false" /></defs><g
     inkscape:label="Camada 1"
     inkscape:groupmode="layer"
     id="layer1"><g
       id="g16"
       transform="matrix(0.26458333,0,0,0.26458333,-796.57002,-277.7792)"><path
         d="m 0,0 c 5.3609023,-0.77819549 5.3609023,-0.77819549 8,0 4.285307,3.6771148 7.511813,8.1440979 10.8125,12.6875 0.753135,1.01417 0.753135,1.01417 1.521484,2.048828 C 24,19.749043 24,19.749043 24,22 c 0.53625,0.226875 1.0725,0.45375 1.625,0.6875 3.336381,1.84379 5.683445,3.558351 8.375,6.3125 -0.0678,3.390061 -0.932853,5.798558 -2,9 1.485,0.495 1.485,0.495 3,1 0.114727,1.265859 0.229453,2.531719 0.347656,3.835937 1.820445,15.211994 7.001794,27.970391 13.431885,41.71045 0.33285,0.713964 0.6657,1.427928 1.008636,2.163528 0.629568,1.342012 1.26702,2.680366 1.91388,4.01413 2.518512,5.316992 3.917575,9.244939 2.172943,14.963455 -2.086632,3.68638 -3.086133,4.58045 -6.875,6.3125 -2.70091,0.26922 -5.122212,0.38028 -7.8125,0.3125 -0.744111,-0.012 -1.488223,-0.024 -2.254883,-0.0364 C 26.607418,112.01985 16.79451,111.43708 7.25,107.1875 1.3200284,104.65876 -2.460001,105.07397 -8.5390625,106.97266 -11.18473,107.98496 -11.18473,107.98496 -14,110 c -1.961182,0.24292 -1.961182,0.24292 -4.160156,0.23047 -0.793418,-0.002 -1.586836,-0.004 -2.404297,-0.006 -0.824356,-0.0122 -1.648711,-0.0245 -2.498047,-0.0371 -0.828223,-6.4e-4 -1.656445,-0.001 -2.509766,-0.002 -6.146665,-0.045 -6.146665,-0.045 -8.427734,-1.18555 -0.33,-0.99 -0.66,-1.98 -1,-3 -2.711777,-1.62229 -2.711777,-1.62229 -5.9375,-3.0625 C -46.816144,100.18386 -46.816144,100.18386 -49,98 -49.563796,91.008934 -49.563796,91.008934 -47.82373,87.89502 -46,86 -46,86 -43.456299,85.545898 c 0.989758,0.02095 1.979517,0.0419 2.999268,0.06348 1.073144,0.01289 2.146289,0.02578 3.251953,0.03906 1.119551,0.03352 2.239101,0.06703 3.392578,0.101563 1.131152,0.01805 2.262305,0.03609 3.427734,0.05469 C -27.588996,85.851873 -24.79492,85.917694 -22,86 -22.470508,85.116992 -22.941016,84.233984 -23.425781,83.324219 -26.859241,76.751701 -29.679899,70.588058 -31.375,63.320312 -31.959571,60.773045 -31.959571,60.773045 -33.75,57.875 -35.564341,53.702015 -35.238078,50.333272 -34,46 c 2.873609,-4.693561 6.212036,-6.783677 10.8125,-9.75 4.001645,-2.702086 4.001645,-2.702086 5.96875,-6.914063 C -17.188537,26.714994 -17.300522,24.525632 -18,22 c -0.66,-0.66 -1.32,-1.32 -2,-2 0.1875,-2.1875 0.1875,-2.1875 1,-5 0.2475,-1.175625 0.495,-2.35125 0.75,-3.5625 C -17.484375,9.6328125 -17.484375,9.6328125 -16,8 -12.711344,6.6828158 -9.4835266,5.8087341 -6.03125,5.0195312 -2.6044597,3.8669639 -1.9940276,2.8686012 0,0 Z m 15,27 c -2.296555,2.439346 -2.985246,3.619359 -3.117187,7.023437 0.07992,1.106016 0.159843,2.212032 0.242187,3.351563 0.193215,7.165063 0.193215,7.165063 -2.5,10.375 -3.6026089,3.08795 -5.5914579,3.433316 -10.25,3.8125 -1.5043359,0.125684 -1.5043359,0.125684 -3.0390625,0.253906 C -4.4349219,51.876992 -5.2057812,51.937578 -6,52 c -2.5477087,7.28328 -3.8410489,11.917674 -0.5625,19.1875 2.7547621,3.023519 3.6398711,3.313442 7.4375,4.25 C 6.3731727,76.799879 8.9970059,79.282459 12,84 c 0.250562,0.657825 0.501123,1.315649 0.759277,1.993408 1.693617,2.739047 3.195271,3.015997 6.248535,3.928467 0.986133,0.30293 1.972266,0.605859 2.988282,0.917969 1.032539,0.300351 2.065078,0.600703 3.128906,0.910156 1.040273,0.31582 2.080547,0.631641 3.152344,0.957031 C 30.847745,93.485226 33.421595,94.248836 36,95 35.406678,91.909847 34.712594,89.113386 33.5625,86.1875 31.765473,81.097355 31.321248,75.944305 30.998291,70.584717 30.664718,66.816573 30.306725,65.285703 27.492187,62.664062 26.669766,62.114922 25.847344,61.565781 25,61 24,58.6875 24,58.6875 24,56 24.719092,54.333015 25.441362,52.667137 26.195312,51.015625 27.797764,47.001717 28.801994,43.306504 28,39 25.412567,35.741958 22.314297,33.476261 19,31 17.644991,29.688701 16.304539,28.361519 15,27 Z"
         fill="#d74100"
         transform="translate(63,8)"
         id="path1" /><path
         d="m 0,0 c 5.3609023,-0.77819549 5.3609023,-0.77819549 8,0 4.285307,3.6771148 7.511813,8.1440979 10.8125,12.6875 0.753135,1.01417 0.753135,1.01417 1.521484,2.048828 C 24,19.749043 24,19.749043 24,22 c 0.53625,0.226875 1.0725,0.45375 1.625,0.6875 3.336381,1.84379 5.683445,3.558351 8.375,6.3125 -0.0678,3.390061 -0.932853,5.798558 -2,9 0.99,0.33 1.98,0.66 3,1 0.506481,2.707264 1.005351,5.415571 1.5,8.125 0.143086,0.760547 0.286172,1.521094 0.433594,2.304687 C 37.703125,53.680429 38.166444,57.658592 38,62 33.894795,63.622988 31.254355,64.379791 27,63 24,61 24,61 23.125,58.8125 22.984658,55.654808 23.904637,53.842819 25.195312,51.015625 26.79728,47.002929 27.807098,43.304522 27,39 c -2.594285,-3.253849 -5.666547,-5.545264 -9,-8 -1.020861,-0.978695 -2.030355,-1.970539 -3,-3 -2.427281,3.640922 -2.048253,4.975047 -1.75,9.25 0.09407,4.682676 -0.02099,7.401151 -3.125,11 -3.5492046,3.463475 -5.8125942,3.869912 -10.75,3.8125 -1.0028906,-0.009 -2.0057813,-0.01805 -3.0390625,-0.02734 C -4.4349219,52.023555 -5.2057812,52.011953 -6,52 c 0,0.66 0,1.32 0,2 -9.527215,0.750831 -9.527215,0.750831 -14.1875,-1.625 C -23.090421,46.969561 -23.067813,40.994483 -22,35 c 1.300216,-1.042697 2.632975,-2.046574 4,-3 0.557263,-2.435814 0.557263,-2.435814 0.375,-5.0625 -0.01934,-1.316777 -0.01934,-1.316777 -0.03906,-2.660156 C -17.797502,21.804934 -17.797502,21.804934 -20,20 c 0.1875,-2.1875 0.1875,-2.1875 1,-5 0.2475,-1.175625 0.495,-2.35125 0.75,-3.5625 C -17.484375,9.6328125 -17.484375,9.6328125 -16,8 -12.711344,6.6828158 -9.4835266,5.8087341 -6.03125,5.0195312 -2.6044597,3.8669639 -1.9940276,2.8686012 0,0 Z"
         fill="#eeb58e"
         transform="translate(63,8)"
         id="path2" /><path
         d="M 0,0 C 0.06058594,0.90363281 0.12117188,1.8072656 0.18359375,2.7382813 0.30927734,4.5075195 0.30927734,4.5075195 0.4375,6.3125 0.51871094,7.4842578 0.59992187,8.6560156 0.68359375,9.8632813 0.8867371,13.02591 0.8867371,13.02591 2,16 c 4.29,0.66 8.58,1.32 13,2 -0.2475,1.85625 -0.495,3.7125 -0.75,5.625 -0.498223,5.376316 -0.498223,5.376316 1.6875,10.125 C 16.958437,34.86375 16.958437,34.86375 18,36 16.489226,40.391318 13.083377,42.317368 9.375,44.75 8.7639844,45.161211 8.1529688,45.572422 7.5234375,45.996094 6.0210467,47.005513 4.5112309,48.003865 3,49 c 1.3359166,4.071365 2.941028,6.228485 6.1875,9 0.7966406,0.683203 1.593281,1.366406 2.414063,2.070312 2.105499,1.694002 4.237587,3.27103 6.460937,4.804688 1.454062,1.051875 1.454062,1.051875 2.9375,2.125 0,0.66 0,1.32 0,2 -0.68707,0.193359 -1.374141,0.386719 -2.082031,0.585937 -1.351582,0.390586 -1.351582,0.390586 -2.730469,0.789063 -1.33998,0.382852 -1.33998,0.382852 -2.707031,0.773437 C 10.795321,71.952667 10.795321,71.952667 8,74 c -1.9611816,0.24292 -1.9611816,0.24292 -4.1601562,0.230469 -0.793418,-0.0019 -1.586836,-0.0039 -2.4042969,-0.0059 -0.82435549,-0.01225 -1.64871096,-0.02449 -2.4980469,-0.03711 -0.8282227,-6.45e-4 -1.6564453,-0.0013 -2.5097656,-0.002 C -9.7189306,74.140535 -9.7189306,74.140535 -12,73 c -0.33,-0.99 -0.66,-1.98 -1,-3 -2.711777,-1.622295 -2.711777,-1.622295 -5.9375,-3.0625 C -24.816143,64.183857 -24.816143,64.183857 -27,62 -27.563796,55.008934 -27.563796,55.008934 -25.82373,51.89502 -24,50 -24,50 -21.456299,49.545898 c 0.989758,0.02095 1.979517,0.04189 2.999268,0.06348 1.073144,0.01289 2.146289,0.02578 3.251953,0.03906 1.119551,0.03352 2.239101,0.06703 3.392578,0.101563 1.131152,0.01805 2.2623047,0.03609 3.4277344,0.05469 C -5.5889962,49.851873 -2.7949203,49.917694 0,50 -0.47050781,49.116992 -0.94101562,48.233984 -1.4257812,47.324219 -4.8592407,40.751701 -7.6798991,34.588058 -9.375,27.320312 -9.9595713,24.773045 -9.9595713,24.773045 -11.75,21.875 -13.557796,17.71707 -13.262948,14.315718 -12,10 -9.8132082,6.6885725 -4.6714169,0 0,0 Z"
         fill="#b63700"
         transform="translate(41,44)"
         id="path3" /><path
         d="M 0,0 C 3.2152431,1.4084472 5.3218387,3.1034479 7.75,5.625 8.6703906,6.5724609 8.6703906,6.5724609 9.609375,7.5390625 10.068281,8.0211719 10.527188,8.5032813 11,9 10.251699,10.040273 10.251699,10.040273 9.4882813,11.101563 7.7027434,14.578909 7.8712801,16.516201 8.1875,20.375 8.3195691,25.034398 8.210709,27.666116 5.125,31.25 1.5757954,34.713475 -0.68759423,35.119912 -5.625,35.0625 -6.6278906,35.0535 -7.6307812,35.04445 -8.6640625,35.03516 -9.4349219,35.023555 -10.205781,35.011953 -11,35 -10.603172,28.849161 -9.4184349,24.187468 -6.9726562,18.550781 -5.9766148,15.938673 -5.4581858,13.503243 -5,10.75 -4.2213117,6.2619239 -2.8108182,3.5603698 0,0 Z"
         fill="#7b4a23"
         transform="translate(68,25)"
         id="path4" /><path
         d="M 0,0 C 0.06058594,0.90363281 0.12117188,1.8072656 0.18359375,2.7382813 0.26738281,3.9177734 0.35117187,5.0972656 0.4375,6.3125 0.51871094,7.4842578 0.59992187,8.6560156 0.68359375,9.8632813 0.8867371,13.02591 0.8867371,13.02591 2,16 c 4.29,0.66 8.58,1.32 13,2 -0.33,2.64 -0.66,5.28 -1,8 C 6.6705917,28.002364 -0.40935336,29.512989 -8,30 -14.017755,18.859865 -14.017755,18.859865 -12.707031,12 -11.22351,7.8035207 -5.2348339,0 0,0 Z"
         fill="#d74201"
         transform="translate(41,44)"
         id="path5" /><path
         d="m 0,0 c 0.66,1.32 1.32,2.64 2,4 1.3154238,2.0118246 2.6459068,4.0139966 4,6 -1.5425074,4.584675 -5.19703309,6.623051 -9,9.25 -0.6419531,0.458906 -1.2839062,0.917812 -1.9453125,1.390625 C -9.7244234,24 -9.7244234,24 -12,24 c -1.156073,-2.203481 -2.299847,-4.412032 -3.4375,-6.625 -0.325488,-0.617461 -0.650977,-1.234922 -0.986328,-1.871094 C -18.496981,11.443091 -19.224309,8.6541439 -20,4 -13.4,2.68 -6.8,1.36 0,0 Z"
         fill="#efb68d"
         transform="translate(53,70)"
         id="path6" /><path
         d="M 0,0 C 1.2607031,0.02030273 1.2607031,0.02030273 2.546875,0.04101562 4.6148594,0.07626536 6.6825127,0.1300698 8.75,0.1875 c 0.75,2.75 0.75,2.75 1,6 -1.3671875,2.3554688 -1.3671875,2.3554688 -4,4 C 2.6903854,10.683918 -0.28439176,10.609856 -3.375,10.5 -4.1987109,10.4903 -5.0224219,10.48066 -5.8710937,10.4707 -11.910953,10.357023 -11.910953,10.357023 -14.25,9.1875 -13.769747,3.7846564 -13.769747,3.7846564 -11.78125,1.5 -7.925717,-0.49916527 -4.2707181,-0.13012344 0,0 Z"
         fill="#efb48c"
         transform="translate(43.25,107.8125)"
         id="path7" /></g><g
       id="g17"
       transform="matrix(1.2190888,0,0,1.2190888,24.796349,19.21862)"
       style="stroke-width:0.217034"><g
         id="g18"
         transform="matrix(0.26049571,0,0,0.26049571,-4.9314694,22.758514)"
         style="stroke-width:0.180823"><path
           d="M 0,0 C 0.89912109,0.21430664 1.7982422,0.42861328 2.7246094,0.64941406 40.354916,9.9021058 71.580751,29.957441 99.365723,56.449219 c 1.338217,1.269847 2.692967,2.522249 4.052247,3.769531 20.41486,19.233164 30.02304,48.70841 31.08203,76.09375 0.0169,1.03798 0.0169,1.03798 0.0342,2.09692 0.39137,13.65795 6.24406,25.81147 11.52832,38.15308 0.80829,1.90602 1.61565,3.81244 2.42212,5.71924 1.67245,3.95237 3.34889,7.90302 5.02808,11.85254 3.47634,8.18604 6.89825,16.39473 10.3233,24.60232 7.89234,18.90433 15.85467,37.77909 23.8464,56.64159 0.73405,1.73809 1.46472,3.4776 2.19184,5.2186 1.6776,4.01458 3.38722,8.00182 5.21438,11.95082 4.26865,9.3972 5.8642,17.03298 5.34888,27.51489 -0.0316,1.25877 -0.0632,2.51754 -0.0957,3.81445 -0.081,3.04369 -0.19496,6.08195 -0.3418,9.12305 1.18078,-0.0464 2.36156,-0.0928 3.57812,-0.14063 1.55727,-0.0375 3.11457,-0.0739 4.67188,-0.10937 1.16596,-0.0503 1.16596,-0.0503 2.35547,-0.10156 3.77401,-0.0645 5.7551,-0.0965 8.91406,2.11718 2.27952,3.44034 2.16802,6.24824 1.48047,10.23438 -1.74253,3.23613 -2.47186,3.82395 -6,5 -1.9386,0.0948 -3.88034,0.12914 -5.82126,0.13143 -1.22207,0.004 -2.44415,0.008 -3.70326,0.0116 -1.36332,-7.8e-4 -2.72664,-0.002 -4.08995,-0.003 -1.44271,0.003 -2.88541,0.006 -4.32812,0.009 -3.97412,0.008 -7.94823,0.01 -11.92236,0.0106 -4.28229,0.002 -8.56458,0.009 -12.84687,0.0161 -9.36763,0.0136 -18.73525,0.0196 -28.10289,0.024 -5.84631,0.003 -11.69262,0.007 -17.53893,0.0115 -16.1789,0.0122 -32.357793,0.0225 -48.536693,0.0259 -1.035801,2.2e-4 -2.071602,4.4e-4 -3.13879,6.6e-4 -1.038311,2.2e-4 -2.076621,4.4e-4 -3.146395,6.6e-4 -2.104092,4.5e-4 -4.208183,8.9e-4 -6.312275,10e-4 -1.043707,2.3e-4 -2.087414,4.5e-4 -3.162749,6.8e-4 -16.919351,0.004 -33.838659,0.0214 -50.757993,0.0447 -17.3605017,0.0237 -34.720981,0.0362 -52.081499,0.0374 -9.751503,9.1e-4 -19.502951,0.007 -29.254438,0.0248 -8.302017,0.0154 -16.60396,0.0205 -24.905988,0.0123 -4.237553,-0.004 -8.47496,-0.003 -12.71249,0.011 -3.87748,0.0127 -7.75471,0.0116 -11.63219,-5.9e-4 -1.40443,-0.002 -2.80888,0.001 -4.21329,0.01 -1.90618,0.011 -3.81245,0.002 -5.71863,-0.008 -1.05969,5.9e-4 -2.11939,0.001 -3.21119,0.002 -3.3371,-0.43583 -5.19443,-1.34068 -7.86175,-3.37375 -1.5,-3.375 -1.5,-3.375 -2,-7 1.32235,-2.97528 2.70912,-4.70912 5,-7 2.40445,-0.27847 2.40445,-0.27847 5.45947,-0.31885 1.14103,-0.0199 2.28207,-0.0397 3.45767,-0.0602 1.23649,-0.0115 2.47297,-0.0231 3.74692,-0.035 1.89352,-0.029 1.89352,-0.029 3.82529,-0.0587 3.35699,-0.0497 6.71387,-0.091 10.07101,-0.12814 3.4253,-0.04 6.85042,-0.0911 10.27558,-0.1413 6.721224,-0.0962 13.442543,-0.18121 20.16404,-0.2578 -1.270049,-0.32323 -2.540098,-0.64646 -3.848633,-0.97949 -1.70156,-0.43889 -3.403054,-0.87803 -5.104492,-1.31739 -0.832896,-0.21124 -1.665791,-0.42249 -2.523926,-0.64013 C -110.58272,324.10554 -127.19222,315.01083 -142,302 c -0.82887,-0.69609 -1.65773,-1.39219 -2.51172,-2.10938 C -155.43742,290.49144 -164.00792,279.59148 -171,267 c -0.33628,-0.60151 -0.67257,-1.20302 -1.01904,-1.82275 -17.69211,-32.0685 -20.32098,-68.89748 -10.54346,-103.92725 5.09835,-16.9127 13.96205,-32.94965 25.5625,-46.25 0.81082,-0.95906 1.62164,-1.91813 2.45703,-2.90625 7.75451,-8.89021 16.63232,-15.957 26.35156,-22.585938 C -126.0836,88.057521 -124.04206,86.540845 -122,85 c -23.82403,7.710545 -47.62635,15.47646 -71.32571,23.56329 -3.11213,1.06183 -6.22503,2.12136 -9.33811,3.18036 -9.15715,3.11693 -18.31046,6.24374 -27.45054,9.4104 -3.85923,1.33358 -7.72297,2.65371 -11.58782,3.97089 -1.79612,0.61564 -3.59022,1.23724 -5.38202,1.86536 -12.55436,4.39834 -22.73837,7.4829 -35.5408,2.0722 -0.70512,-0.27779 -1.41023,-0.55559 -2.13672,-0.8418 -5.02768,-2.0101 -5.02768,-2.0101 -6.23828,-3.2207 -0.4375,-2.8125 -0.4375,-2.8125 0,-6 5.39621,-4.39726 12.01787,-6.89709 18.3125,-9.75 2.52937,-1.15707 5.05615,-2.31971 7.58203,-3.48437 0.65788,-0.30322 1.31575,-0.60643 1.99356,-0.91883 7.58838,-3.51024 15.09914,-7.178298 22.61191,-10.8468 11.6853,-5.704142 23.42098,-11.276493 35.25586,-16.664063 C -198.32872,74.166895 -191.62727,70.73495 -185,67 c -0.65017,-0.500479 -1.30034,-1.000957 -1.97021,-1.516602 C -193.23112,60.551378 -196.67276,55.933755 -198,48 c -0.37587,-9.426444 0.26574,-18.751146 6.79688,-25.992188 C -182.98753,14.333551 -175.86307,13.685479 -165,14 c 4.5784,0.252055 9.12644,0.658263 13.6875,1.125 1.14533,0.09281 2.29066,0.185625 3.4707,0.28125 8.93014,0.919053 15.85694,3.39129 22.13086,10.007812 0.44086,0.72961 0.88172,1.459219 1.33594,2.210938 0.69996,1.102148 0.69996,1.102148 1.41406,2.226562 C -122,32 -122,32 -122,36 c 0.66,-0.33 1.32,-0.66 2,-1 0.18563,-1.27875 0.37125,-2.5575 0.5625,-3.875 2.05279,-9.797395 10.2909,-16.729214 18.30176,-22.0515137 C -95.055565,5.2477077 -88.827524,2.2232736 -82,0 c 0.968489,-0.31541748 0.968489,-0.31541748 1.956543,-0.63720703 C -55.53068,-8.0491385 -24.558493,-5.9363244 0,0 Z m 71,158 c 0.164355,0.78697 0.164355,0.78697 0.332031,1.58984 0.352874,1.72421 0.69205,3.45123 1.023438,5.17969 0.437766,2.19414 0.921331,4.37953 1.445312,6.55469 7.490785,34.54281 1.372316,71.97914 -17.582519,101.83789 -19.514264,29.43955 -49.1715155,50.05861 -83.807129,57.31079 -2.796587,0.55228 -5.600071,1.05444 -8.411133,1.5271 0,0.33 0,0.66 0,1 22.027392,0.53974 44.0536794,0.94404 66.086366,1.19168 10.232995,0.1181 20.461858,0.27876 30.692198,0.54343 8.927941,0.23086 17.852889,0.37799 26.783732,0.42893 4.72118,0.0297 9.433808,0.0984 14.152214,0.26775 23.41852,1.20566 23.41852,1.20566 43.61815,-9.0281 5.11017,-4.8118 10.43568,-10.146 13.66734,-16.40369 -0.30461,-4.24235 -2.05793,-7.18865 -4.21875,-10.8125 -0.49415,-0.83598 -0.49415,-0.83598 -0.99829,-1.68884 -1.08774,-1.83688 -2.18539,-3.66764 -3.28296,-5.49866 -0.77095,-1.29837 -1.54112,-2.59721 -2.31055,-3.89648 -1.5992,-2.69907 -3.20174,-5.39612 -4.80664,-8.0918 -3.30595,-5.55856 -6.57112,-11.14089 -9.83642,-16.72339 -1.76351,-3.01392 -3.53012,-6.02603 -5.29639,-9.03833 -0.70835,-1.20832 -1.41668,-2.41666 -2.125,-3.625 -0.35062,-0.59813 -0.70125,-1.19625 -1.0625,-1.8125 -6.72917,-11.47917 -13.45833,-22.95833 -20.1875,-34.4375 -0.35055,-0.59799 -0.7011,-1.19598 -1.06227,-1.81209 -0.70912,-1.20969 -1.41822,-2.4194 -2.12729,-3.62912 -1.758573,-3.00017 -3.517565,-6.00008 -5.277481,-8.99946 -3.334383,-5.68375 -6.664097,-11.37011 -9.980194,-17.06455 -1.573976,-2.70229 -3.150194,-5.40327 -4.726593,-8.10416 -0.753893,-1.29312 -1.506676,-2.5869 -2.258301,-3.88134 -1.039389,-1.78988 -2.082512,-3.57753 -3.126465,-5.36475 -0.890299,-1.52983 -0.890299,-1.52983 -1.798584,-3.09057 C 73.087737,159.93778 73.087737,159.93778 71,158 Z"
           fill="#fc6202"
           transform="translate(291,5)"
           id="path1-6"
           style="stroke-width:0.180823" /><path
           d="M 0,0 C 0.89912109,0.21430664 1.7982422,0.42861328 2.7246094,0.64941406 40.354916,9.9021058 71.580751,29.957441 99.365723,56.449219 c 1.338217,1.269847 2.692967,2.522249 4.052247,3.769531 20.41486,19.233164 30.02304,48.70841 31.08203,76.09375 0.0169,1.03798 0.0169,1.03798 0.0342,2.09692 0.39137,13.65795 6.24406,25.81147 11.52832,38.15308 0.80829,1.90602 1.61565,3.81244 2.42212,5.71924 1.67245,3.95237 3.34889,7.90302 5.02808,11.85254 3.47634,8.18604 6.89825,16.39473 10.3233,24.60232 7.89234,18.90433 15.85467,37.77909 23.8464,56.64159 0.73405,1.73809 1.46472,3.4776 2.19184,5.2186 1.6776,4.01458 3.38722,8.00182 5.21438,11.95082 4.26865,9.3972 5.8642,17.03298 5.34888,27.51489 -0.0316,1.25877 -0.0632,2.51754 -0.0957,3.81445 -0.081,3.04369 -0.19496,6.08195 -0.3418,9.12305 1.18078,-0.0464 2.36156,-0.0928 3.57812,-0.14063 1.55727,-0.0375 3.11457,-0.0739 4.67188,-0.10937 1.16596,-0.0503 1.16596,-0.0503 2.35547,-0.10156 3.77401,-0.0645 5.7551,-0.0965 8.91406,2.11718 2.27952,3.44034 2.16802,6.24824 1.48047,10.23438 -1.74253,3.23613 -2.47186,3.82395 -6,5 -1.9386,0.0948 -3.88034,0.12914 -5.82126,0.13143 -1.22207,0.004 -2.44415,0.008 -3.70326,0.0116 -1.36332,-7.8e-4 -2.72664,-0.002 -4.08995,-0.003 -1.44271,0.003 -2.88541,0.006 -4.32812,0.009 -3.97412,0.008 -7.94823,0.01 -11.92236,0.0106 -4.28229,0.002 -8.56458,0.009 -12.84687,0.0161 -9.36763,0.0136 -18.73525,0.0196 -28.10289,0.024 -5.84631,0.003 -11.69262,0.007 -17.53893,0.0115 -16.1789,0.0122 -32.357793,0.0225 -48.536693,0.0259 -1.035801,2.2e-4 -2.071602,4.4e-4 -3.13879,6.6e-4 -1.038311,2.2e-4 -2.076621,4.4e-4 -3.146395,6.6e-4 -2.104092,4.5e-4 -4.208183,8.9e-4 -6.312275,10e-4 -1.043707,2.3e-4 -2.087414,4.5e-4 -3.162749,6.8e-4 -16.919351,0.004 -33.838659,0.0214 -50.757993,0.0447 -17.3605017,0.0237 -34.720981,0.0362 -52.081499,0.0374 -9.751503,9.1e-4 -19.502951,0.007 -29.254438,0.0248 -8.302017,0.0154 -16.60396,0.0205 -24.905988,0.0123 -4.237553,-0.004 -8.47496,-0.003 -12.71249,0.011 -3.87748,0.0127 -7.75471,0.0116 -11.63219,-5.9e-4 -1.40443,-0.002 -2.80888,0.001 -4.21329,0.01 -1.90618,0.011 -3.81245,0.002 -5.71863,-0.008 -1.05969,5.9e-4 -2.11939,0.001 -3.21119,0.002 -3.3371,-0.43583 -5.19443,-1.34068 -7.86175,-3.37375 -1.5,-3.375 -1.5,-3.375 -2,-7 1.32235,-2.97528 2.70912,-4.70912 5,-7 1.97357,-0.22949 1.97357,-0.22949 4.44818,-0.20026 0.94139,0.006 1.88277,0.0122 2.85268,0.0185 1.04139,0.0169 2.08279,0.0339 3.15574,0.0513 1.6515,0.0146 1.6515,0.0146 3.33636,0.0295 3.71532,0.0347 7.43034,0.0833 11.14552,0.13122 2.65421,0.0267 5.30842,0.0525 7.96266,0.0767 4.249744,0.0392 8.499475,0.0791 12.749172,0.12326 10.56185,0.10901 21.123515,0.18022 31.685809,0.22862 1.146468,0.005 1.146468,0.005 2.316097,0.0108 6.297922,0.0292 12.59585,0.0568 18.893782,0.0836 5.678197,0.0241 11.356385,0.0496 17.034566,0.0772 1.214304,0.006 1.214304,0.006 2.45314,0.0118 13.0708762,0.0653 26.140094,0.20257 39.21008,0.36507 13.440635,0.16526 26.879955,0.24549 40.321611,0.25035 7.538974,0.005 15.073459,0.0495 22.611185,0.19249 34.677138,2.59848 34.677138,2.59848 64.919098,-10.23734 4.05629,-4.18518 7.89814,-8.6828 9.9043,-14.2128 -0.40534,-4.24503 -2.0468,-7.16998 -4.21875,-10.8125 -0.32944,-0.55732 -0.65887,-1.11464 -0.99829,-1.68884 -1.08774,-1.83688 -2.18539,-3.66764 -3.28296,-5.49866 -0.77095,-1.29837 -1.54112,-2.59721 -2.31055,-3.89648 -1.5992,-2.69907 -3.20174,-5.39612 -4.80664,-8.0918 -3.30595,-5.55856 -6.57112,-11.14089 -9.83642,-16.72339 -1.76351,-3.01392 -3.53012,-6.02603 -5.29639,-9.03833 -0.70835,-1.20832 -1.41668,-2.41666 -2.125,-3.625 -0.35062,-0.59813 -0.70125,-1.19625 -1.0625,-1.8125 -20.1875,-34.4375 -20.1875,-34.4375 -21.24992,-36.24989 -0.70856,-1.20871 -1.41715,-2.4174 -2.12577,-3.62607 -1.767577,-3.01501 -3.534689,-6.0303 -5.300824,-9.04616 -3.225782,-5.50729 -6.455346,-11.01221 -9.701736,-16.50738 -1.834508,-3.10551 -3.66636,-6.21257 -5.49675,-9.3205 -0.35702,-0.60608 -0.71404,-1.21216 -1.081879,-1.83661 C 74.477023,164.35697 70.003527,156.42065 65.6875,148.375 57.538759,133.26392 49.20091,119.18182 37,107 36.372227,106.30133 35.744453,105.60266 35.097656,104.88281 22.830267,91.514848 4.9348012,82.264635 -11.9375,76.1875 c -0.761514,-0.278115 -1.523027,-0.55623 -2.307617,-0.842773 -12.771604,-4.367134 -25.612956,-5.869178 -39.036621,-5.790772 -2.218222,0.0085 -4.433883,-0.02047 -6.651856,-0.052 -21.165505,-0.109079 -41.115686,8.117899 -60.957036,14.763672 -1.54085,0.514893 -3.08172,1.029722 -4.62261,1.544495 -20.67516,6.911936 -41.33094,13.881812 -61.98884,20.845088 -8.63605,2.91098 -17.27232,5.82134 -25.90882,8.73103 -3.88813,1.31014 -7.77604,2.62094 -11.66372,3.93243 -1.83809,0.61861 -3.67694,1.23499 -5.51656,1.84902 -4.93709,1.64948 -9.85574,3.33946 -14.7605,5.08292 -1.06319,0.37109 -2.12638,0.74217 -3.22178,1.1245 -2.02891,0.7084 -4.05345,1.42952 -6.07229,2.16613 -9.81565,3.39241 -18.39007,3.57394 -27.97925,-0.47874 -0.70512,-0.27779 -1.41023,-0.55559 -2.13672,-0.8418 -5.02768,-2.0101 -5.02768,-2.0101 -6.23828,-3.2207 -0.4375,-2.8125 -0.4375,-2.8125 0,-6 5.39621,-4.39726 12.01787,-6.89709 18.3125,-9.75 2.52937,-1.15707 5.05615,-2.31971 7.58203,-3.48437 0.65788,-0.30322 1.31575,-0.60643 1.99356,-0.91883 7.58838,-3.51024 15.09914,-7.178296 22.61191,-10.846798 11.6853,-5.704142 23.42098,-11.276493 35.25586,-16.664063 C -198.32872,74.166895 -191.62727,70.73495 -185,67 c -0.65017,-0.500479 -1.30034,-1.000957 -1.97021,-1.516602 C -193.23112,60.551378 -196.67276,55.933755 -198,48 c -0.37587,-9.426444 0.26574,-18.751146 6.79688,-25.992188 C -182.98753,14.333551 -175.86307,13.685479 -165,14 c 4.5784,0.252055 9.12644,0.658263 13.6875,1.125 1.14533,0.09281 2.29066,0.185625 3.4707,0.28125 8.93014,0.919053 15.85694,3.39129 22.13086,10.007812 0.44086,0.72961 0.88172,1.459219 1.33594,2.210938 0.69996,1.102148 0.69996,1.102148 1.41406,2.226562 C -122,32 -122,32 -122,36 c 0.66,-0.33 1.32,-0.66 2,-1 0.18563,-1.27875 0.37125,-2.5575 0.5625,-3.875 2.05279,-9.797395 10.2909,-16.729214 18.30176,-22.0515137 C -95.055565,5.2477077 -88.827524,2.2232736 -82,0 c 0.968489,-0.31541748 0.968489,-0.31541748 1.956543,-0.63720703 C -55.53068,-8.0491385 -24.558493,-5.9363244 0,0 Z"
           fill="#515151"
           transform="translate(291,5)"
           id="path2-7"
           style="stroke-width:0.180823" /><path
           d="m 0,0 c 15.660676,6.1808481 26.61202,27.568558 33.13623,42.003418 6.264635,14.48055 9.14171,29.685715 9.39795,45.406006 0.391372,13.657946 6.244059,25.811466 11.52832,38.153076 0.808295,1.90602 1.615649,3.81244 2.422119,5.71924 1.672449,3.95237 3.348894,7.90302 5.028076,11.85254 3.476341,8.18604 6.898258,16.39473 10.323304,24.60232 7.892346,18.90433 15.854667,37.77909 23.846405,56.64159 0.734043,1.73809 1.464717,3.4776 2.191833,5.2186 1.6776,4.01458 3.387223,8.00182 5.214383,11.95082 4.26865,9.3972 5.8642,17.03298 5.34888,27.51489 -0.0316,1.25877 -0.0632,2.51754 -0.0957,3.81445 -0.081,3.04369 -0.19496,6.08195 -0.3418,9.12305 1.18078,-0.0464 2.36156,-0.0928 3.57813,-0.14063 1.55726,-0.0375 3.11456,-0.0739 4.67187,-0.10937 1.16596,-0.0503 1.16596,-0.0503 2.35547,-0.10156 3.77401,-0.0645 5.7551,-0.0965 8.91406,2.11718 2.27952,3.44034 2.16802,6.24824 1.48047,10.23438 -1.74253,3.23613 -2.47186,3.82395 -6,5 -1.9386,0.0948 -3.88034,0.12914 -5.82126,0.13143 -1.22207,0.004 -2.44415,0.008 -3.70326,0.0116 -1.36332,-7.8e-4 -2.72664,-0.002 -4.08995,-0.003 -1.44271,0.003 -2.88541,0.006 -4.32812,0.009 -3.97412,0.008 -7.948227,0.01 -11.922358,0.0106 -4.282296,0.002 -8.564583,0.009 -12.846875,0.0161 -9.367626,0.0136 -18.735248,0.0196 -28.102883,0.024 -5.846313,0.003 -11.692624,0.007 -17.538936,0.0115 -16.178896,0.0122 -32.3577905,0.0225 -48.536691,0.0259 -1.035801,2.2e-4 -2.071602,4.4e-4 -3.13879,6.6e-4 -1.038311,2.2e-4 -2.076621,4.4e-4 -3.146395,6.6e-4 -2.104092,4.5e-4 -4.208183,8.9e-4 -6.312275,10e-4 -1.043707,2.3e-4 -2.087414,4.5e-4 -3.162749,6.8e-4 -16.919351,0.004 -33.838659,0.0214 -50.757993,0.0447 -17.360502,0.0237 -34.720985,0.0362 -52.081495,0.0374 -9.75151,9.1e-4 -19.50295,0.007 -29.25444,0.0248 -8.30202,0.0154 -16.60396,0.0205 -24.90599,0.0123 -4.23755,-0.004 -8.47496,-0.003 -12.71249,0.011 -3.87748,0.0127 -7.75471,0.0116 -11.63219,-5.9e-4 -1.40443,-0.002 -2.80888,0.001 -4.21329,0.01 -1.90618,0.011 -3.81245,0.002 -5.71863,-0.008 -1.05969,5.9e-4 -2.11939,0.001 -3.21119,0.002 -3.3371,-0.43583 -5.19443,-1.34068 -7.86175,-3.37375 -1.5,-3.375 -1.5,-3.375 -2,-7 1.32235,-2.97528 2.70912,-4.70912 5,-7 1.97357,-0.22949 1.97357,-0.22949 4.44818,-0.20026 0.94139,0.006 1.88277,0.0122 2.85268,0.0185 1.04139,0.0169 2.08279,0.0339 3.15574,0.0513 1.6515,0.0146 1.6515,0.0146 3.33636,0.0295 3.71532,0.0347 7.43034,0.0833 11.14552,0.13122 2.65421,0.0267 5.30842,0.0525 7.96266,0.0767 4.24974,0.0392 8.49947,0.0791 12.74917,0.12326 10.56185,0.10901 21.12352,0.18022 31.68581,0.22862 1.14647,0.005 1.14647,0.005 2.3161,0.0108 6.29792,0.0292 12.59585,0.0568 18.89378,0.0836 5.6782,0.0241 11.35639,0.0496 17.03457,0.0772 1.2143,0.006 1.2143,0.006 2.45314,0.0118 13.070872,0.0653 26.14009,0.20257 39.210076,0.36507 13.440635,0.16526 26.879955,0.24549 40.321611,0.25035 7.538974,0.005 15.073459,0.0495 22.6111853,0.19249 C 25.853721,286.04862 25.853721,286.04862 56.095684,273.2128 60.151993,269.02762 63.993836,264.53 66,259 c -0.405339,-4.24503 -2.046799,-7.16998 -4.21875,-10.8125 -0.329436,-0.55732 -0.658872,-1.11464 -0.998291,-1.68884 C 59.695215,244.66178 58.597572,242.83102 57.5,241 c -0.770946,-1.29837 -1.541115,-2.59721 -2.310547,-3.89648 -1.599207,-2.69907 -3.20174,-5.39612 -4.806641,-8.0918 -3.305955,-5.55856 -6.57112,-11.14089 -9.836425,-16.72339 C 38.782881,209.27441 37.016273,206.2623 35.25,203.25 c -0.708348,-1.20832 -1.416681,-2.41666 -2.125,-3.625 -0.350625,-0.59813 -0.70125,-1.19625 -1.0625,-1.8125 C 11.875,163.375 11.875,163.375 10.812576,161.56261 10.104016,160.3539 9.3954281,159.14521 8.6868134,157.93654 6.9192329,154.92153 5.1521206,151.90624 3.3859863,148.89038 0.16021659,143.38311 -3.0693485,137.87822 -6.3157043,132.38306 -13.724687,119.84105 -21.07026,107.28995 -27.935303,94.437988 c -2.178936,-4.062893 -4.403742,-8.052818 -6.869384,-11.949707 -0.435059,-0.690454 -0.870118,-1.380908 -1.31836,-2.092285 -0.80493,-1.259195 -1.625432,-2.508641 -2.464844,-3.745117 C -39.648437,74.996094 -39.648437,74.996094 -41,72 c 1.19037,-3.871751 3.192922,-7.268135 5.203125,-10.769531 0.965709,-1.686698 0.965709,-1.686698 1.950928,-3.407471 0.698496,-1.211921 1.397149,-2.423751 2.095947,-3.635498 0.720307,-1.254051 1.440438,-2.508203 2.1604,-3.762451 C -19.879804,33.526773 -10.098055,16.669806 0,0 Z"
           fill="#959595"
           transform="translate(383,56)"
           id="path3-7"
           style="stroke-width:0.180823" /><path
           d="M 0,0 C 2.253392,0.01599525 4.5049649,1.1554e-4 6.7583008,-0.01904297 20.281746,-0.04026664 33.195467,1.8715229 45.95752,6.5161133 c 1.252485,0.4511316 1.252485,0.4511316 2.530273,0.9113769 18.644966,6.9485548 34.457332,17.6493008 48.594727,31.5886228 0.595063,0.584751 1.190126,1.169502 1.803222,1.771973 7.922578,8.083399 13.592108,17.750426 19.259278,27.478027 0.59426,0.999024 1.18852,1.998047 1.80078,3.027344 5.54896,9.493249 10.0292,19.121509 12.32422,29.910153 0.23977,1.04704 0.23977,1.04704 0.48437,2.11524 1.99133,8.88631 2.45197,17.53344 2.45093,26.61303 0.002,2.12399 0.0203,4.24745 0.0393,6.37134 0.0902,20.81483 0.0902,20.81483 -3.43482,25.79907 -2.42453,1.74589 -4.71186,2.3281 -7.60229,3.07789 -1.15887,0.30164 -2.31773,0.60328 -3.51172,0.91406 -1.21301,0.30422 -2.42601,0.60844 -3.67578,0.92187 -1.18207,0.31196 -2.36414,0.62391 -3.58203,0.94532 -7.14266,1.82701 -14.052392,3.04449 -21.41797,3.42968 0.115411,-1.13429 0.115411,-1.13429 0.233154,-2.2915 2.240411,-22.74028 -0.371965,-43.00184 -7.233154,-64.7085 -0.965992,-0.0146 -1.931983,-0.0292 -2.927247,-0.0442 C 45.514781,103.7508 45.514781,103.7508 32.02002,100.39111 31.20501,100.19389 30.39,99.99666 29.550293,99.793457 16.746327,96.619784 4.8417376,92.219582 -6.9799805,86.391113 -7.7070117,86.03646 -8.434043,85.681807 -9.1831055,85.316406 -36.67132,71.773343 -59.315236,51.302932 -76.97998,26.391113 c 3.356365,-3.766303 7.078264,-6.02449 11.4375,-8.4375 0.712287,-0.39542 1.424575,-0.79084 2.158447,-1.198242 10.780252,-5.862838 22.29258,-9.5288484 34.096924,-12.7299804 1.641004,-0.451146 3.2736,-0.9333755 4.899414,-1.4365234 C -16.251277,0.2457012 -8.3945292,-0.07057268 0,0 Z"
           fill="#fc6102"
           transform="translate(232.97998,73.608887)"
           id="path4-2"
           style="stroke-width:0.180823" /><path
           d="M 0,0 C 1.3735035,1.7025406 2.6723255,3.4654862 3.9375,5.25 8.8234788,11.973243 14.273802,17.988332 20,24 c 0.693516,0.757969 1.387031,1.515937 2.101562,2.296875 27.055809,28.622747 70.700146,48.845285 110.141118,49.968887 0.72429,0.01671 1.44858,0.03343 2.19482,0.05064 1.14831,0.03117 1.14831,0.03117 2.31982,0.06297 2.41415,0.0647 4.82839,0.124006 7.24268,0.183121 1.64975,0.04326 3.29949,0.08688 4.94922,0.130859 C 152.96605,76.79968 156.98298,76.901163 161,77 c 5.88741,14.266534 8.05629,27.21392 8.125,42.5625 0.007,1.35932 0.007,1.35932 0.0144,2.74609 -0.002,0.84821 -0.004,1.69641 -0.007,2.57032 -10e-4,0.769 -0.002,1.53801 -0.003,2.33032 C 169,129 169,129 168,130 c -11.64077,2.08429 -23.27078,2.36756 -35.0625,2.3125 -1.2825,-0.004 -1.2825,-0.004 -2.59091,-0.008 C 68.567476,132.02779 15.328967,106.18654 -28,63.125 -28.635427,62.494326 -29.270854,61.863652 -29.925537,61.213867 -33.179504,57.948144 -36.123798,54.608568 -39,51 c -0.66,-0.33 -1.32,-0.66 -2,-1 3.57605,-11.878235 10.900104,-21.802519 19,-31 0.720586,-0.853359 1.441172,-1.706719 2.183594,-2.585938 C -5.6498077,0 -5.6498077,0 0,0 Z"
           fill="#f39054"
           transform="translate(157,100)"
           id="path5-2"
           style="stroke-width:0.180823" /><path
           d="M 0,0 C 3.671778,2.9973698 7.0291334,5.9178171 10.0625,9.5625 28.718782,31.321268 54.168483,48.049848 80,60 c 0.725742,0.340151 1.451484,0.680303 2.199219,1.030762 30.118901,14.055054 62.342901,21.186696 95.559811,21.099609 2.40656,-0.0053 4.81293,-4.5e-5 7.21949,0.0063 C 195.02519,82.140576 204.98061,81.756603 215,81 c -0.056,7.535435 -1.78562,14.060751 -4.25,21.125 -0.28754,0.83435 -0.57508,1.66869 -0.87134,2.52832 -5.34933,14.83151 -5.34933,14.83151 -10.32397,17.81152 -0.8843,0.15598 -1.7686,0.31196 -2.67969,0.47266 -1.06734,0.19078 -2.13469,0.38156 -3.23438,0.57813 -1.2014,0.15984 -2.40281,0.31968 -3.64062,0.48437 -1.9568,0.30164 -1.9568,0.30164 -3.95313,0.60938 C 154.56467,128.9822 122.09337,126.13191 92,116 91.295205,115.76555 90.59041,115.5311 89.864258,115.28955 62.801656,106.12861 38.273591,91.450324 17.28125,72.09375 15.123782,70.113608 12.917696,68.209831 10.6875,66.3125 8.3119697,64.264793 6.3282524,62.248494 4.4375,59.75 1.4484703,56.377761 -0.84889332,55.596579 -5,54 -11.784016,40.431968 -4.3584421,13.755367 0,0 Z"
           fill="#f39054"
           transform="translate(109,165)"
           id="path6-9"
           style="stroke-width:0.180823" /><path
           d="M 0,0 C 1.145332,0.0928125 2.2906641,0.185625 3.4707031,0.28125 12.096556,1.1689879 19.530285,3.3768502 25.281982,10.217285 28.02735,14.043549 29.58036,17.194242 30.3125,21.875 c -16.853997,9.492006 -16.853997,9.492006 -25,14 2.1664649,7.911336 5.072479,15.419078 8.1875,23 0.91326,2.227897 1.823578,4.457003 2.730469,6.6875 0.399851,0.973242 0.799702,1.946484 1.21167,2.949219 C 18.3125,70.875 18.3125,70.875 18.3125,72.875 7.6774784,76.509199 -2.9582014,80.141465 -13.59465,83.771484 c -4.990472,1.703157 -9.980812,3.406695 -14.97078,5.111328 -10.759533,3.675022 -21.522564,7.339384 -32.291153,10.987793 -5.941457,2.015475 -11.87469,4.053335 -17.802734,6.107915 -3.842057,1.32858 -7.688658,2.64365 -11.53627,3.95605 -1.802906,0.61837 -3.603827,1.24255 -5.402527,1.87305 -12.614616,4.41775 -22.848946,7.56721 -35.714386,2.12988 -0.70512,-0.27779 -1.41023,-0.55559 -2.13672,-0.8418 -5.02768,-2.0101 -5.02768,-2.0101 -6.23828,-3.2207 -0.4375,-2.8125 -0.4375,-2.8125 0,-6 5.39621,-4.397259 12.01787,-6.897089 18.3125,-9.75 2.52937,-1.157074 5.05615,-2.319705 7.58203,-3.484375 0.65788,-0.303212 1.31575,-0.606423 1.99356,-0.918823 7.58838,-3.510244 15.099139,-7.1783 22.61191,-10.846802 11.685296,-5.704142 23.420983,-11.276493 35.255859,-16.664063 C -47.016216,59.041895 -40.314769,55.60995 -33.6875,51.875 -34.337671,51.374521 -34.987842,50.874043 -35.657715,50.358398 -41.918619,45.426378 -45.360255,40.808755 -46.6875,32.875 -47.063371,23.448556 -46.421761,14.123854 -39.890625,6.8828125 -28.33283,-3.913422 -14.716409,-1.5059429 0,0 Z"
           fill="#fddec5"
           transform="translate(139.6875,20.125)"
           id="path7-4"
           style="stroke-width:0.180823" /><path
           d="m 0,0 c 2.9112089,-0.03868819 5.8229695,0.03795976 8.7338867,0.09448242 0,8.57999998 0,17.15999958 0,25.99999958 5.4153733,-0.157677 5.4153733,-0.157677 10.8291013,-0.360351 3.690115,-0.05419 5.597658,-0.04136 8.69043,2.125976 2.279523,3.440336 2.168016,6.24824 1.480469,10.234375 -1.742534,3.236134 -2.47186,3.823954 -6,5 -1.938598,0.09478 -3.880345,0.129144 -5.821257,0.131428 -1.833117,0.0058 -1.833117,0.0058 -3.703267,0.01164 -1.363316,-7.8e-4 -2.726632,-0.0017 -4.089948,-0.0026 -1.4427064,0.0026 -2.8854123,0.0056 -4.3281172,0.009 -3.9741233,0.0081 -7.9482286,0.0099 -11.9223591,0.0106 -4.2822967,0.0018 -8.5645837,0.0094 -12.8468747,0.01613 -9.367626,0.01359 -18.735249,0.01961 -28.102884,0.02401 -5.846312,0.0028 -11.692623,0.007 -17.538935,0.0115 -16.178896,0.01219 -32.357791,0.02249 -48.536695,0.02587 -1.0358,2.2e-4 -2.0716,4.39e-4 -3.13879,6.66e-4 -1.03831,2.18e-4 -2.07662,4.36e-4 -3.14639,6.61e-4 -2.10409,4.44e-4 -4.20818,8.9e-4 -6.31228,0.0013 -1.0437,2.21e-4 -2.08741,4.43e-4 -3.16275,6.71e-4 -16.91935,0.0039 -33.83865,0.02141 -50.75799,0.04469 -17.3605,0.02369 -34.72098,0.03618 -52.0815,0.03734 -9.7515,9.18e-4 -19.50295,0.0067 -29.25444,0.02482 -8.30201,0.01537 -16.60396,0.02054 -24.90598,0.01226 -4.23756,-0.0039 -8.47496,-0.0029 -12.7125,0.01106 -3.87748,0.01269 -7.7547,0.01159 -11.63218,-5.91e-4 -1.40443,-0.002 -2.80889,0.0012 -4.21329,0.0098 -1.90618,0.01104 -3.81245,0.0018 -5.71863,-0.0084 -1.0597,5.97e-4 -2.11939,0.0012 -3.21119,0.0018 -3.33711,-0.435828 -5.19444,-1.340676 -7.86175,-3.373747 -1.5,-3.375 -1.5,-3.375 -2,-7 1.32234,-2.975282 2.70912,-4.709121 5,-7 1.97241,-0.228343 1.97241,-0.228343 4.44539,-0.197466 0.94076,0.0067 1.88153,0.01344 2.8508,0.02036 1.56107,0.02643 1.56107,0.02643 3.15368,0.0534 1.65044,0.01565 1.65044,0.01565 3.33422,0.03162 2.4228,0.02418 4.84556,0.05303 7.26827,0.08583 3.94261,0.05337 7.88526,0.0956 11.82804,0.133901 4.24728,0.04173 8.49455,0.08408 12.74178,0.130654 10.5571,0.114868 21.11401,0.190626 31.67159,0.242836 0.76404,0.0038 1.52808,0.0077 2.31527,0.01163 7.0997,0.03549 14.19942,0.06859 21.29914,0.100971 4.87249,0.02242 9.74497,0.04632 14.61745,0.07155 0.80928,0.0042 1.61855,0.0083 2.45235,0.01265 13.06382,0.06967 26.12581,0.214753 39.18865,0.386488 13.43499,0.174709 26.86855,0.260415 40.30468,0.26729 7.53527,0.0065 15.06564,0.05364 22.59954,0.204129 33.617788,2.583075 33.617788,2.583075 63.124784,-9.270315 3.416184,-3.36954 6.042291,-7.094108 8.685665,-11.1004372 2.277786,-3.4061837 3.448157,-4.9172348 7.283468,-6.44937707 6.356133,-1.25231882 12.544251,-1.31912454 18.994409,-0.91004371 C -6.7261579,0.12761478 -3.3839883,0.08171453 0,0 Z"
           fill="#5c5f63"
           transform="translate(482.26611,311.90552)"
           id="path8"
           style="stroke-width:0.180823" /><path
           d="m 0,0 c 18.515118,9.257559 30.175351,32.754422 36.8125,51.4375 3.667968,11.781958 5.520685,23.640911 5.72168,35.971924 0.391372,13.657946 6.244059,25.811466 11.52832,38.153076 0.808295,1.90602 1.615649,3.81244 2.422119,5.71924 1.672449,3.95237 3.348894,7.90302 5.028076,11.85254 3.476341,8.18604 6.898258,16.39473 10.323304,24.60232 7.517825,18.00725 15.100657,35.98697 22.708679,53.95627 C 96.702956,226.79252 98.854633,231.89491 101,237 c 0.34968,0.83124 0.69936,1.66249 1.05963,2.51892 1.00125,2.38519 1.99717,4.77254 2.99115,7.16077 0.45007,1.07086 0.45007,1.07086 0.90923,2.16336 C 108,253.76953 108,253.76953 108,256 c -4.22854,0.34166 -8.457904,0.67175 -12.6875,1 -1.768271,0.14309 -1.768271,0.14309 -3.572266,0.28906 C 83.809339,257.89746 75.953157,258.11946 68,258 c 0,-0.66 0,-1.32 0,-2 1.392188,-0.61875 1.392188,-0.61875 2.8125,-1.25 3.905789,-2.13224 3.905789,-2.13224 6.1875,-5.75 0.494467,-6.43374 -0.724714,-10.82904 -3.304688,-16.67578 -0.525401,-1.23817 -0.525401,-1.23817 -1.061416,-2.50136 -1.156553,-2.71759 -2.332773,-5.42619 -3.508896,-8.13536 -0.822555,-1.924 -1.643574,-3.84865 -2.463135,-5.77393 -1.702841,-3.99702 -3.412252,-7.99113 -5.12622,-11.98339 -3.514477,-8.20067 -6.943664,-16.43668 -10.375489,-24.67218 -5.085164,-12.19801 -10.205232,-24.38076 -15.375,-36.54316 -0.870571,-2.05092 -1.741095,-4.10186 -2.611572,-6.15283 C 31.518051,132.6617 29.856569,128.76399 28.19165,124.86768 17.487183,99.731701 17.487183,99.731701 17.5,88.625 16.806057,63.233974 9.6423014,33.642301 -9,15 -6.03,10.05 -3.06,5.1 0,0 Z"
           fill="#808285"
           transform="translate(383,56)"
           id="path9"
           style="stroke-width:0.180823" /><path
           d="M 0,0 C 0.886875,0.763125 1.77375,1.52625 2.6875,2.3125 3.6600977,3.1400781 3.6600977,3.1400781 4.6523437,3.984375 6.3452585,5.4378592 8.0231982,6.9088495 9.6914063,8.390625 37.158138,32.547078 71.41292,50.459959 107.20313,58.175781 c 2.55173,0.553926 5.09176,1.164491 7.61718,1.828125 C 135.68603,65.253159 159.74394,66.019327 181,63 c 1.66575,-0.05915 3.33341,-0.08854 5,-0.0625 0.76312,0.009 1.52625,0.01805 2.3125,0.02734 0.55687,0.0116 1.11375,0.0232 1.6875,0.03516 -2.68314,5.313877 -6.82371,9.16703 -11,13.3125 -0.76095,0.75676 -1.5219,1.513521 -2.30591,2.293213 -11.63871,11.407195 -21.20814,17.461372 -37.92456,17.632568 -1.17601,0.01469 -1.17601,0.01469 -2.37578,0.02968 C 103.88072,96.590806 103.88072,96.590806 90,92 89.325015,91.785693 88.650029,91.571387 87.95459,91.350586 83.194094,89.806095 78.586702,87.999008 74,86 73.344351,85.716729 72.688701,85.433457 72.013184,85.141602 60.882365,80.226554 51.377088,73.714057 42,66 41.448281,65.547539 40.896563,65.095078 40.328125,64.628906 20.97375,48.484291 5.0835456,24.909373 0,0 Z"
           fill="#f39054"
           transform="translate(108,242)"
           id="path10"
           style="stroke-width:0.180823" /><path
           d="M 0,0 C 1.2890625,0.23332031 2.578125,0.46664062 3.90625,0.70703125 27.874919,5.4448914 49.147975,17.597395 67,34 c 0.871406,0.788906 1.742812,1.577812 2.640625,2.390625 C 78.876105,45.161427 86.706718,55.932505 93,67 c 0,0.66 0,1.32 0,2 C 80.758962,69.344998 69.219324,68.910691 57.208984,66.44873 55.003229,66.000656 52.792489,65.594507 50.578125,65.191406 14.617814,58.303457 -21.31268,35.731747 -43.074219,6.1835937 -44.439789,4.1495624 -45.756678,2.1103757 -47,0 -31.195562,-2.6107627 -15.798004,-3.0232907 0,0 Z"
           fill="#f39054"
           transform="translate(218,93)"
           id="path11"
           style="stroke-width:0.180823" /><path
           d="m 0,0 c 2.9070388,-0.02207012 5.8141284,0.05122767 8.7207031,0.10766602 0,8.57999998 0,17.15999998 0,25.99999998 -21.1200001,0 -42.2400001,0 -64.0000001,0 1.98,-2.31 3.96,-4.62 6,-7 1.144808,-1.441728 2.287204,-2.885378 3.425781,-4.332031 C -39.173751,6.8366204 -33.601213,1.3689581 -22.961914,0.21191406 -15.30589,-0.1814853 -7.6607495,0.14888071 0,0 Z"
           fill="#6a6e75"
           transform="translate(482.2793,311.89233)"
           id="path12"
           style="stroke-width:0.180823" /><path
           d="M 0,0 C 1.546875,1.5742187 1.546875,1.5742187 2.75,3.6875 3.1573438,4.3719922 3.5646875,5.0564844 3.984375,5.7617187 5.075844,8.1671485 5.5809654,10.399253 6,13 c -3.9647765,2.232923 -7.9304311,4.464228 -11.8984375,6.691406 -2.2203177,1.246994 -4.4348195,2.500858 -6.6406255,3.773438 -4.944985,2.835252 -10.048918,5.283124 -15.230468,7.650879 -3.772411,1.724343 -7.503485,3.508159 -11.210938,5.368652 -1.265779,0.626001 -1.265779,0.626001 -2.557129,1.264648 -1.653006,0.818991 -3.300145,1.64996 -4.940429,2.494141 -3.517015,1.725384 -5.845089,2.766483 -9.811035,2.709961 -2.923371,-1.027813 -4.71802,-2.143916 -7.023438,-4.203125 -0.676758,-0.582656 -1.353516,-1.165313 -2.050781,-1.765625 C -67.279664,34.660932 -67.648206,32.957113 -68,30 c 1.185937,-0.556875 2.371875,-1.11375 3.59375,-1.6875 7.657417,-3.605928 15.298438,-7.226838 22.84375,-11.0625 7.058754,-3.560702 14.185593,-6.97927 21.337921,-10.34729 1.266945,-0.5981364 2.532334,-1.1995805 3.796082,-1.8044434 1.788103,-0.8546673 3.582819,-1.6954595 5.377716,-2.5357666 1.045027,-0.4937109 2.0900535,-0.9874219 3.1667478,-1.4960938 C -4.988729,-0.00416759 -3.0523657,-0.35572304 0,0 Z"
           fill="#fdcbaa"
           transform="translate(164,29)"
           id="path13"
           style="stroke-width:0.180823" /><path
           d="m 0,0 c 4.0340829,4.8024797 6.2262345,9.7192987 6,16 -14.4928575,4.589103 -28.807341,7.794233 -44,9 -1.004605,-2.122827 -2.003556,-4.24833 -3,-6.375 -0.556875,-1.183359 -1.11375,-2.366719 -1.6875,-3.585937 C -44,12 -44,12 -44,10 -42.936403,9.8496631 -42.936403,9.8496631 -41.851318,9.6962891 -23.569044,7.1107159 -23.569044,7.1107159 -5.6601562,2.734375 -3,2 -3,2 0,2 0,1.34 0,0.68 0,0 Z"
           fill="#ed5a00"
           transform="translate(356,152)"
           id="path14"
           style="stroke-width:0.180823" /><path
           d="m 0,0 c 0.21581577,5.3953943 0.21506442,9.9545755 -2,15 -3.786034,3.786034 -9.860705,4.263162 -14.9375,5.5625 -1.186582,0.316465 -2.373164,0.63293 -3.595703,0.958984 C -27.729976,23.382923 -34.579263,24.542085 -42,25 c 0.66,-5.28 1.32,-10.56 2,-16 2.264238,-0.4717969 2.264238,-0.4717969 4.574219,-0.953125 C -20.769684,4.9626258 -20.769684,4.9626258 -6.4257812,0.69921875 -4,0 -4,0 0,0 Z"
           fill="#ed5a00"
           transform="translate(367,220)"
           id="path15"
           style="stroke-width:0.180823" /><path
           d="M 0,0 C 0.91652344,0.01160156 1.8330469,0.02320313 2.7773438,0.03515625 3.6964453,0.04417969 4.6155469,0.05320312 5.5625,0.0625 6.2727734,0.07410156 6.9830469,0.08570313 7.7148437,0.09765625 7.1001002,3.9879739 5.2198009,6.4675842 2.9023438,9.5976563 2.2152734,10.536094 1.5282031,11.474531 0.8203125,12.441406 c -3.5915524,4.531087 -5.9399607,7.005005 -11.6835935,8.324219 -1.078946,0.253301 -2.157891,0.506602 -3.269532,0.767578 -1.122773,0.248145 -2.245546,0.496289 -3.402343,0.751953 -1.107305,0.259746 -2.21461,0.519492 -3.355469,0.78711 -5.78718,1.331533 -11.485948,2.427326 -17.394531,3.02539 0.688359,-1.069277 0.688359,-1.069277 1.390625,-2.160156 0.613594,-0.957773 1.227187,-1.915547 1.859375,-2.902344 0.904922,-1.40959 0.904922,-1.40959 1.828125,-2.847656 2.038571,-3.082144 2.038571,-3.082144 3.394531,-6.71875 2.000445,-3.5340543 4.335163,-4.3266627 8.132813,-5.5507813 2.186729,-0.5926527 4.381297,-1.1569851 6.582031,-1.6953125 2.202324,-0.5788241 4.404175,-1.1594529 6.6054685,-1.7421874 0.974773,-0.2434717 1.9495459,-0.4869434 2.9538574,-0.737793 C -2.9837002,1.011358 -2.6610906,0.11372182 0,0 Z"
           fill="#ed5b01"
           transform="translate(338.28516,277.90234)"
           id="path16"
           style="stroke-width:0.180823" /><path
           d="M 0,0 C 2.475,0.99 2.475,0.99 5,2 1.7345424,3.8839179 -1.2811176,4.4928797 -5,5 -3.35,3.35 -1.7,1.7 0,0 Z"
           fill="#fb6c13"
           transform="translate(272,330)"
           id="path17"
           style="stroke-width:0.180823" /></g></g></g></svg>
